<?xml version="1.0" encoding="UTF-8"?>
<svg version="1.1" xmlns="http://www.w3.org/2000/svg" width="512" height="512">
<path d="M0 0 C0.66 0.66 1.32 1.32 2 2 C4.3738519 2.01960818 4.3738519 2.01960818 7.0625 1.625 C25.75907122 -0.39034469 41.7037704 3.80054188 57 15 C66.96205448 23.07101869 74.64977672 36.17287885 76 49 C76.88816406 49.25910156 77.77632813 49.51820312 78.69140625 49.78515625 C89.12657581 53.61672382 95.50921264 62.51606104 100.05859375 72.26953125 C104.4944582 83.36980448 103.90975554 94.84613136 100 106 C95.20398296 116.33907723 87.55638196 124.51310289 77 129 C74.67557365 129.69708753 72.3433452 130.36942711 70 131 C70.02320313 132.16917969 70.04640625 133.33835938 70.0703125 134.54296875 C70.08907821 136.09113942 70.10727755 137.63931703 70.125 139.1875 C70.14175781 139.95642578 70.15851563 140.72535156 70.17578125 141.51757812 C70.21243778 145.78806393 70.07445456 149.1443 68 153 C64.53110493 156.22966093 60.75064336 158 56 158 C55.896875 158.66 55.79375 159.32 55.6875 160 C55.0955106 162.58322647 54.33092777 164.49046407 53.25 166.875 C51.89261566 170.34314947 51.9101644 170.7604384 53.3125 174.5 C54.1478125 176.2325 54.1478125 176.2325 55 178 C55.74408396 182.33047623 55.99898061 184.5831055 53.43188477 188.22412109 C51.25009542 190.57413431 48.98240231 192.76391443 46.625 194.9375 C45.8309375 195.70384766 45.036875 196.47019531 44.21875 197.25976562 C37.17404091 204 37.17404091 204 30 204 C30 231.39 30 258.78 30 287 C31.98 287.66 33.96 288.32 36 289 C42.44715056 293.24456531 46.3633941 298.57044936 48.578125 305.91796875 C50.2348416 314.09417197 49.21545828 321.79908969 45 329 C39.54060219 336.43762666 32.71027154 339.91368285 23.68359375 341.375 C16.33721111 341.79554427 9.4602319 338.9992451 3.1875 335.375 C-3.75752587 327.83468619 -6.37832286 320.45728624 -6.27734375 310.359375 C-5.63552096 302.58518342 -1.7110195 296.21147406 4 291 C9.66863905 287 9.66863905 287 13 287 C13 259.61 13 232.22 13 204 C9.2354002 206.5097332 8.72152973 208.70576386 7.16015625 212.80859375 C5.75828629 215.45657034 4.55421364 216.44320362 2 218 C-0.56542969 218.34057617 -0.56542969 218.34057617 -3.421875 218.29296875 C-4.44667969 218.28330078 -5.47148437 218.27363281 -6.52734375 218.26367188 C-7.59082031 218.23853516 -8.65429688 218.21339844 -9.75 218.1875 C-10.82894531 218.17396484 -11.90789062 218.16042969 -13.01953125 218.14648438 C-15.6801942 218.11116584 -18.33984296 218.06184199 -21 218 C-20.99631283 218.81537924 -20.99262566 219.63075848 -20.98882675 220.47084618 C-20.90038407 240.33589253 -20.83424582 260.20090481 -20.79275131 280.0661068 C-20.7721501 289.67288674 -20.74407626 299.27953504 -20.69824219 308.88623047 C-20.65829958 317.26210198 -20.63254945 325.63787812 -20.62364602 334.01384223 C-20.61844382 338.44646556 -20.60626792 342.8788161 -20.57707977 347.31135178 C-20.54979317 351.48923285 -20.54158155 355.66673051 -20.54756927 359.84469223 C-20.54647493 361.37244251 -20.53860009 362.90020651 -20.5231781 364.42787933 C-20.40598767 376.64264552 -22.21198724 386.93918862 -31 396 C-39.13570886 402.65648907 -47.14632892 405.47239482 -57.53710938 405.34057617 C-58.45511322 405.34101425 -59.37311707 405.34145233 -60.31893921 405.34190369 C-63.32743231 405.33982793 -66.33535528 405.31655437 -69.34375 405.29296875 C-71.43981624 405.28736848 -73.53588643 405.28310042 -75.63195801 405.28010559 C-81.12946552 405.26869079 -86.62673254 405.23925259 -92.12414551 405.20599365 C-97.74158475 405.17522012 -103.35906313 405.16158471 -108.9765625 405.14648438 C-119.98449727 405.1143796 -130.99219094 405.06163918 -142 405 C-142 413.91 -142 422.82 -142 432 C-139.08414063 431.95359375 -136.16828125 431.9071875 -133.1640625 431.859375 C-130.31105282 431.82809763 -127.45806292 431.80385653 -124.60498047 431.78027344 C-122.63614218 431.76027213 -120.66736244 431.73306198 -118.69873047 431.69824219 C-115.85369342 431.64921469 -113.00944785 431.62691618 -110.1640625 431.609375 C-109.29697662 431.58872986 -108.42989075 431.56808472 -107.53652954 431.54681396 C-98.18172725 431.54344978 -90.47645053 434.73547495 -83.69140625 441.13671875 C-76.58830005 448.96161865 -76.77359496 457.45558791 -76.6875 467.5 C-76.65849609 468.62792969 -76.62949219 469.75585938 -76.59960938 470.91796875 C-76.59123047 472.00722656 -76.58285156 473.09648437 -76.57421875 474.21875 C-76.55234497 475.7027832 -76.55234497 475.7027832 -76.5300293 477.21679688 C-77.17075289 481.01121194 -78.14363943 482.39125476 -81 485 C-84.2928034 485.7586245 -87.54067998 485.66993397 -90.90710449 485.62818909 C-91.92450447 485.63528347 -92.94190444 485.64237786 -93.99013472 485.64968723 C-97.4098195 485.66733271 -100.82837756 485.6491282 -104.24804688 485.63110352 C-106.69532287 485.6362398 -109.14259517 485.64351886 -111.58985901 485.65278625 C-117.5532063 485.66941661 -123.51610948 485.66264102 -129.47941887 485.64469803 C-134.32532765 485.63067939 -139.17114748 485.62677762 -144.01707458 485.6301403 C-144.70644268 485.63061775 -145.39581078 485.63109519 -146.10606882 485.6315871 C-147.50645278 485.63261342 -148.90683672 485.63366877 -150.30722064 485.63475286 C-162.69364885 485.64332291 -175.07991887 485.62663516 -187.46630859 485.59692383 C-199.48883713 485.56808563 -211.51113777 485.56100244 -223.53369141 485.57641602 C-236.62153659 485.59317235 -249.70927353 485.59721823 -262.79712152 485.57970566 C-264.19238948 485.57786124 -265.58765744 485.57602652 -266.98292542 485.57420158 C-267.66944607 485.57328949 -268.35596673 485.5723774 -269.06329104 485.57143768 C-273.90406458 485.56582872 -278.74478534 485.56914278 -283.58555603 485.57574654 C-290.09940407 485.5842798 -296.61297154 485.57133893 -303.12678337 485.54389763 C-305.52135681 485.53699473 -307.91596089 485.53693607 -310.31053352 485.54411316 C-313.57169185 485.55276326 -316.83182332 485.5369262 -320.09289551 485.5146637 C-321.04736179 485.52290446 -322.00182807 485.53114523 -322.98521757 485.53963572 C-329.35894869 485.45896441 -329.35894869 485.45896441 -332.5868454 483.14793301 C-334.4899606 480.25528138 -334.51703289 478.25071474 -334.53125 474.80078125 C-334.53898437 472.98610352 -334.53898437 472.98610352 -334.546875 471.13476562 C-334.53140625 469.87341797 -334.5159375 468.61207031 -334.5 467.3125 C-334.51546875 466.07048828 -334.5309375 464.82847656 -334.546875 463.54882812 C-334.51066028 455.00668055 -333.39481327 448.69615836 -328.359375 441.73046875 C-322.21129837 435.83607489 -315.47671039 431.85963978 -306.78222656 431.88647461 C-305.96167786 431.88655014 -305.14112915 431.88662567 -304.29571533 431.88670349 C-303.41953552 431.89186478 -302.54335571 431.89702606 -301.640625 431.90234375 C-300.73624695 431.9037587 -299.8318689 431.90517365 -298.90008545 431.90663147 C-296.01668973 431.91222089 -293.13337218 431.92477147 -290.25 431.9375 C-288.29296987 431.94251637 -286.33593853 431.94707904 -284.37890625 431.95117188 C-279.58588329 431.9613352 -274.79302896 431.98091272 -270 432 C-270 423.09 -270 414.18 -270 405 C-272.76487793 405.02094727 -275.52975586 405.04189453 -278.37841797 405.06347656 C-287.53853618 405.12991175 -296.69866535 405.17400129 -305.85896111 405.20724869 C-311.41001053 405.22807654 -316.960812 405.2563064 -322.51171875 405.30175781 C-327.87393743 405.34538683 -333.23591838 405.36917319 -338.59830093 405.37950897 C-340.63873153 405.38686978 -342.67914988 405.40124345 -344.71947861 405.42292023 C-358.87452603 405.56725312 -370.10542403 405.07278683 -381 395 C-391.89676625 383.97711377 -391.58361265 369.12066721 -391.50170898 354.69067383 C-391.50549925 352.77396754 -391.5110051 350.85726399 -391.51808167 348.94056702 C-391.53195834 343.77129059 -391.52092277 338.60234989 -391.50437045 333.43309236 C-391.49044659 328.00590439 -391.49698812 322.57873446 -391.50050354 317.15153503 C-391.50319919 308.04375848 -391.48978327 298.93611421 -391.46655273 289.82836914 C-391.43992315 279.31556563 -391.43820597 268.80298284 -391.4499411 258.29015714 C-391.46073739 248.15015785 -391.45451881 238.01023798 -391.44038582 227.87024498 C-391.43464451 223.56626178 -391.43469401 219.26233706 -391.43945122 214.95835304 C-391.44424004 209.88812196 -391.4340406 204.8181312 -391.41249657 199.74794579 C-391.40695533 197.89286484 -391.40643878 196.03776068 -391.41144943 194.18267822 C-391.44554314 179.74477535 -390.48265677 168.05532559 -380.1484375 157.0234375 C-370.63247729 148.11407237 -360.68334892 146.84400834 -348.10415649 146.87974548 C-347.00463791 146.87889106 -345.90511933 146.87803663 -344.772282 146.87715632 C-341.08726649 146.87550894 -337.40229648 146.88101079 -333.71728516 146.88647461 C-331.07603859 146.88675667 -328.43479481 146.88664242 -325.79354858 146.8860321 C-320.10673171 146.88550819 -314.41992632 146.8886412 -308.73311234 146.89426994 C-300.51097158 146.90240282 -292.28883638 146.905002 -284.06669204 146.90625793 C-270.7262616 146.90844564 -257.38583728 146.91509811 -244.04541016 146.92456055 C-231.08772818 146.93374193 -218.13004786 146.94081922 -205.17236328 146.94506836 C-204.37342481 146.94533108 -203.57448633 146.94559381 -202.7513376 146.94586449 C-198.74323032 146.94716954 -194.73512303 146.94843325 -190.72701573 146.94967639 C-157.48467266 146.96004025 -124.24233725 146.97772535 -91 147 C-91 141.72 -91 136.44 -91 131 C-92.98 130.67 -94.96 130.34 -97 130 C-108.88138792 125.05227506 -116.35001486 117.4236998 -121.58203125 105.71875 C-125.99605598 94.14257496 -125.92964346 82.54556124 -121.125 71.125 C-118.17166757 65.08756027 -114.7995442 60.7995442 -110 56 C-171.38 55.505 -171.38 55.505 -234 55 C-233.67 62.92 -233.34 70.84 -233 79 C-230.36 80.32 -227.72 81.64 -225 83 C-219.26431256 87.9235547 -215.41746933 93.67919241 -214.6875 101.234375 C-214.3645047 110.64161299 -216.00316185 116.54755475 -221.1875 124.25 C-227.14798784 130.07803256 -233.82424471 133.0825957 -242.125 133.3125 C-250.16970155 133.19466815 -256.37938871 130.83465841 -262.375 125.4375 C-267.49994543 119.85608169 -270.06781864 113.04966818 -270.5 105.5 C-270.13635466 98.27904244 -267.36988965 89.945951 -262 85 C-261.21173828 84.70013184 -260.42347656 84.40026367 -259.61132812 84.09130859 C-256.38667839 82.74382409 -254.39749044 81.56797983 -252 79 C-250.65859139 73.14809523 -250.91152065 67.4083254 -251.125 61.4375 C-251.17898617 59.03246421 -251.21845109 56.62874037 -251.23605347 54.22315979 C-251.2502312 52.7313262 -251.28683207 51.23948489 -251.34915161 49.74888611 C-251.41589334 46.12976615 -251.10512301 44.1686319 -249.17138672 41.06665039 C-245.71031614 37.77252374 -242.79141767 37.87573057 -238.21040344 37.87974548 C-237.00305542 37.87837082 -235.7957074 37.87699615 -234.55177307 37.87557983 C-233.21200537 37.87911895 -231.87223791 37.88275376 -230.5324707 37.88647461 C-229.12317914 37.88675665 -227.71388743 37.88659842 -226.30459595 37.8860321 C-222.47637046 37.88574479 -218.6481762 37.89163095 -214.81995797 37.89860606 C-210.82009301 37.90485048 -206.82022736 37.90544426 -202.82035828 37.90663147 C-195.24497586 37.90974157 -187.66960785 37.91795064 -180.09423178 37.92798096 C-171.47038632 37.93915206 -162.84654017 37.94465506 -154.22268927 37.94967639 C-136.48178468 37.9601335 -118.7408935 37.97772675 -101 38 C-100.80011475 37.24395981 -100.60022949 36.48791962 -100.39428711 35.70896912 C-100.1288208 34.71760452 -99.86335449 33.72623993 -99.58984375 32.70483398 C-99.3280835 31.72191879 -99.06632324 30.7390036 -98.79663086 29.7263031 C-94.61986888 15.43220565 -82.38669482 3.19462515 -69.69921875 -4.0859375 C-46.95742775 -16.22209517 -21.45192662 -13.17622119 0 0 Z M-75.49609375 23.7734375 C-82.95823701 33.18950854 -85.66515671 43.01272999 -86.375 54.875 C-86.79288703 59.68070084 -86.79288703 59.68070084 -88.5 62.3125 C-89.99622548 63.3224522 -91.50987219 64.30824973 -93.0546875 65.2421875 C-100.57673471 69.92763778 -105.31284369 75.17511906 -107.5 83.9375 C-108.7355598 92.2517878 -106.73347827 99.17135038 -101.8515625 105.953125 C-98.03980332 110.16696848 -93.37831173 113.20722942 -88 115 C-86.10529184 115.0685495 -84.2083166 115.08480372 -82.3125 115.0625 C-81.31863281 115.05347656 -80.32476562 115.04445313 -79.30078125 115.03515625 C-78.54152344 115.02355469 -77.78226562 115.01195312 -77 115 C-73.75676118 109.66285578 -73.75676118 109.66285578 -73.40234375 103.64453125 C-73.96850562 102.12867849 -74.55594134 100.62060618 -75.1640625 99.12109375 C-76.48350706 95.77315733 -76.64456351 93.54509929 -76 90 C-73.99313714 86.99578711 -71.55299938 84.5433472 -69 82 C-68.32839844 81.26910156 -67.65679687 80.53820312 -66.96484375 79.78515625 C-60.15170445 72.52568413 -60.15170445 72.52568413 -55 72 C-52.66366904 72.65062381 -50.42786333 73.46443102 -48.15625 74.3125 C-45.02893742 75.30961416 -43.12126106 74.97539408 -40 74 C-39.26523437 73.78472656 -38.53046875 73.56945312 -37.7734375 73.34765625 C-34.16284102 72.07159854 -31.7027889 71.0532463 -29.53515625 67.8046875 C-27.60530176 63.559629 -27.60530176 63.559629 -27 59 C-21.76732857 57.4534926 -16.4098958 57.8156898 -11 57.8125 C-9.3603125 57.79413086 -9.3603125 57.79413086 -7.6875 57.77539062 C-6.1096875 57.77249023 -6.1096875 57.77249023 -4.5 57.76953125 C-3.5409375 57.76542236 -2.581875 57.76131348 -1.59375 57.75708008 C1.12331887 58.01154954 2.73084963 58.50295098 5 60 C6.1328125 62.4609375 6.1328125 62.4609375 7.125 65.375 C9.01817007 69.84124023 10.43011173 71.8443276 14.9375 73.75 C19.81986838 75.23562465 23.10252403 74.95018443 27.9296875 73.3671875 C28.95449219 73.06167969 28.95449219 73.06167969 30 72.75 C30.61875 72.53859375 31.2375 72.3271875 31.875 72.109375 C35.83573774 71.9055135 38.74086347 73.92434287 41.68212891 76.43701172 C43.43677732 78.10660446 45.13085725 79.81949743 46.8125 81.5625 C47.39708984 82.15224609 47.98167969 82.74199219 48.58398438 83.34960938 C52.84883209 87.69352726 54.21771922 89.65941947 54.171875 96.0546875 C54 98 54 98 52.9375 100 C51.40652397 103.26608219 52.21423075 106.59711222 53 110 C53.63784336 111.67790884 54.29879397 113.34756775 55 115 C63.17751187 115.69959702 69.18980699 114.7551874 76 110 C82.4669471 104.13336022 85.5207487 97.55972128 86.05078125 88.8671875 C85.90340097 80.54586994 82.88901075 74.85929798 77.1875 68.90625 C74.06189477 66.1825083 70.80730067 64.56531419 67 63 C62.33825503 60.7704698 62.33825503 60.7704698 60.875 57.4375 C60.39153922 55.53818979 59.90888765 53.6386709 59.4296875 51.73828125 C56.33232614 40.39909052 50.31798826 30.4926258 40.13671875 24.2421875 C30.19186634 19.01071495 20.57973082 16.34390015 9.5 19 C0.52296121 21.03397983 0.52296121 21.03397983 -3 20 C-6.13623092 17.91642911 -9.02850434 15.62641929 -11.9609375 13.265625 C-32.23441814 -1.84828087 -60.18423749 5.62309091 -75.49609375 23.7734375 Z M-15 74 C-15.28037109 74.97839844 -15.28037109 74.97839844 -15.56640625 75.9765625 C-17.36622364 80.76195932 -18.85720856 83.36801158 -23.42578125 85.89453125 C-27.21497967 87.46565073 -31.10736222 88.71181781 -35 90 C-36.26532259 90.54606127 -37.52599151 91.10306018 -38.78125 91.671875 C-43.44116805 93.59465672 -46.28401296 92.63416912 -50.875 90.9375 C-51.57625 90.628125 -52.2775 90.31875 -53 90 C-55.666508 92.16588845 -55.666508 92.16588845 -58 95 C-57.86863344 97.824381 -57.25262369 99.49475261 -56 102 C-55.27038932 107.83688541 -56.85945814 111.27862372 -59.65625 116.375 C-60.99206448 118.98449805 -61.85458705 121.52677083 -62.75 124.3125 C-64.64503092 129.32643599 -67.41975619 131.03504725 -72.171875 133.2578125 C-72.77515625 133.50273437 -73.3784375 133.74765625 -74 134 C-74 136.64 -74 139.28 -74 142 C-73.40251953 142.17708496 -72.80503906 142.35416992 -72.18945312 142.53662109 C-68.5764897 143.82958144 -65.7925796 144.88399341 -63.5234375 148.07910156 C-62.36701731 150.56075504 -61.40266298 153.04045214 -60.5 155.625 C-60.16742188 156.49640625 -59.83484375 157.3678125 -59.4921875 158.265625 C-58.88163845 159.86893674 -58.28433946 161.4774059 -57.70507812 163.09228516 C-57.02239616 165.04637956 -57.02239616 165.04637956 -56 167 C-56.0859375 168.98828125 -56.0859375 168.98828125 -56.375 171.3125 C-56.46910156 172.116875 -56.56320312 172.92125 -56.66015625 173.75 C-57 176 -57 176 -57.8125 178.8125 C-58.24758927 181.17587056 -58.24758927 181.17587056 -56.375 183.375 C-54.11640864 185.2818501 -54.11640864 185.2818501 -51.375 184.8125 C-49.02157444 184.06646319 -49.02157444 184.06646319 -47 183 C-41.04675521 182.2400113 -37.16346155 184.02225047 -31.8515625 186.65625 C-29.12057076 187.9431831 -26.43410024 188.83515391 -23.5625 189.75 C-20.56331214 190.89436421 -19.29357362 191.56305322 -17.48828125 194.25 C-16.49520255 196.48007147 -15.67148716 198.65480604 -15 201 C-12.36 201 -9.72 201 -7 201 C-6.32845067 199.71086513 -5.66291141 198.41859796 -5 197.125 C-4.443125 196.04605469 -4.443125 196.04605469 -3.875 194.9453125 C-2.86326254 193.05151023 -2.86326254 193.05151023 -3 191 C-2.40574219 190.84144531 -1.81148438 190.68289062 -1.19921875 190.51953125 C3.67021629 189.14881937 8.13564984 187.53168456 12.6875 185.3125 C19.71475835 182.03113604 24.84320592 182.66308765 32 185 C34.18712805 183.39795381 34.18712805 183.39795381 36 181 C35.88593998 178.13863704 35.88593998 178.13863704 35 175 C33.4740474 168.46020313 34.32642054 165.46461818 37.625 159.65625 C39.06845365 156.86776 39.84382471 154.20526161 40.6875 151.1875 C42.2460969 146.58344388 43.90431758 144.9761731 48.25 142.8125 C49.81858399 142.17101262 51.39818191 141.55329976 53 141 C53 138.69 53 136.38 53 134 C52.02160156 133.71962891 52.02160156 133.71962891 51.0234375 133.43359375 C46.21475269 131.6250176 43.62571935 130.14306668 41.10546875 125.5390625 C40.04276542 122.95807395 39.13259334 120.33994312 38.25390625 117.69140625 C37.10552792 114.00365653 37.10552792 114.00365653 35.32421875 110.78125 C33.99380106 107.98698041 33.69041071 106.89967376 34.25 103.9375 C34.36214844 103.26074219 34.47429687 102.58398438 34.58984375 101.88671875 C34.92939208 100.32479645 35.35959848 98.78289744 35.8125 97.25 C36.24616881 94.84218875 36.24616881 94.84218875 34.4375 92.625 C32.08767895 90.7018665 32.08767895 90.7018665 29.125 91.1875 C27.19024577 91.6905361 25.25947792 92.20956123 23.3359375 92.75390625 C18.74857505 93.09231823 15.63395882 91.6026529 11.5 89.75 C10.76652344 89.43675781 10.03304687 89.12351562 9.27734375 88.80078125 C7.17222185 87.89320633 5.08676523 86.94883329 3 86 C1.88367188 85.52433594 0.76734375 85.04867187 -0.3828125 84.55859375 C-3.41201567 82.75463544 -4.14855395 81.56729914 -5.375 78.3125 C-5.69210937 77.50425781 -6.00921875 76.69601563 -6.3359375 75.86328125 C-6.55507813 75.24839844 -6.77421875 74.63351563 -7 74 C-9.64 74 -12.28 74 -15 74 Z M-251 99 C-253.03640233 101.68434853 -252.99994332 103.00311739 -252.9375 106.4375 C-251.82940237 110.64827101 -250.31363542 112.25210722 -247 115 C-244.09704195 116.45147903 -242.22738221 116.37239025 -239 116 C-236.07062346 114.18689858 -233.56352051 112.12704101 -232 109 C-231.47036865 104.44093956 -231.47036865 104.44093956 -233.046875 100.2421875 C-234.83594493 98.06373176 -236.45915625 96.27042188 -239 95 C-244.49230917 94.48185763 -247.12064736 95.00980872 -251 99 Z M-369.9375 170.875 C-373.59517983 176.41693913 -374.29476474 181.42917709 -374.26069641 187.95675659 C-374.26452196 188.74028067 -374.26834751 189.52380474 -374.27228898 190.33107197 C-374.28257834 192.94718334 -374.27863458 195.56307356 -374.2746582 198.17919922 C-374.27900694 200.05870771 -374.28419063 201.93821442 -374.29014587 203.81771851 C-374.30353009 208.91693129 -374.30411515 214.01606992 -374.30158257 219.11529684 C-374.30051241 223.37470251 -374.30539743 227.63409321 -374.310188 231.89349568 C-374.32128132 241.94381972 -374.32172165 251.99410639 -374.31567383 262.04443359 C-374.30963415 272.40658778 -374.32194533 282.76860617 -374.3432439 293.13073719 C-374.3608675 302.03282914 -374.36686003 310.93487791 -374.36360615 319.83698666 C-374.36179427 325.15133997 -374.36442001 330.46559644 -374.37832069 335.77993393 C-374.39090661 340.77863473 -374.38894763 345.77712409 -374.37590981 350.77582169 C-374.3735461 352.60755739 -374.37627132 354.43930801 -374.38453293 356.27102661 C-374.3950197 358.77735375 -374.38688453 361.28297393 -374.3742218 363.78927612 C-374.38159609 364.50894275 -374.38897037 365.22860937 -374.39656812 365.97008407 C-374.33241297 372.03293982 -373.06070561 377.57783998 -369.0625 382.27734375 C-368.381875 382.82519531 -367.70125 383.37304688 -367 383.9375 C-366.319375 384.50339844 -365.63875 385.06929687 -364.9375 385.65234375 C-361.59265243 387.97890103 -358.77832518 388.12664779 -354.82464218 388.13422108 C-353.74661669 388.13867892 -352.66859121 388.14313676 -351.55789828 388.14772969 C-349.77471379 388.14745315 -349.77471379 388.14745315 -347.95550537 388.14717102 C-346.69606338 388.15084771 -345.43662138 388.1545244 -344.13901448 388.1583125 C-340.63621893 388.16833579 -337.13344051 388.17204982 -333.63063264 388.17470181 C-329.85545768 388.17860385 -326.0802963 388.18818222 -322.30513 388.19691467 C-313.18502582 388.21668125 -304.06492051 388.22674524 -294.94480026 388.23564246 C-290.65109871 388.24002478 -286.35739839 388.24539171 -282.06369781 388.25063133 C-267.79263439 388.26764331 -253.52157173 388.28213806 -239.25049973 388.28938007 C-235.54671986 388.29129 -231.84294 388.29321033 -228.13916016 388.29516602 C-226.75830923 388.29589163 -226.75830923 388.29589163 -225.34956232 388.2966319 C-210.43293382 388.30493436 -195.51638547 388.33027505 -180.59979197 388.36274669 C-165.28912356 388.3958048 -149.9784959 388.41382768 -134.6677916 388.41702431 C-126.06979545 388.4191905 -117.47191617 388.42795506 -108.87395477 388.45348549 C-101.55243244 388.47517539 -94.23105538 388.48325135 -86.90950456 388.47351871 C-83.17391139 388.46896909 -79.43861806 388.47089832 -75.70306587 388.49028015 C-71.65264191 388.51111422 -67.60288504 388.50094253 -63.5524292 388.48774719 C-62.37256243 388.49871644 -61.19269565 388.50968568 -59.97707534 388.52098733 C-52.49993575 388.46204099 -47.89618052 387.57295478 -42.2578125 382.40234375 C-38.40708987 377.42296104 -37.87524843 374.28192182 -37.87974548 368.07148743 C-37.87889106 367.36246959 -37.87803663 366.65345176 -37.87715632 365.92294854 C-37.87550605 363.54146167 -37.88101549 361.16004486 -37.88647461 358.77856445 C-37.8867566 357.07371014 -37.88659851 355.36885571 -37.8860321 353.66400146 C-37.88574461 349.03001879 -37.89163359 344.39606188 -37.89860606 339.7620852 C-37.90484759 334.92140346 -37.90544403 330.08072116 -37.90663147 325.24003601 C-37.90974242 316.07093627 -37.91795264 306.90184843 -37.92798096 297.73275393 C-37.93914941 287.29515784 -37.9446544 276.85756119 -37.94967639 266.41996062 C-37.96013544 244.94663377 -37.97773033 223.47331763 -38 202 C-39.65 201.34 -41.3 200.68 -43 200 C-43.00358253 201.17586812 -43.00358253 201.17586812 -43.00723743 202.37549114 C-43.06636265 221.44611929 -43.1418968 240.51661774 -43.23571491 259.58710766 C-43.28068852 268.80944362 -43.32009957 278.03174082 -43.34643555 287.25415039 C-43.36940296 295.29201192 -43.40278689 303.32975097 -43.44870156 311.36751539 C-43.47265078 315.62381995 -43.4913684 319.8800031 -43.49761391 324.13637352 C-43.50365711 328.14273784 -43.52362907 332.1487914 -43.55427551 336.15504074 C-43.56306804 337.62518342 -43.5667758 339.09536668 -43.56500816 340.56553459 C-43.56335595 342.57381067 -43.58181799 344.58207321 -43.60127258 346.59025574 C-43.60588155 347.71392138 -43.61049051 348.83758703 -43.61523914 349.99530315 C-44.05122513 353.40003025 -44.91530959 355.2892284 -47 358 C-50.02721066 359.00907022 -52.0466038 359.12723401 -55.21217918 359.13142776 C-56.29840486 359.13526891 -57.38463053 359.13911005 -58.50377214 359.1430676 C-59.70170794 359.14220112 -60.89964373 359.14133463 -62.13388062 359.14044189 C-63.40290084 359.14341302 -64.67192107 359.14638414 -65.97939646 359.1494453 C-69.50885885 359.15752331 -73.0383009 359.15930531 -76.56777143 359.16004276 C-80.37153642 359.1618919 -84.17529081 359.16943847 -87.97904968 359.17617798 C-96.29918888 359.18976698 -104.61932327 359.19578675 -112.93947172 359.20018864 C-118.1324966 359.2029498 -123.32551962 359.20718689 -128.51854324 359.21169281 C-142.8908368 359.22388564 -157.26312886 359.2341853 -171.63542747 359.2375679 C-172.5554914 359.23778747 -173.47555533 359.23800703 -174.42349998 359.23823325 C-175.80693082 359.23856067 -175.80693082 359.23856067 -177.21830976 359.2388947 C-179.08727161 359.23933817 -180.95623346 359.23978473 -182.82519531 359.24023438 C-183.75226845 359.2404558 -184.67934159 359.24067723 -185.63450785 359.24090537 C-200.66240243 359.2448549 -215.69024857 359.26231355 -230.71812443 359.2855939 C-246.13952472 359.30929148 -261.56090068 359.32176901 -276.98231947 359.32293582 C-285.64394431 359.32385342 -294.30550602 359.32962709 -302.96711349 359.34775543 C-310.34137814 359.36313487 -317.71556014 359.36828964 -325.08983777 359.36001733 C-328.85348557 359.35610329 -332.61696682 359.35707696 -336.38059425 359.37107468 C-340.4579013 359.38610065 -344.53483097 359.3779696 -348.6121521 359.36749268 C-349.80562645 359.37554908 -350.99910081 359.38360548 -352.22874105 359.39190602 C-353.32018222 359.38531618 -354.41162339 359.37872633 -355.53613853 359.3719368 C-356.4773579 359.37253389 -357.41857726 359.37313097 -358.38831842 359.37374616 C-361.53990469 358.92273664 -363.43180645 357.85213784 -366 356 C-367.47700592 353.04598817 -367.12942637 350.40983904 -367.13371277 347.11149597 C-367.13597833 346.39460974 -367.13824388 345.6777235 -367.14057809 344.93911344 C-367.14693383 342.52474112 -367.14608772 340.11042471 -367.14526367 337.69604492 C-367.14825422 335.96989367 -367.15165651 334.24374308 -367.15544128 332.51759338 C-367.16429707 327.81917527 -367.16662009 323.12077535 -367.16725707 318.42234969 C-367.16820513 314.50335602 -367.17188231 310.58436661 -367.17542917 306.66537458 C-367.18358008 297.41973646 -367.18601286 288.17410809 -367.18530273 278.9284668 C-367.18470208 269.38547544 -367.19524991 259.84254063 -367.2110464 250.29956359 C-367.22411615 242.11267365 -367.22948685 233.92580221 -367.22884732 225.73890191 C-367.22859213 220.84658181 -367.23145513 215.95431192 -367.24202538 211.06200218 C-367.2516966 206.4598384 -367.25179223 201.85777292 -367.24450874 197.2556057 C-367.24346162 195.56613013 -367.24583337 193.87664849 -367.2518692 192.18718338 C-367.25957423 189.88115785 -367.25495427 187.57547303 -367.24723816 185.26945496 C-367.24778293 183.97877704 -367.24832769 182.68809912 -367.24888897 181.35830975 C-367.00005749 178.00077575 -366.78772915 175.85429538 -365 173 C-359.64327694 170.11380578 -353.38730031 170.71101796 -347.45877075 170.7215271 C-345.70536229 170.7128385 -345.70536229 170.7128385 -343.91653144 170.70397437 C-340.68060545 170.6899278 -337.44480588 170.68474534 -334.2088542 170.68332577 C-330.71605943 170.6796265 -327.22331205 170.66446839 -323.73054504 170.65071106 C-317.68196231 170.62845095 -311.63339646 170.61343016 -305.58478165 170.60334396 C-296.8395359 170.58875058 -288.09434898 170.5632119 -279.34913777 170.53501268 C-265.16018295 170.48955667 -250.97121966 170.45293694 -236.78222656 170.421875 C-222.99998486 170.39168458 -209.21776389 170.35733204 -195.43554688 170.31738281 C-194.58582948 170.31492126 -193.73611208 170.31245972 -192.86064567 170.30992357 C-188.59780897 170.29754888 -184.33497251 170.28509236 -180.07213616 170.27259517 C-144.71478589 170.16904521 -109.35741147 170.07983606 -74 170 C-74.66 168.02 -75.32 166.04 -76 164 C-111.77191324 163.90841973 -147.5438059 163.83794872 -183.31581226 163.79573868 C-187.54021292 163.79073593 -191.76461335 163.78555863 -195.98901367 163.78027344 C-196.83000624 163.7792242 -197.67099882 163.77817495 -198.53747601 163.77709392 C-212.14993656 163.75969458 -225.76232946 163.72815948 -239.37474989 163.69138882 C-253.34513244 163.65396629 -267.31547958 163.63176137 -281.28591019 163.62364602 C-289.90457887 163.61816096 -298.52305631 163.60084467 -307.14166612 163.56833413 C-313.05392151 163.54717004 -318.96607822 163.54080423 -324.87836873 163.54599449 C-328.28813849 163.54855335 -331.69757434 163.54466531 -335.10728455 163.5231781 C-338.80908845 163.50326112 -342.51007579 163.50806824 -346.2118988 163.51898193 C-347.28293065 163.50733057 -348.3539625 163.4956792 -349.45744985 163.48367476 C-357.24278543 163.545664 -364.50643373 164.8510414 -369.9375 170.875 Z M-351 187 C-351 238.48 -351 289.96 -351 343 C-254.97 343 -158.94 343 -60 343 C-60 296.47 -60 249.94 -60 202 C-70.84089168 188.80014696 -70.84089168 188.80014696 -84.15999931 185.06378037 C-85.70531297 185.1293193 -85.70531297 185.1293193 -87.28184509 185.19618225 C-88.99166033 185.17695769 -88.99166033 185.17695769 -90.73601729 185.15734476 C-94.50736758 185.13288186 -98.26841295 185.21464592 -102.03881836 185.29711914 C-104.76027132 185.3097442 -107.48153229 185.29962276 -110.20298767 185.29048157 C-116.03639292 185.28266006 -121.86725911 185.32924219 -127.70002556 185.41404915 C-136.13249419 185.53657453 -144.56374991 185.57508175 -152.99701209 185.59386902 C-166.68253996 185.62660369 -180.36671778 185.72616384 -194.05151367 185.8684082 C-207.33562631 186.00634313 -220.61936884 186.11222291 -233.90405273 186.17602539 C-234.73286361 186.18004535 -235.56167448 186.18406531 -236.41560084 186.18820709 C-242.89858322 186.21940308 -249.38157361 186.24875531 -255.86456716 186.27752554 C-287.57761772 186.4187327 -319.28728405 186.72056546 -351 187 Z M12 308 C10.44975536 311.10048928 10.71007985 313.57894218 11 317 C13.0970233 320.37021602 15.11953387 322.89129539 19 324 C23.26047438 323.92253683 25.42928489 323.42183291 28.875 320.875 C31.44480711 317.39820214 32 315.30969005 32 311 C30.42435501 307.35113792 28.53250338 304.86437678 25 303 C18.67531142 302.0630091 16.2915182 303.7084818 12 308 Z M-253 405 C-253 413.91 -253 422.82 -253 432 C-221.98 432 -190.96 432 -159 432 C-159 423.09 -159 414.18 -159 405 C-190.02 405 -221.04 405 -253 405 Z M-315.0625 452.875 C-318.14170262 457.22864058 -318.14170262 457.22864058 -317 469 C-243.41 469 -169.82 469 -94 469 C-92.94527428 457.98819499 -92.94527428 457.98819499 -96.25 453.375 C-102.52596436 447.95484896 -108.93707684 447.84997304 -117.0259552 447.85955811 C-117.81694081 447.85658698 -118.60792643 447.85361586 -119.42288131 447.8505547 C-122.06423965 447.84190694 -124.70555247 447.8403628 -127.34692383 447.83886719 C-129.2445129 447.8342363 -131.14210104 447.82921127 -133.03968811 447.82382202 C-138.18853288 447.81072358 -143.33736463 447.80425825 -148.48622346 447.79981136 C-151.70485944 447.79687698 -154.92349189 447.79277152 -158.14212608 447.78830719 C-168.21802974 447.77464003 -178.2939253 447.76496911 -188.36983758 447.7611053 C-199.99113281 447.756624 -211.61231045 447.73906941 -223.23356992 447.7101047 C-232.22399314 447.68847656 -241.2143833 447.67840044 -250.20483226 447.67706418 C-255.57120488 447.67601713 -260.93746685 447.67013016 -266.30381203 447.65224457 C-271.35257047 447.63574397 -276.40113529 447.63361808 -281.44991112 447.64238358 C-283.29896946 447.64315284 -285.14803831 447.63882591 -286.99707031 447.62892532 C-301.62799446 447.47902662 -301.62799446 447.47902662 -315.0625 452.875 Z " fill="#FFFFFF" transform="translate(400,19)"/>
<path d="M0 0 C1.08925781 -0.03287109 2.17851563 -0.06574219 3.30078125 -0.09960938 C11.3050717 -0.15349383 11.3050717 -0.15349383 15.30078125 2.7265625 C17.57923891 6.11253599 18.27368578 8.4904977 19.125 12.4375 C19.99125 12.581875 20.8575 12.72625 21.75 12.875 C23.90617044 13.23436174 26.05467002 13.64620143 28.1875 14.125 C31.10614226 14.67082465 31.10614226 14.67082465 33.5625 13.4375 C37.27784893 11.98760774 39.2907797 12.33272466 43.125 13.4375 C46.10813278 15.47332632 48.59583832 17.86874283 51.125 20.4375 C51.79402344 21.09621094 52.46304688 21.75492188 53.15234375 22.43359375 C57.08309883 26.55726932 59.23730878 29.4851348 59.125 35.4375 C58.45833333 37.10416667 57.79166667 38.77083333 57.125 40.4375 C57.37748627 43.95495287 57.37748627 43.95495287 58.125 47.4375 C58.310625 48.406875 58.49625 49.37625 58.6875 50.375 C58.9040625 51.3959375 58.9040625 51.3959375 59.125 52.4375 C59.73988281 52.60765625 60.35476562 52.7778125 60.98828125 52.953125 C61.79652344 53.19546875 62.60476562 53.4378125 63.4375 53.6875 C64.23800781 53.91953125 65.03851563 54.1515625 65.86328125 54.390625 C68.6489565 55.68002218 69.53496583 56.82330006 71.125 59.4375 C71.74458892 63.41484908 71.58857612 67.41703604 71.5625 71.4375 C71.58248047 72.530625 71.60246094 73.62375 71.62304688 74.75 C71.62208008 76.3278125 71.62208008 76.3278125 71.62109375 77.9375 C71.62294678 78.8965625 71.6247998 79.855625 71.62670898 80.84375 C70.97862195 84.19424958 69.76930941 85.34019767 67.125 87.4375 C65.949375 87.870625 64.77375 88.30375 63.5625 88.75 C59.88856446 90.1742221 59.88856446 90.1742221 58.125 93.6875 C56.88646097 98.33202136 56.95030865 102.0881173 59.125 106.4375 C59.72332641 109.57871367 59.69088141 111.59488661 57.87890625 114.29296875 C56.0368482 116.42431075 54.09498769 118.42397667 52.125 120.4375 C51.41472656 121.26636719 50.70445312 122.09523438 49.97265625 122.94921875 C44.51041688 129.06423892 44.51041688 129.06423892 40.76171875 130.07421875 C37.14000733 130.15334858 34.49910959 129.58558505 31.125 128.25 C27.24232985 127.1984435 24.83104289 127.73585479 21.09765625 129.11328125 C18.58360196 130.80093354 18.19699117 132.05818235 17.375 134.9375 C17.23578125 135.7109375 17.0965625 136.484375 16.953125 137.28125 C16.125 139.4375 16.125 139.4375 14.234375 141.19140625 C9.55923874 143.06498473 5.11466513 142.91092036 0.125 142.875 C-0.85984375 142.89498047 -1.8446875 142.91496094 -2.859375 142.93554688 C-7.26202356 142.93257211 -10.08655512 142.89175631 -13.953125 140.6640625 C-15.79055907 138.5353279 -16.71376808 137.00238538 -17.625 134.375 C-18.80434364 131.79969859 -19.5028991 130.66244235 -21.94921875 129.18359375 C-25.44895505 127.8936083 -27.82623399 127.10496444 -31.4375 128.25 C-32.6440625 128.8378125 -32.6440625 128.8378125 -33.875 129.4375 C-40.38577603 130.3981063 -40.38577603 130.3981063 -43.921875 128.1171875 C-46.01170074 126.31086525 -47.94150014 124.40959267 -49.875 122.4375 C-50.53113281 121.85097656 -51.18726562 121.26445312 -51.86328125 120.66015625 C-55.91031125 116.9650419 -58.28930958 114.0991741 -58.875 108.4375 C-58.38631006 106.9605704 -57.8398098 105.50203579 -57.25 104.0625 C-55.8426826 100.3706584 -55.76776152 98.3358186 -57.1875 94.625 C-59.31828893 90.53388526 -61.69494264 88.93851889 -65.97265625 87.38671875 C-68.47408705 86.13857155 -69.39892134 84.8047621 -70.875 82.4375 C-71.26318359 80.04321289 -71.26318359 80.04321289 -71.2734375 77.41015625 C-71.27730469 76.45302734 -71.28117187 75.49589844 -71.28515625 74.50976562 C-71.27355469 73.51654297 -71.26195312 72.52332031 -71.25 71.5 C-71.26160156 70.51064453 -71.27320313 69.52128906 -71.28515625 68.50195312 C-71.24698473 59.04177701 -71.24698473 59.04177701 -67.875 55.4375 C-65.71875 54.6796875 -65.71875 54.6796875 -63.375 54.3125 C-60.25401461 53.41496172 -59.18435308 52.96375581 -57.515625 50.125 C-55.64584493 44.22043135 -55.5990658 40.09687799 -58.30859375 34.5078125 C-59.15898888 31.39947168 -58.47249479 30.24226184 -56.875 27.4375 C-54.678645 24.87576315 -52.29846652 22.53310414 -49.875 20.1875 C-49.23304687 19.55070312 -48.59109375 18.91390625 -47.9296875 18.2578125 C-42.09095722 12.51680156 -42.09095722 12.51680156 -38 12.25 C-34.875 12.4375 -34.875 12.4375 -32.9375 13.5 C-29.73521084 14.95558598 -27.24873518 14.14776004 -23.875 13.4375 C-22.988125 13.2725 -22.10125 13.1075 -21.1875 12.9375 C-17.91617265 10.81555793 -17.18347411 8.11900466 -15.8671875 4.53125 C-13.00318614 -1.51246941 -5.65831782 0.0299206 0 0 Z M-2.875 17.4375 C-3.4009375 19.231875 -3.4009375 19.231875 -3.9375 21.0625 C-6.74219343 26.79383006 -12.4092378 28.22469032 -18.05078125 30.2109375 C-19.32396681 30.62460556 -20.59870476 31.03352823 -21.875 31.4375 C-23.09703125 31.8396875 -24.3190625 32.241875 -25.578125 32.65625 C-30.12622316 33.73399838 -32.49096788 32.8219312 -36.875 31.4375 C-38.61147948 33.11238528 -38.61147948 33.11238528 -39.875 35.4375 C-39.07950304 37.88566596 -39.07950304 37.88566596 -37.875 40.4375 C-37.00071922 45.80808196 -39.10335725 49.31285892 -41.59375 53.90625 C-42.76228161 56.21481244 -43.48488722 58.33486547 -44.1875 60.8125 C-46.2212611 65.18132014 -47.93212803 66.04696613 -52.23046875 67.84375 C-53.04451172 68.13765625 -53.04451172 68.13765625 -53.875 68.4375 C-54.54654684 70.72091743 -54.54654684 70.72091743 -53.875 73.4375 C-52.2264357 74.52770738 -52.2264357 74.52770738 -50.1875 75.5 C-44.24565231 78.79636073 -43.06333674 84.34497158 -40.875 90.4375 C-40.276875 91.55125 -39.67875 92.665 -39.0625 93.8125 C-37.18684952 97.95867475 -37.65613457 101.29939976 -38.5 105.6875 C-38.62375 106.595 -38.7475 107.5025 -38.875 108.4375 C-38.215 109.0975 -37.555 109.7575 -36.875 110.4375 C-34.33755891 110.26219068 -34.33755891 110.26219068 -31.4375 109.75 C-24.34953947 109.01060843 -20.00504968 111.15526868 -13.875 114.4375 C-12.54723344 114.95210057 -11.21457348 115.45446722 -9.875 115.9375 C-6.4207875 117.66460625 -5.5065681 119.00261978 -3.875 122.4375 C-2.885 123.9225 -2.885 123.9225 -1.875 125.4375 C0.70880177 125.68780977 0.70880177 125.68780977 3.125 125.4375 C3.74375 123.6121875 3.74375 123.6121875 4.375 121.75 C6.94426289 116.51905469 10.95776771 115.35348673 16.23046875 113.47265625 C19.26374394 112.48972082 19.26374394 112.48972082 22.3125 110.5625 C27.25534199 108.5853632 32.19108384 109.79286128 37.125 111.4375 C38.115 110.4475 39.105 109.4575 40.125 108.4375 C39.774375 107.426875 39.42375 106.41625 39.0625 105.375 C37.29796065 99.05312521 38.99388605 94.12347842 42.03125 88.55859375 C43.19665084 86.29854854 44.04309512 84.00365436 44.9375 81.625 C46.38067483 78.26338794 47.4883337 76.8196142 50.875 75.375 C51.9475 75.065625 53.02 74.75625 54.125 74.4375 C54.125 72.4575 54.125 70.4775 54.125 68.4375 C52.92875 68.086875 51.7325 67.73625 50.5 67.375 C44.70851545 64.56140644 43.33355736 58.75303102 41.3515625 53.06640625 C40.94679688 51.86886719 40.54203125 50.67132813 40.125 49.4375 C39.73441406 48.5196875 39.34382813 47.601875 38.94140625 46.65625 C37.60434036 43.02250155 38.65159566 39.81826266 39.875 36.25 C40.35051651 34.3416826 40.35051651 34.3416826 38.91015625 32.75 C38.32105469 32.316875 37.73195313 31.88375 37.125 31.4375 C35.04863617 31.75192057 35.04863617 31.75192057 32.8125 32.625 C26.46046182 34.18269512 22.02745665 31.72963964 16.421875 29.015625 C13.19806027 27.36133497 13.19806027 27.36133497 9.8515625 26.4921875 C7.125 25.4375 7.125 25.4375 5.6640625 23.4921875 C5.36242187 22.77289063 5.06078125 22.05359375 4.75 21.3125 C4.43289062 20.58804688 4.11578125 19.86359375 3.7890625 19.1171875 C3.56992188 18.56289062 3.35078125 18.00859375 3.125 17.4375 C1.145 17.4375 -0.835 17.4375 -2.875 17.4375 Z " fill="#FFFFFF" transform="translate(124.875,212.5625)"/>
<path d="M0 0 C9.50238502 7.52881275 15.03600937 16.42607684 16.9765625 28.38671875 C18.31721233 41.33765646 15.35239815 52.13708082 7.578125 62.66796875 C1.08942166 70.12624845 -8.61986372 75.70922369 -18.4609375 77.01171875 C-32.43500386 77.964496 -43.55089379 75.39630751 -54.46875 66.34765625 C-63.11385255 58.15164994 -67.40625651 48.6770395 -67.86547852 36.80249023 C-68.05393696 24.06130311 -64.47620992 13.51080306 -55.6484375 4.07421875 C-40.01854786 -10.54729092 -17.60996577 -12.10367964 0 0 Z M-45.0234375 18.04296875 C-50.2257152 25.16782734 -51.76289542 32.2520545 -50.4609375 41.01171875 C-48.00701905 48.73178962 -43.66738369 54.15902011 -36.5859375 58.0390625 C-30.12144994 60.86727581 -23.05393957 61.0699998 -16.3359375 58.94921875 C-9.48547103 55.98160777 -4.11100981 50.8988303 -1.14453125 44.04296875 C1.36468014 36.58702634 0.79567035 29.7608168 -2.58203125 22.65234375 C-6.70893673 15.68453733 -12.31585622 11.39464522 -20.1640625 9.28515625 C-29.66799525 7.90029748 -38.6220312 10.77983468 -45.0234375 18.04296875 Z " fill="#FFFFFF" transform="translate(414.4609375,121.98828125)"/>
<path d="M0 0 C7.4855677 5.33063155 13.60183207 12.98435037 16.1328125 21.921875 C18.09909137 33.63176792 16.49286451 43.49380221 10.7578125 53.77734375 C3.63856773 62.72725146 -4.83726243 68.9092806 -16.4296875 70.52734375 C-26.28209858 71.63340026 -36.27038439 69.22527874 -44.3046875 63.33984375 C-53.37006921 55.47209045 -58.22399571 46.88515616 -59.7734375 34.859375 C-60.2289435 22.92132204 -55.70475168 12.9992188 -47.8046875 4.33984375 C-35.06256641 -7.96623518 -14.78582699 -8.96182761 0 0 Z M-37.8046875 18.90234375 C-41.86860276 24.09267031 -42.9956318 28.96238988 -42.4296875 35.52734375 C-40.69918539 42.14619852 -37.92855157 46.72816162 -32.3046875 50.77734375 C-27.01536475 53.52914492 -21.59701986 54.23637839 -15.77734375 52.93359375 C-8.66869315 50.45358332 -4.83662522 46.57537537 -1.0546875 40.21484375 C0.49809327 33.53788643 0.34683458 27.3747796 -3.09375 21.34765625 C-6.40001801 16.8426244 -10.91111909 12.81073175 -16.4296875 11.52734375 C-25.25865848 10.54634697 -31.72450822 12.27876681 -37.8046875 18.90234375 Z " fill="#FFFFFF" transform="translate(146.4296875,251.47265625)"/>
<path d="M0 0 C0.92527496 -0.00845947 1.85054993 -0.01691895 2.80386353 -0.02563477 C3.81177948 -0.01956207 4.81969543 -0.01348938 5.8581543 -0.00723267 C6.92520599 -0.01248962 7.99225769 -0.01774658 9.09164429 -0.02316284 C12.62203571 -0.0363765 16.15197697 -0.02761961 19.68237305 -0.01748657 C22.13330166 -0.01950691 24.58422969 -0.022418 27.03515625 -0.02618408 C32.17315389 -0.0306093 37.31099513 -0.02416983 42.44897461 -0.01016235 C49.04008941 0.00692941 55.63083774 -0.00291068 62.22193909 -0.02087975 C67.28335336 -0.0317121 72.34468053 -0.02827371 77.40609741 -0.02049637 C79.8366195 -0.01849286 82.26714945 -0.0209589 84.69766235 -0.02793503 C88.0925191 -0.03554026 91.48677954 -0.02395762 94.8815918 -0.00723267 C95.88950775 -0.01330536 96.89742371 -0.01937805 97.93588257 -0.02563477 C98.86115753 -0.01717529 99.7864325 -0.00871582 100.73974609 0 C101.94318916 0.00169662 101.94318916 0.00169662 103.17094421 0.00342751 C105.96626416 0.48334242 107.32788417 1.43370037 109.36987305 3.38095093 C110.4483327 7.26340568 110.76211247 9.45196283 109.18237305 13.19345093 C106.86373426 15.99180808 104.86921923 17.20212866 101.23620701 17.63542652 C100.07895823 17.63850583 100.07895823 17.63850583 98.89833069 17.64164734 C98.0081575 17.64873215 97.11798431 17.65581696 96.20083618 17.66311646 C95.23189423 17.66063904 94.26295227 17.65816162 93.26464844 17.65560913 C92.23821732 17.66072006 91.21178619 17.66583099 90.1542511 17.6710968 C86.75861798 17.6850058 83.36318753 17.68403506 79.9675293 17.68173218 C77.60867741 17.6856183 75.24982623 17.6899528 72.89097595 17.69471741 C67.9455234 17.70218238 63.00014223 17.70188624 58.0546875 17.69662476 C51.71478912 17.69082895 45.37518277 17.70776272 39.03533268 17.73096943 C34.16347035 17.74569534 29.29167854 17.74658003 24.4197979 17.7434597 C22.08220275 17.74397346 19.74460371 17.74922136 17.40703011 17.75927162 C14.13932393 17.77159665 10.87218909 17.76486766 7.60449219 17.75326538 C6.1541156 17.76473099 6.1541156 17.76473099 4.67443848 17.77642822 C-0.21791256 17.73799961 -3.71484055 17.66298352 -7.63012695 14.38095093 C-9.70922885 11.26229809 -9.9117207 10.84355571 -9.50512695 7.38095093 C-9.44067383 6.70032593 -9.3762207 6.01970093 -9.30981445 5.31845093 C-7.79428868 0.99833147 -4.23206324 0.00596637 0 0 Z " fill="#FFFFFF" transform="translate(217.630126953125,332.6190490722656)"/>
<path d="M0 0 C1.33319778 -0.00856522 1.33319778 -0.00856522 2.69332886 -0.01730347 C3.66586609 -0.01842133 4.63840332 -0.01953918 5.64041138 -0.02069092 C7.17983902 -0.02813828 7.17983902 -0.02813828 8.75036621 -0.03573608 C12.15138413 -0.05036228 15.55235543 -0.05716016 18.95339966 -0.06268311 C21.31368003 -0.06843376 23.67396038 -0.0741915 26.03424072 -0.07995605 C30.98564878 -0.09046706 35.9370406 -0.09630922 40.88845825 -0.09979248 C47.23621275 -0.10528028 53.58375308 -0.12931418 59.93144035 -0.15776443 C64.80758291 -0.17637729 69.68367371 -0.18159568 74.55984879 -0.18312836 C76.90024106 -0.18615798 79.24063236 -0.19419689 81.58098984 -0.20731354 C84.85356762 -0.22434693 88.12561989 -0.2225003 91.39822388 -0.21600342 C92.36671265 -0.2252182 93.33520142 -0.23443298 94.33303833 -0.243927 C99.23044709 -0.21343365 102.73014778 -0.14793889 106.64871216 3.14044189 C108.64871216 6.14044189 108.64871216 6.14044189 108.52371216 9.57794189 C107.51851208 13.6705422 107.08039187 14.75394188 103.64871216 17.14044189 C100.15671268 17.74179407 96.69615629 17.67606569 93.16043091 17.64215088 C92.09337921 17.64755386 91.02632751 17.65295685 89.92694092 17.65852356 C86.39641668 17.67104056 82.86670315 17.65449924 79.33621216 17.63653564 C76.88528399 17.63669056 74.43435557 17.63817834 71.98342896 17.64094543 C66.84537942 17.64233077 61.70760857 17.62974845 56.5696106 17.60699463 C49.97847946 17.57861002 43.38781153 17.58134573 36.79664612 17.59408474 C31.73521966 17.60103459 26.67390055 17.5932605 21.61248779 17.58082771 C19.18197033 17.57630649 16.75144137 17.57598225 14.32092285 17.57989311 C10.92603876 17.58279844 7.53179648 17.56632992 4.13699341 17.54449463 C3.12907745 17.54899628 2.1211615 17.55349792 1.08270264 17.55813599 C0.15742767 17.54823135 -0.76784729 17.53832672 -1.72116089 17.52812195 C-2.92460396 17.52447711 -2.92460396 17.52447711 -4.15235901 17.52075863 C-6.90688425 17.04434847 -8.29668341 16.00212558 -10.35128784 14.14044189 C-11.41549794 11.49100216 -11.59463762 8.97767911 -11.35128784 6.14044189 C-8.37981275 1.1526087 -5.61957258 0.02164148 0 0 Z " fill="#FFFFFF" transform="translate(219.35128784179688,274.85955810546875)"/>
<path d="M0 0 C0.92527496 -0.00845947 1.85054993 -0.01691895 2.80386353 -0.02563477 C3.81177948 -0.01956207 4.81969543 -0.01348938 5.8581543 -0.00723267 C6.92520599 -0.01248962 7.99225769 -0.01774658 9.09164429 -0.02316284 C12.62203571 -0.0363765 16.15197697 -0.02761961 19.68237305 -0.01748657 C22.13330166 -0.01950691 24.58422969 -0.022418 27.03515625 -0.02618408 C32.17315389 -0.0306093 37.31099513 -0.02416983 42.44897461 -0.01016235 C49.04008941 0.00692941 55.63083774 -0.00291068 62.22193909 -0.02087975 C67.28335336 -0.0317121 72.34468053 -0.02827371 77.40609741 -0.02049637 C79.8366195 -0.01849286 82.26714945 -0.0209589 84.69766235 -0.02793503 C88.0925191 -0.03554026 91.48677954 -0.02395762 94.8815918 -0.00723267 C95.88950775 -0.01330536 96.89742371 -0.01937805 97.93588257 -0.02563477 C98.86115753 -0.01717529 99.7864325 -0.00871582 100.73974609 0 C101.94318916 0.00169662 101.94318916 0.00169662 103.17094421 0.00342751 C105.96626416 0.48334242 107.32788417 1.43370037 109.36987305 3.38095093 C110.4483327 7.26340568 110.76211247 9.45196283 109.18237305 13.19345093 C106.86373426 15.99180808 104.86921923 17.20212866 101.23620701 17.63542652 C100.07895823 17.63850583 100.07895823 17.63850583 98.89833069 17.64164734 C98.0081575 17.64873215 97.11798431 17.65581696 96.20083618 17.66311646 C95.23189423 17.66063904 94.26295227 17.65816162 93.26464844 17.65560913 C92.23821732 17.66072006 91.21178619 17.66583099 90.1542511 17.6710968 C86.75861798 17.6850058 83.36318753 17.68403506 79.9675293 17.68173218 C77.60867741 17.6856183 75.24982623 17.6899528 72.89097595 17.69471741 C67.9455234 17.70218238 63.00014223 17.70188624 58.0546875 17.69662476 C51.71478912 17.69082895 45.37518277 17.70776272 39.03533268 17.73096943 C34.16347035 17.74569534 29.29167854 17.74658003 24.4197979 17.7434597 C22.08220275 17.74397346 19.74460371 17.74922136 17.40703011 17.75927162 C14.13932393 17.77159665 10.87218909 17.76486766 7.60449219 17.75326538 C6.1541156 17.76473099 6.1541156 17.76473099 4.67443848 17.77642822 C-0.21791256 17.73799961 -3.71484055 17.66298352 -7.63012695 14.38095093 C-9.70922885 11.26229809 -9.9117207 10.84355571 -9.50512695 7.38095093 C-9.44067383 6.70032593 -9.3762207 6.01970093 -9.30981445 5.31845093 C-7.79428868 0.99833147 -4.23206324 0.00596637 0 0 Z " fill="#FFFFFF" transform="translate(217.630126953125,246.61904907226563)"/>
<path d="M0 0 C1.05729813 -0.00379669 2.11459625 -0.00759338 3.20393372 -0.01150513 C6.7020119 -0.01891997 10.19926113 0.00248588 13.69726562 0.02490234 C16.12577212 0.02728631 18.55428048 0.02819219 20.98278809 0.02767944 C26.07376644 0.03080907 31.1644635 0.04738737 36.25537109 0.07421875 C42.78590216 0.10819855 49.31612398 0.1158474 55.84673309 0.11432838 C60.86182617 0.11487188 65.87685145 0.12583573 70.891922 0.14033127 C73.30010973 0.14670218 75.70830515 0.15063885 78.11650085 0.15211868 C81.48014448 0.15644848 84.84345833 0.17394306 88.20703125 0.1953125 C89.20559647 0.19440613 90.20416168 0.19349976 91.23298645 0.19256592 C92.60827766 0.20536087 92.60827766 0.20536087 94.01135254 0.21841431 C94.80627357 0.221766 95.60119461 0.22511768 96.42020416 0.22857094 C98.88569769 0.51909056 100.48865875 1.20309151 102.60351562 2.48583984 C104.65302527 5.12092367 104.60148793 6.59939104 104.54101562 9.98583984 C103.36983451 14.35824935 102.48945815 15.20945171 98.60351562 17.48583984 C95.12938636 18.06339413 91.70018913 18.01175993 88.18530273 17.97167969 C87.13761215 17.97547638 86.08992157 17.97927307 85.01048279 17.98318481 C81.55030299 17.99058918 78.09096444 17.96920985 74.63085938 17.94677734 C72.22620238 17.94439293 69.8215435 17.94348759 67.41688538 17.94400024 C62.37896044 17.9408725 57.34132014 17.9243076 52.3034668 17.89746094 C45.84134486 17.86346316 39.37953545 17.85583291 32.91733456 17.8573513 C27.95285552 17.85680785 22.98844499 17.84584483 18.02398872 17.83134842 C15.64092083 17.82497844 13.25784516 17.82104106 10.87476921 17.819561 C7.54715586 17.81523125 4.21987586 17.79773733 0.89233398 17.77636719 C-0.09530945 17.77727356 -1.08295288 17.77817993 -2.1005249 17.77911377 C-3.46102715 17.76631882 -3.46102715 17.76631882 -4.84901428 17.75326538 C-5.63526216 17.74991369 -6.42151003 17.746562 -7.2315836 17.74310875 C-9.68672918 17.45134821 -11.28928385 16.76195846 -13.39648438 15.48583984 C-15.46114939 12.83127054 -15.39333375 11.39762225 -15.27148438 7.98583984 C-13.12851155 -0.58605147 -7.65110931 -0.08611448 0 0 Z " fill="#FFFFFF" transform="translate(223.396484375,303.51416015625)"/>
<path d="M0 0 C1.05729813 -0.00379669 2.11459625 -0.00759338 3.20393372 -0.01150513 C6.7020119 -0.01891997 10.19926113 0.00248588 13.69726562 0.02490234 C16.12577212 0.02728631 18.55428048 0.02819219 20.98278809 0.02767944 C26.07376644 0.03080907 31.1644635 0.04738737 36.25537109 0.07421875 C42.78590216 0.10819855 49.31612398 0.1158474 55.84673309 0.11432838 C60.86182617 0.11487188 65.87685145 0.12583573 70.891922 0.14033127 C73.30010973 0.14670218 75.70830515 0.15063885 78.11650085 0.15211868 C81.48014448 0.15644848 84.84345833 0.17394306 88.20703125 0.1953125 C89.20559647 0.19440613 90.20416168 0.19349976 91.23298645 0.19256592 C92.60827766 0.20536087 92.60827766 0.20536087 94.01135254 0.21841431 C94.80627357 0.221766 95.60119461 0.22511768 96.42020416 0.22857094 C98.88569769 0.51909056 100.48865875 1.20309151 102.60351562 2.48583984 C104.65302527 5.12092367 104.60148793 6.59939104 104.54101562 9.98583984 C103.36983451 14.35824935 102.48945815 15.20945171 98.60351562 17.48583984 C95.12938636 18.06339413 91.70018913 18.01175993 88.18530273 17.97167969 C87.13761215 17.97547638 86.08992157 17.97927307 85.01048279 17.98318481 C81.55030299 17.99058918 78.09096444 17.96920985 74.63085938 17.94677734 C72.22620238 17.94439293 69.8215435 17.94348759 67.41688538 17.94400024 C62.37896044 17.9408725 57.34132014 17.9243076 52.3034668 17.89746094 C45.84134486 17.86346316 39.37953545 17.85583291 32.91733456 17.8573513 C27.95285552 17.85680785 22.98844499 17.84584483 18.02398872 17.83134842 C15.64092083 17.82497844 13.25784516 17.82104106 10.87476921 17.819561 C7.54715586 17.81523125 4.21987586 17.79773733 0.89233398 17.77636719 C-0.09530945 17.77727356 -1.08295288 17.77817993 -2.1005249 17.77911377 C-3.46102715 17.76631882 -3.46102715 17.76631882 -4.84901428 17.75326538 C-5.63526216 17.74991369 -6.42151003 17.746562 -7.2315836 17.74310875 C-9.68672918 17.45134821 -11.28928385 16.76195846 -13.39648438 15.48583984 C-15.46114939 12.83127054 -15.39333375 11.39762225 -15.27148438 7.98583984 C-13.12851155 -0.58605147 -7.65110931 -0.08611448 0 0 Z " fill="#FFFFFF" transform="translate(223.396484375,217.51416015625)"/>
<path d="M0 0 C1.1240625 -0.03738281 2.248125 -0.07476563 3.40625 -0.11328125 C6.5 0.3125 6.5 0.3125 8.875 2.08203125 C10.58980969 4.43577243 11.04476004 5.44785725 11 8.3125 C11.0103125 8.9725 11.020625 9.6325 11.03125 10.3125 C10.23025443 13.32801274 8.97839907 14.42513409 6.5 16.3125 C3.85912345 17.10221549 1.37544573 17.72037377 -1.3125 18.25 C-9.07567941 20.00704453 -14.26155088 21.9544439 -19.1875 28.625 C-21.9400627 33.27218378 -22.89868029 38.49112157 -23.80541992 43.76489258 C-24.57689158 47.60108943 -25.1289079 49.0554362 -28.3984375 51.3203125 C-32.55722525 52.65070556 -34.5743159 52.16423778 -38.5 50.3125 C-41.43834519 46.7313918 -41.70661119 43.66192368 -41.5 39.1875 C-39.90086027 26.54913762 -33.41556872 16.02681316 -23.78515625 7.91796875 C-16.51278032 2.80865848 -8.81234434 0.19201209 0 0 Z " fill="#FFFFFF" transform="translate(359.5,28.6875)"/>
</svg>
