<?xml version="1.0" encoding="UTF-8"?>
<svg version="1.1" xmlns="http://www.w3.org/2000/svg" width="512" height="512">
<path d="M0 0 C0.73093872 0.00248749 1.46187744 0.00497498 2.21496582 0.00753784 C13.00077986 0.06433168 23.37122766 0.34492808 33.8125 3.3125 C34.60946289 3.53292969 35.40642578 3.75335938 36.22753906 3.98046875 C53.8689253 9.00377873 70.53086313 16.66940601 84.8125 28.3125 C85.61349121 28.94961914 85.61349121 28.94961914 86.43066406 29.59960938 C108.55986479 47.27803565 123.90714321 70.4790473 132.1875 97.5625 C132.42629883 98.34141602 132.66509766 99.12033203 132.91113281 99.92285156 C136.36775194 111.92347281 137.22451829 123.94364952 137.1875 136.375 C137.18662384 137.0979425 137.18574768 137.82088501 137.18484497 138.56573486 C137.03942677 175.07123719 122.59926007 206.98319803 97.1875 233 C96.40375 233.763125 95.62 234.52625 94.8125 235.3125 C94.38582031 235.79589844 93.95914062 236.27929688 93.51953125 236.77734375 C77.18714645 254.62120889 51.94029705 265.09479133 28.8125 270.3125 C27.4925 270.3125 26.1725 270.3125 24.8125 270.3125 C24.8125 281.5325 24.8125 292.7525 24.8125 304.3125 C40.6525 304.3125 56.4925 304.3125 72.8125 304.3125 C72.8125 320.1525 72.8125 335.9925 72.8125 352.3125 C87.92021337 352.15460603 87.92021337 352.15460603 103.02734375 351.95214844 C104.93488669 351.94045541 106.84243968 351.93026504 108.75 351.921875 C109.72388672 351.90141113 110.69777344 351.88094727 111.70117188 351.85986328 C119.09447412 351.85611414 124.44170679 353.3586516 130.0546875 358.27734375 C130.59351563 358.92832031 131.13234375 359.57929688 131.6875 360.25 C132.24179687 360.89839844 132.79609375 361.54679687 133.3671875 362.21484375 C136.62449713 366.94234449 137.11032322 371.28820622 137.10302734 376.91333008 C137.10974457 377.66198837 137.11646179 378.41064667 137.12338257 379.18199158 C137.14232768 381.64873963 137.14628512 384.11521504 137.1484375 386.58203125 C137.1548684 388.30450043 137.16159698 390.02696852 137.16860962 391.74943542 C137.18057405 395.35812918 137.18429136 398.96672727 137.18310547 402.57543945 C137.18290245 407.18544705 137.21019022 411.79483699 137.24464989 416.40469837 C137.26695764 419.96248659 137.27094181 423.52012715 137.26988602 427.07797813 C137.27223669 428.77674167 137.28103003 430.47550961 137.29655075 432.17420387 C137.44438205 450.02681352 137.44438205 450.02681352 130.84765625 457.5546875 C130.19667969 458.09351563 129.54570312 458.63234375 128.875 459.1875 C128.22660156 459.74179687 127.57820313 460.29609375 126.91015625 460.8671875 C122.80719502 463.69418127 119.24156738 464.5631041 114.29296875 464.5078125 C113.27138672 464.50136719 112.24980469 464.49492187 111.19726562 464.48828125 C110.14216797 464.47152344 109.08707031 464.45476562 108 464.4375 C106.92556641 464.42847656 105.85113281 464.41945313 104.74414062 464.41015625 C102.10016448 464.38665424 99.4563034 464.35078517 96.8125 464.3125 C96.8125 469.5925 96.8125 474.8725 96.8125 480.3125 C102.0925 480.3125 107.3725 480.3125 112.8125 480.3125 C112.8125 485.5925 112.8125 490.8725 112.8125 496.3125 C81.1325 496.3125 49.4525 496.3125 16.8125 496.3125 C16.8125 491.0325 16.8125 485.7525 16.8125 480.3125 C22.0925 480.3125 27.3725 480.3125 32.8125 480.3125 C32.8125 475.0325 32.8125 469.7525 32.8125 464.3125 C31.245 464.35890625 29.6775 464.4053125 28.0625 464.453125 C25.97918583 464.49066219 23.89585091 464.52706025 21.8125 464.5625 C20.78253906 464.59601563 19.75257813 464.62953125 18.69140625 464.6640625 C10.85112748 464.76393866 5.52057273 463.56190868 -0.4296875 458.34765625 C-0.96851563 457.69667969 -1.50734375 457.04570312 -2.0625 456.375 C-2.61679687 455.72660156 -3.17109375 455.07820313 -3.7421875 454.41015625 C-6.39617321 450.5582905 -7.43965446 447.08715217 -7.41455078 442.43041992 C-7.41439972 441.48982224 -7.41424866 440.54922455 -7.41409302 439.5801239 C-7.40377045 438.5778627 -7.39344788 437.5756015 -7.3828125 436.54296875 C-7.37856766 434.98875969 -7.37856766 434.98875969 -7.37423706 433.40315247 C-7.36306454 430.10198293 -7.33796505 426.80108719 -7.3125 423.5 C-7.30246643 421.25846747 -7.29334124 419.01693067 -7.28515625 416.77539062 C-7.26483852 411.28757071 -7.22568366 405.80034094 -7.1875 400.3125 C-17.7475 400.3125 -28.3075 400.3125 -39.1875 400.3125 C-39.14109375 403.6125 -39.0946875 406.9125 -39.046875 410.3125 C-39.01563566 413.5261888 -38.99137274 416.73986036 -38.96777344 419.95361328 C-38.94771954 422.17862582 -38.92046935 424.40358607 -38.88574219 426.62841797 C-38.83695066 429.83574365 -38.81446838 433.04236951 -38.796875 436.25 C-38.77622986 437.23677734 -38.75558472 438.22355469 -38.73431396 439.24023438 C-38.7319439 446.61714406 -40.24576439 451.95552935 -45.15234375 457.5546875 C-45.80332031 458.09351563 -46.45429688 458.63234375 -47.125 459.1875 C-47.77339844 459.74179687 -48.42179687 460.29609375 -49.08984375 460.8671875 C-53.19280498 463.69418127 -56.75843262 464.5631041 -61.70703125 464.5078125 C-62.72861328 464.50136719 -63.75019531 464.49492187 -64.80273438 464.48828125 C-65.85783203 464.47152344 -66.91292969 464.45476562 -68 464.4375 C-69.07443359 464.42847656 -70.14886719 464.41945313 -71.25585938 464.41015625 C-73.89983552 464.38665424 -76.5436966 464.35078517 -79.1875 464.3125 C-79.1875 469.5925 -79.1875 474.8725 -79.1875 480.3125 C-73.9075 480.3125 -68.6275 480.3125 -63.1875 480.3125 C-63.1875 485.5925 -63.1875 490.8725 -63.1875 496.3125 C-94.8675 496.3125 -126.5475 496.3125 -159.1875 496.3125 C-159.1875 491.0325 -159.1875 485.7525 -159.1875 480.3125 C-153.9075 480.3125 -148.6275 480.3125 -143.1875 480.3125 C-143.1875 475.0325 -143.1875 469.7525 -143.1875 464.3125 C-144.755 464.35890625 -146.3225 464.4053125 -147.9375 464.453125 C-150.02081417 464.49066219 -152.10414909 464.52706025 -154.1875 464.5625 C-155.21746094 464.59601563 -156.24742187 464.62953125 -157.30859375 464.6640625 C-165.14887252 464.76393866 -170.47942727 463.56190868 -176.4296875 458.34765625 C-176.96851563 457.69667969 -177.50734375 457.04570312 -178.0625 456.375 C-178.61679688 455.72660156 -179.17109375 455.07820313 -179.7421875 454.41015625 C-182.39617321 450.5582905 -183.43965446 447.08715217 -183.41455078 442.43041992 C-183.41432419 441.01952339 -183.41432419 441.01952339 -183.41409302 439.5801239 C-183.40377045 438.5778627 -183.39344788 437.5756015 -183.3828125 436.54296875 C-183.3799826 435.50682938 -183.37715271 434.47069 -183.37423706 433.40315247 C-183.36306454 430.10198293 -183.33796505 426.80108719 -183.3125 423.5 C-183.30246643 421.25846747 -183.29334124 419.01693067 -183.28515625 416.77539062 C-183.26483852 411.28757071 -183.22568366 405.80034094 -183.1875 400.3125 C-193.7475 400.3125 -204.3075 400.3125 -215.1875 400.3125 C-215.14109375 403.6125 -215.0946875 406.9125 -215.046875 410.3125 C-215.01563566 413.5261888 -214.99137274 416.73986036 -214.96777344 419.95361328 C-214.94771954 422.17862582 -214.92046935 424.40358607 -214.88574219 426.62841797 C-214.83695066 429.83574365 -214.81446838 433.04236951 -214.796875 436.25 C-214.77622986 437.23677734 -214.75558472 438.22355469 -214.73431396 439.24023438 C-214.7319439 446.61714406 -216.24576439 451.95552935 -221.15234375 457.5546875 C-221.80332031 458.09351563 -222.45429688 458.63234375 -223.125 459.1875 C-223.77339844 459.74179687 -224.42179688 460.29609375 -225.08984375 460.8671875 C-229.19280498 463.69418127 -232.75843262 464.5631041 -237.70703125 464.5078125 C-238.72861328 464.50136719 -239.75019531 464.49492187 -240.80273438 464.48828125 C-241.85783203 464.47152344 -242.91292969 464.45476562 -244 464.4375 C-245.07443359 464.42847656 -246.14886719 464.41945313 -247.25585938 464.41015625 C-249.89983552 464.38665424 -252.5436966 464.35078517 -255.1875 464.3125 C-255.1875 469.5925 -255.1875 474.8725 -255.1875 480.3125 C-249.9075 480.3125 -244.6275 480.3125 -239.1875 480.3125 C-239.1875 485.5925 -239.1875 490.8725 -239.1875 496.3125 C-270.8675 496.3125 -302.5475 496.3125 -335.1875 496.3125 C-335.1875 491.0325 -335.1875 485.7525 -335.1875 480.3125 C-329.9075 480.3125 -324.6275 480.3125 -319.1875 480.3125 C-319.1875 475.0325 -319.1875 469.7525 -319.1875 464.3125 C-320.755 464.35890625 -322.3225 464.4053125 -323.9375 464.453125 C-326.02081417 464.49066219 -328.10414909 464.52706025 -330.1875 464.5625 C-331.21746094 464.59601563 -332.24742187 464.62953125 -333.30859375 464.6640625 C-341.14887252 464.76393866 -346.47942727 463.56190868 -352.4296875 458.34765625 C-352.96851563 457.69667969 -353.50734375 457.04570312 -354.0625 456.375 C-354.61679687 455.72660156 -355.17109375 455.07820313 -355.7421875 454.41015625 C-358.99949713 449.68265551 -359.48532322 445.33679378 -359.47802734 439.71166992 C-359.48474457 438.96301163 -359.49146179 438.21435333 -359.49838257 437.44300842 C-359.51732768 434.97626037 -359.52128512 432.50978496 -359.5234375 430.04296875 C-359.5298684 428.32049957 -359.53659698 426.59803148 -359.54360962 424.87556458 C-359.55557405 421.26687082 -359.55929136 417.65827273 -359.55810547 414.04956055 C-359.55790245 409.43955295 -359.58519022 404.83016301 -359.61964989 400.22030163 C-359.64195764 396.66251341 -359.64594181 393.10487285 -359.64488602 389.54702187 C-359.64723669 387.84825833 -359.65603003 386.14949039 -359.67155075 384.45079613 C-359.81938205 366.59818648 -359.81938205 366.59818648 -353.22265625 359.0703125 C-352.24619141 358.26207031 -352.24619141 358.26207031 -351.25 357.4375 C-350.60160156 356.88320313 -349.95320313 356.32890625 -349.28515625 355.7578125 C-345.4332905 353.10382679 -341.96215217 352.06034554 -337.30541992 352.08544922 C-335.87498352 352.08581177 -335.87498352 352.08581177 -334.41564941 352.08618164 C-333.42641479 352.09641357 -332.43718018 352.10664551 -331.41796875 352.1171875 C-330.4990686 352.11920166 -329.58016846 352.12121582 -328.63342285 352.12329102 C-325.2138975 352.1337237 -321.79444353 352.16164626 -318.375 352.1875 C-310.723125 352.22875 -303.07125 352.27 -295.1875 352.3125 C-295.1875 336.4725 -295.1875 320.6325 -295.1875 304.3125 C-279.3475 304.3125 -263.5075 304.3125 -247.1875 304.3125 C-247.1875 293.7525 -247.1875 283.1925 -247.1875 272.3125 C-249.57484375 272.35890625 -251.9621875 272.4053125 -254.421875 272.453125 C-256.77520632 272.48446222 -259.12851299 272.5086688 -261.48193359 272.53222656 C-263.09760209 272.55214532 -264.7132004 272.57929074 -266.32861328 272.61425781 C-282.72782145 272.95993238 -297.99559515 269.64344476 -310.50390625 258.125 C-323.3469541 244.29860974 -327.93103796 229.40076604 -327.5625 210.921875 C-327.00441698 199.09848758 -322.62162178 189.49684625 -315.1875 180.3125 C-314.424375 179.260625 -313.66125 178.20875 -312.875 177.125 C-304.75428267 168.62657489 -293.6252447 162.88015697 -282.1875 160.3125 C-280.8675 160.3125 -279.5475 160.3125 -278.1875 160.3125 C-278.125625 159.301875 -278.06375 158.29125 -278 157.25 C-275.85501406 140.78578361 -267.26593466 124.47175755 -256.1875 112.3125 C-255.30320312 111.33539063 -254.41890625 110.35828125 -253.5078125 109.3515625 C-238.38688409 93.18904389 -216.5426892 81.46148159 -194.20581055 80.13549805 C-170.75326405 79.67657631 -149.9099002 81.49773119 -130.1875 95.3125 C-129.71183594 94.01892578 -129.71183594 94.01892578 -129.2265625 92.69921875 C-123.05081279 76.54332103 -115.49039352 61.49346577 -104.1875 48.3125 C-103.52814453 47.537854 -103.52814453 47.537854 -102.85546875 46.74755859 C-77.04905294 16.67415977 -39.46355906 -0.21443935 0 0 Z M-27.1875 33.3125 C-34.61234454 42.82966864 -38.54671979 53.04203378 -43.1875 64.3125 C-14.1475 64.3125 14.8925 64.3125 44.8125 64.3125 C37.31117646 46.09499998 29.04247483 29.02472949 11.75 18.4375 C-4.40648232 12.39701337 -17.28739115 21.35216783 -27.1875 33.3125 Z M-85.1875 53.3125 C-90.82329574 58.2611707 -90.82329574 58.2611707 -94.1875 64.3125 C-83.2975 64.3125 -72.4075 64.3125 -61.1875 64.3125 C-59.5375 60.3525 -57.8875 56.3925 -56.1875 52.3125 C-54.89687418 49.42289075 -53.59841659 46.54910142 -52.25 43.6875 C-51.91226563 42.96892822 -51.57453125 42.25035645 -51.2265625 41.51000977 C-48.54951865 35.89768835 -45.57351812 30.53261127 -42.1875 25.3125 C-57.07587442 25.3125 -75.34137449 43.53475036 -85.1875 53.3125 Z M43.8125 25.3125 C44.30878906 26.14910156 44.80507813 26.98570313 45.31640625 27.84765625 C52.22139742 39.62514861 57.73227345 51.61193361 62.8125 64.3125 C73.7025 64.3125 84.5925 64.3125 95.8125 64.3125 C82.86025712 47.04284283 65.0232074 31.32220043 43.8125 25.3125 Z M-105.1875 80.3125 C-107.105625 84.7365625 -107.105625 84.7365625 -109.0625 89.25 C-109.46194824 90.15999756 -109.86139648 91.06999512 -110.27294922 92.00756836 C-113.75459016 99.89595727 -113.75459016 99.89595727 -115.1875 108.3125 C-113.73651657 111.15208565 -113.73651657 111.15208565 -111.1875 113.25 C-106.49493157 117.62612878 -106.49493157 117.62612878 -105.05810547 120.83398438 C-103.69158588 123.83851752 -102.52909245 125.97118072 -100.1875 128.3125 C-95.21713219 129.56572863 -90.38341056 129.26037153 -85.3125 128.9375 C-83.94287051 128.88728889 -82.57306449 128.84167008 -81.203125 128.80078125 C-77.8600795 128.68306838 -74.5260507 128.51889699 -71.1875 128.3125 C-71.11233154 127.42691406 -71.03716309 126.54132813 -70.9597168 125.62890625 C-70.66971634 122.25850032 -70.37240741 118.88888905 -70.07055664 115.51953125 C-69.94274557 114.07706923 -69.81763017 112.63436515 -69.69555664 111.19140625 C-69.5168527 109.08520013 -69.32757762 106.98013592 -69.13671875 104.875 C-69.02674561 103.61816406 -68.91677246 102.36132812 -68.8034668 101.06640625 C-67.90114036 94.10243465 -66.48160833 87.21441111 -65.1875 80.3125 C-78.3875 80.3125 -91.5875 80.3125 -105.1875 80.3125 Z M-48.1875 80.3125 C-51.77688715 97.36208895 -54.1875 111.16864459 -54.1875 128.3125 C-17.8875 128.3125 18.4125 128.3125 55.8125 128.3125 C55.93055768 118.19217086 55.93055768 118.19217086 55.0078125 108.41796875 C54.75064453 106.70770508 54.75064453 106.70770508 54.48828125 104.96289062 C54.30652344 103.82013672 54.12476563 102.67738281 53.9375 101.5 C53.67646484 99.75686523 53.67646484 99.75686523 53.41015625 97.97851562 C52.48402102 91.94491612 51.30142871 86.26821484 49.8125 80.3125 C17.4725 80.3125 -14.8675 80.3125 -48.1875 80.3125 Z M66.8125 80.3125 C67.43125 83.7775 68.05 87.2425 68.6875 90.8125 C70.83805048 103.28812672 71.91066187 115.68676615 72.8125 128.3125 C88.3225 128.3125 103.8325 128.3125 119.8125 128.3125 C118.97326353 116.92360868 118.97326353 116.92360868 116.6875 106 C116.5121875 105.28650391 116.336875 104.57300781 116.15625 103.83789062 C113.93251054 95.4699879 110.38317128 88.47403436 106.8125 80.3125 C93.6125 80.3125 80.4125 80.3125 66.8125 80.3125 Z M-240.52734375 120.5859375 C-255.74169015 136.65852908 -261.91676406 155.67654852 -263.1875 177.3125 C-264.21488281 177.26609375 -265.24226563 177.2196875 -266.30078125 177.171875 C-278.31947686 176.78933634 -287.62346483 178.33736929 -297.12109375 186.33984375 C-305.35553512 194.20069988 -310.14151544 202.7026526 -310.65820312 214.23193359 C-310.82743166 226.2499798 -307.52979661 235.57373781 -299.1875 244.3125 C-288.8618155 254.16972245 -276.89117185 256.47623809 -263.01715088 256.44621277 C-261.84353489 256.4496111 -261.84353489 256.4496111 -260.64620948 256.45307809 C-258.04569981 256.45936712 -255.44524295 256.45859203 -252.84472656 256.45776367 C-250.97141452 256.46075836 -249.0981031 256.46416161 -247.22479248 256.46794128 C-242.15023885 256.4767543 -237.07570209 256.47911827 -232.00114155 256.47975707 C-228.82635893 256.48046915 -225.65158057 256.48260646 -222.47679901 256.48525429 C-211.38850127 256.49449904 -200.30021553 256.4985903 -189.21191406 256.49780273 C-178.89640791 256.49720229 -168.58095411 256.50774977 -158.26546121 256.5235464 C-149.3921472 256.53664751 -140.51885025 256.54198555 -131.64552665 256.54134732 C-126.35345095 256.54109308 -121.06142179 256.54390364 -115.76935577 256.55452538 C-110.7887155 256.5642496 -105.80816586 256.56425602 -100.82752228 256.55700874 C-99.00713976 256.55596824 -97.18675146 256.5582938 -95.36637878 256.5643692 C-78.18617254 256.61796025 -63.40498287 255.91308127 -50.23046875 243.5546875 C-41.87610721 234.38565591 -39.56355634 224.51074078 -39.87890625 212.32421875 C-40.48334994 201.67748246 -45.6927922 193.55792049 -53.25390625 186.33984375 C-62.64772473 178.42483749 -72.8862795 176.01362348 -85.03662109 177.01123047 C-91.30256086 177.88888877 -97.28253483 180.11384276 -103.1875 182.3125 C-103.22617187 180.62447266 -103.22617187 180.62447266 -103.265625 178.90234375 C-103.93127924 158.45756956 -109.55542938 139.93577195 -123.1875 124.3125 C-123.96222656 123.343125 -124.73695313 122.37375 -125.53515625 121.375 C-136.55427562 108.18015726 -154.43552937 99.80837441 -171.1875 97.3125 C-172.2084375 97.16039063 -173.229375 97.00828125 -174.28125 96.8515625 C-199.19497543 94.07651883 -222.66249332 103.22810286 -240.52734375 120.5859375 Z M-92.1875 144.3125 C-90.8675 149.5925 -89.5475 154.8725 -88.1875 160.3125 C-82.2475 160.3125 -76.3075 160.3125 -70.1875 160.3125 C-70.5175 155.0325 -70.8475 149.7525 -71.1875 144.3125 C-78.1175 144.3125 -85.0475 144.3125 -92.1875 144.3125 Z M-54.1875 144.3125 C-54.1875 148.2725 -54.1875 152.2325 -54.1875 156.3125 C-54.22875 158.065625 -54.27 159.81875 -54.3125 161.625 C-53.96741478 164.978797 -53.48398144 166.0319015 -51 168.3828125 C-48.35509279 170.26800567 -48.35509279 170.26800567 -45.6328125 171.83984375 C-43.4298301 173.16655999 -41.98091542 174.51371508 -40.1875 176.3125 C-39.5275 176.3125 -38.8675 176.3125 -38.1875 176.3125 C-37.7853125 177.16134766 -37.7853125 177.16134766 -37.375 178.02734375 C-36.12382229 180.4350377 -34.70800134 182.62845927 -33.1875 184.875 C-32.671875 185.63941406 -32.15625 186.40382812 -31.625 187.19140625 C-31.150625 187.89136719 -30.67625 188.59132812 -30.1875 189.3125 C-29.5275 190.3025 -28.8675 191.2925 -28.1875 192.3125 C-25.64397517 192.59910203 -23.34463036 192.69107678 -20.80029297 192.65307617 C-20.03922241 192.65351425 -19.27815186 192.65395233 -18.49401855 192.65440369 C-15.97231607 192.65230959 -13.45127417 192.62895001 -10.9296875 192.60546875 C-9.18377038 192.59987499 -7.43784856 192.59560385 -5.69192505 192.59260559 C-1.0919296 192.58113948 3.50778263 192.55165727 8.10766602 192.51849365 C12.79960295 192.48783071 17.49158555 192.47410835 22.18359375 192.45898438 C31.39335375 192.42678913 40.60290334 192.37557159 49.8125 192.3125 C50.45627317 189.32095947 51.09634046 186.32870264 51.734375 183.3359375 C51.91468262 182.4998999 52.09499023 181.6638623 52.28076172 180.80249023 C54.89246271 168.51318491 55.8125 156.96303047 55.8125 144.3125 C19.5125 144.3125 -16.7875 144.3125 -54.1875 144.3125 Z M72.8125 144.3125 C71.95233193 153.74818477 71.95233193 153.74818477 71.1081543 163.18530273 C70.17706889 173.09129036 68.55578423 182.43388934 66.8125 192.3125 C80.0125 192.3125 93.2125 192.3125 106.8125 192.3125 C114.11014424 175.77117305 118.40863967 162.56268435 119.8125 144.3125 C104.3025 144.3125 88.7925 144.3125 72.8125 144.3125 Z M-23.1875 208.3125 C-23.5175 214.5825 -23.8475 220.8525 -24.1875 227.3125 C-26.06260555 234.41111387 -28.38932791 240.2534084 -32.234375 246.47265625 C-33.41749348 248.41111791 -33.41749348 248.41111791 -33.1875 251.3125 C-25.57161519 253.72259013 -17.98834473 254.83655121 -10.0625 255.625 C-9.1451709 255.72538574 -8.2278418 255.82577148 -7.28271484 255.92919922 C3.37133166 256.89220145 11.49190409 255.12690719 19.8125 248.3125 C31.86293117 237.86743824 39.80893 223.32321001 44.8125 208.3125 C22.3725 208.3125 -0.0675 208.3125 -23.1875 208.3125 Z M62.8125 208.3125 C61.1625 212.2725 59.5125 216.2325 57.8125 220.3125 C56.52187418 223.20210925 55.22341659 226.07589858 53.875 228.9375 C53.53726562 229.65607178 53.19953125 230.37464355 52.8515625 231.11499023 C50.17451865 236.72731165 47.19851812 242.09238873 43.8125 247.3125 C64.22446603 240.82869903 82.61381307 226.004957 95.8125 209.3125 C95.8125 208.9825 95.8125 208.6525 95.8125 208.3125 C84.9225 208.3125 74.0325 208.3125 62.8125 208.3125 Z M-55.5625 266.6875 C-71.31139014 274.44848044 -83.50440942 271.75012598 -103.1875 272.3125 C-103.1875 298.7125 -103.1875 325.1125 -103.1875 352.3125 C-88.08026484 352.48276198 -88.08026484 352.48276198 -72.97265625 352.61035156 C-71.06507992 352.63974265 -69.15752499 352.67057223 -67.25 352.703125 C-66.27611328 352.70425293 -65.30222656 352.70538086 -64.29882812 352.70654297 C-57.11861857 352.85582724 -51.66903458 354.30816418 -46.1640625 359.05859375 C-45.71804688 359.61675781 -45.27203125 360.17492187 -44.8125 360.75 C-44.35101563 361.30558594 -43.88953125 361.86117187 -43.4140625 362.43359375 C-38.7047441 369.64754965 -39.81137584 374.95436234 -39.1875 384.3125 C-28.6275 384.3125 -18.0675 384.3125 -7.1875 384.3125 C-6.8575 379.3625 -6.5275 374.4125 -6.1875 369.3125 C-3.94609038 363.01931145 -0.80867669 358.98204154 4.8125 355.3125 C8.22431545 353.7532851 10.95105026 353.0541946 14.69458008 352.99365234 C16.10547661 352.96384781 16.10547661 352.96384781 17.5448761 352.93344116 C19.0482679 352.91611435 19.0482679 352.91611435 20.58203125 352.8984375 C21.61817062 352.87907135 22.65431 352.8597052 23.72184753 352.8397522 C27.02281529 352.78009643 30.32381819 352.73362669 33.625 352.6875 C35.86655145 352.64930737 38.10808842 352.61025489 40.34960938 352.5703125 C45.83716317 352.47279211 51.32456759 352.3931113 56.8125 352.3125 C56.8125 341.7525 56.8125 331.1925 56.8125 320.3125 C40.9725 320.3125 25.1325 320.3125 8.8125 320.3125 C8.8125 304.4725 8.8125 288.6325 8.8125 272.3125 C5.265 272.23 1.7175 272.1475 -1.9375 272.0625 C-16.02410657 271.57835126 -29.87049956 269.51735249 -43.21484375 264.828125 C-48.02207726 263.57158079 -51.18728596 264.51869762 -55.5625 266.6875 Z M-231.1875 272.3125 C-231.1875 288.1525 -231.1875 303.9925 -231.1875 320.3125 C-247.0275 320.3125 -262.8675 320.3125 -279.1875 320.3125 C-279.1875 330.8725 -279.1875 341.4325 -279.1875 352.3125 C-275.8875 352.33828125 -272.5875 352.3640625 -269.1875 352.390625 C-265.97371066 352.42909255 -262.76007921 352.47423775 -259.54638672 352.52001953 C-257.32152914 352.54815772 -255.09657293 352.56940765 -252.87158203 352.58349609 C-249.66387697 352.60502432 -246.45734897 352.65172678 -243.25 352.703125 C-241.76983398 352.70496796 -241.76983398 352.70496796 -240.25976562 352.70684814 C-233.09555815 352.85707431 -227.65553422 354.3198141 -222.1640625 359.05859375 C-221.71804687 359.61675781 -221.27203125 360.17492187 -220.8125 360.75 C-220.35101563 361.30558594 -219.88953125 361.86117187 -219.4140625 362.43359375 C-214.7047441 369.64754965 -215.81137584 374.95436234 -215.1875 384.3125 C-204.6275 384.3125 -194.0675 384.3125 -183.1875 384.3125 C-182.8575 379.3625 -182.5275 374.4125 -182.1875 369.3125 C-179.94609038 363.01931145 -176.80867669 358.98204154 -171.1875 355.3125 C-167.77568455 353.7532851 -165.04894974 353.0541946 -161.30541992 352.99365234 C-160.35179565 352.97359131 -159.39817139 352.95353027 -158.41564941 352.93286133 C-157.42641479 352.92150146 -156.43718018 352.9101416 -155.41796875 352.8984375 C-154.03961853 352.87197144 -154.03961853 352.87197144 -152.63342285 352.8449707 C-149.21412373 352.78209676 -145.79453636 352.73577688 -142.375 352.6875 C-130.8971875 352.501875 -130.8971875 352.501875 -119.1875 352.3125 C-119.1875 325.9125 -119.1875 299.5125 -119.1875 272.3125 C-156.1475 272.3125 -193.1075 272.3125 -231.1875 272.3125 Z M-341.1875 371.3125 C-346.76385952 385.25339879 -343.1875 401.29769249 -343.1875 416.3125 C-306.2275 416.3125 -269.2675 416.3125 -231.1875 416.3125 C-229.25157865 392.50138899 -229.25157865 392.50138899 -234.1875 370.3125 C-238.48183137 367.54531704 -243.52772546 368.02376562 -248.47241211 368.0378418 C-249.86356483 368.0301754 -249.86356483 368.0301754 -251.28282166 368.02235413 C-254.34356163 368.00847272 -257.40407607 368.00941377 -260.46484375 368.01171875 C-262.59566837 368.00783114 -264.72649222 368.00349634 -266.85731506 367.99873352 C-271.32181308 367.99127451 -275.78623201 367.99156038 -280.25073242 367.99682617 C-285.96835923 368.00262158 -291.68566218 367.98568637 -297.40323544 367.9624815 C-301.80332834 367.94774142 -306.20334328 367.94687282 -310.6034565 367.94999123 C-312.71135665 367.9494782 -314.81926119 367.94424387 -316.92713737 367.93417931 C-319.87603614 367.92182657 -322.8243045 367.92859972 -325.77319336 367.94018555 C-327.07555939 367.92871994 -327.07555939 367.92871994 -328.40423584 367.91702271 C-333.35515579 367.95996054 -337.00597807 368.36300512 -341.1875 371.3125 Z M-165.1875 371.3125 C-170.76385952 385.25339879 -167.1875 401.29769249 -167.1875 416.3125 C-130.2275 416.3125 -93.2675 416.3125 -55.1875 416.3125 C-53.25157865 392.50138899 -53.25157865 392.50138899 -58.1875 370.3125 C-62.48183137 367.54531704 -67.52772546 368.02376562 -72.47241211 368.0378418 C-73.86356483 368.0301754 -73.86356483 368.0301754 -75.28282166 368.02235413 C-78.34356163 368.00847272 -81.40407607 368.00941377 -84.46484375 368.01171875 C-86.59566837 368.00783114 -88.72649222 368.00349634 -90.85731506 367.99873352 C-95.32181308 367.99127451 -99.78623201 367.99156038 -104.25073242 367.99682617 C-109.96835923 368.00262158 -115.68566218 367.98568637 -121.40323544 367.9624815 C-125.80332834 367.94774142 -130.20334328 367.94687282 -134.6034565 367.94999123 C-136.71135665 367.9494782 -138.81926119 367.94424387 -140.92713737 367.93417931 C-143.87603614 367.92182657 -146.8243045 367.92859972 -149.77319336 367.94018555 C-151.07555939 367.92871994 -151.07555939 367.92871994 -152.40423584 367.91702271 C-157.35515579 367.95996054 -161.00597807 368.36300512 -165.1875 371.3125 Z M10.8125 371.3125 C5.23614048 385.25339879 8.8125 401.29769249 8.8125 416.3125 C45.7725 416.3125 82.7325 416.3125 120.8125 416.3125 C122.74842135 392.50138899 122.74842135 392.50138899 117.8125 370.3125 C113.51816863 367.54531704 108.47227454 368.02376562 103.52758789 368.0378418 C102.13643517 368.0301754 102.13643517 368.0301754 100.71717834 368.02235413 C97.65643837 368.00847272 94.59592393 368.00941377 91.53515625 368.01171875 C89.40433163 368.00783114 87.27350778 368.00349634 85.14268494 367.99873352 C80.67818692 367.99127451 76.21376799 367.99156038 71.74926758 367.99682617 C66.03164077 368.00262158 60.31433782 367.98568637 54.59676456 367.9624815 C50.19667166 367.94774142 45.79665672 367.94687282 41.3965435 367.94999123 C39.28864335 367.9494782 37.18073881 367.94424387 35.07286263 367.93417931 C32.12396386 367.92182657 29.1756955 367.92859972 26.22680664 367.94018555 C24.92444061 367.92871994 24.92444061 367.92871994 23.59576416 367.91702271 C18.64484421 367.95996054 14.99402193 368.36300512 10.8125 371.3125 Z M-343.1875 432.3125 C-343.44063245 440.11967911 -343.44063245 440.11967911 -340.1875 446.3125 C-335.6295195 448.88387112 -330.98561867 448.60162821 -325.90258789 448.5871582 C-324.51143517 448.5948246 -324.51143517 448.5948246 -323.09217834 448.60264587 C-320.03143837 448.61652728 -316.97092393 448.61558623 -313.91015625 448.61328125 C-311.77933163 448.61716886 -309.64850778 448.62150366 -307.51768494 448.62626648 C-303.05318692 448.63372549 -298.58876799 448.63343962 -294.12426758 448.62817383 C-288.40664077 448.62237842 -282.68933782 448.63931363 -276.97176456 448.6625185 C-272.57167166 448.67725858 -268.17165672 448.67812718 -263.7715435 448.67500877 C-261.66364335 448.6755218 -259.55573881 448.68075613 -257.44786263 448.69082069 C-254.49896386 448.70317343 -251.5506955 448.69640028 -248.60180664 448.68481445 C-247.73356262 448.69245819 -246.8653186 448.70010193 -245.97076416 448.70797729 C-240.97508611 448.66465129 -237.50832559 448.10381579 -233.1875 445.3125 C-230.40689819 440.8888153 -231.1875 437.95125369 -231.1875 432.3125 C-268.1475 432.3125 -305.1075 432.3125 -343.1875 432.3125 Z M-167.1875 432.3125 C-167.44063245 440.11967911 -167.44063245 440.11967911 -164.1875 446.3125 C-159.6295195 448.88387112 -154.98561867 448.60162821 -149.90258789 448.5871582 C-148.51143517 448.5948246 -148.51143517 448.5948246 -147.09217834 448.60264587 C-144.03143837 448.61652728 -140.97092393 448.61558623 -137.91015625 448.61328125 C-135.77933163 448.61716886 -133.64850778 448.62150366 -131.51768494 448.62626648 C-127.05318692 448.63372549 -122.58876799 448.63343962 -118.12426758 448.62817383 C-112.40664077 448.62237842 -106.68933782 448.63931363 -100.97176456 448.6625185 C-96.57167166 448.67725858 -92.17165672 448.67812718 -87.7715435 448.67500877 C-85.66364335 448.6755218 -83.55573881 448.68075613 -81.44786263 448.69082069 C-78.49896386 448.70317343 -75.5506955 448.69640028 -72.60180664 448.68481445 C-71.73356262 448.69245819 -70.8653186 448.70010193 -69.97076416 448.70797729 C-64.97508611 448.66465129 -61.50832559 448.10381579 -57.1875 445.3125 C-54.40689819 440.8888153 -55.1875 437.95125369 -55.1875 432.3125 C-92.1475 432.3125 -129.1075 432.3125 -167.1875 432.3125 Z M8.8125 432.3125 C8.55936755 440.11967911 8.55936755 440.11967911 11.8125 446.3125 C16.3704805 448.88387112 21.01438133 448.60162821 26.09741211 448.5871582 C27.48856483 448.5948246 27.48856483 448.5948246 28.90782166 448.60264587 C31.96856163 448.61652728 35.02907607 448.61558623 38.08984375 448.61328125 C40.22066837 448.61716886 42.35149222 448.62150366 44.48231506 448.62626648 C48.94681308 448.63372549 53.41123201 448.63343962 57.87573242 448.62817383 C63.59335923 448.62237842 69.31066218 448.63931363 75.02823544 448.6625185 C79.42832834 448.67725858 83.82834328 448.67812718 88.2284565 448.67500877 C90.33635665 448.6755218 92.44426119 448.68075613 94.55213737 448.69082069 C97.50103614 448.70317343 100.4493045 448.69640028 103.39819336 448.68481445 C104.26643738 448.69245819 105.1346814 448.70010193 106.02923584 448.70797729 C111.02491389 448.66465129 114.49167441 448.10381579 118.8125 445.3125 C121.59310181 440.8888153 120.8125 437.95125369 120.8125 432.3125 C83.8525 432.3125 46.8925 432.3125 8.8125 432.3125 Z M-303.1875 464.3125 C-303.1875 469.5925 -303.1875 474.8725 -303.1875 480.3125 C-292.6275 480.3125 -282.0675 480.3125 -271.1875 480.3125 C-271.1875 475.0325 -271.1875 469.7525 -271.1875 464.3125 C-281.7475 464.3125 -292.3075 464.3125 -303.1875 464.3125 Z M-127.1875 464.3125 C-127.1875 469.5925 -127.1875 474.8725 -127.1875 480.3125 C-116.6275 480.3125 -106.0675 480.3125 -95.1875 480.3125 C-95.1875 475.0325 -95.1875 469.7525 -95.1875 464.3125 C-105.7475 464.3125 -116.3075 464.3125 -127.1875 464.3125 Z M48.8125 464.3125 C48.8125 469.5925 48.8125 474.8725 48.8125 480.3125 C59.3725 480.3125 69.9325 480.3125 80.8125 480.3125 C80.8125 475.0325 80.8125 469.7525 80.8125 464.3125 C70.2525 464.3125 59.6925 464.3125 48.8125 464.3125 Z " fill="#FFFFFF" transform="translate(367.1875,7.6875)"/>
<path d="M0 0 C5.82485779 3.51996782 10.54466582 8.98962934 12.5625 15.5 C13.36764105 23.33608208 13.68710392 31.11922577 8.5625 37.5 C3.75801361 42.54521222 -0.59927055 46.10562995 -7.70703125 46.8359375 C-16.22326573 46.92983204 -22.11345494 46.6177288 -28.40234375 40.62890625 C-34.7841668 33.72505269 -35.91792252 28.29832071 -35.7421875 18.9453125 C-35.04689797 11.08319245 -31.38995981 6.95041296 -25.53515625 1.9453125 C-18.47077988 -2.92213491 -7.84396301 -3.47595223 0 0 Z M-16.8125 17.125 C-18.92456506 20.21186432 -19.04945145 21.8282913 -18.4375 25.5 C-16.9375 28 -16.9375 28 -14.4375 29.5 C-10.7657913 30.11195145 -9.14936432 29.98706506 -6.0625 27.875 C-3.95043494 24.78813568 -3.82554855 23.1717087 -4.4375 19.5 C-5.9375 17 -5.9375 17 -8.4375 15.5 C-12.1092087 14.88804855 -13.72563568 15.01293494 -16.8125 17.125 Z " fill="#FFFFFF" transform="translate(267.4375,201.5)"/>
<path d="M0 0 C5.82485779 3.51996782 10.54466582 8.98962934 12.5625 15.5 C13.36764105 23.33608208 13.68710392 31.11922577 8.5625 37.5 C3.75801361 42.54521222 -0.59927055 46.10562995 -7.70703125 46.8359375 C-16.22326573 46.92983204 -22.11345494 46.6177288 -28.40234375 40.62890625 C-34.7841668 33.72505269 -35.91792252 28.29832071 -35.7421875 18.9453125 C-35.04689797 11.08319245 -31.38995981 6.95041296 -25.53515625 1.9453125 C-18.47077988 -2.92213491 -7.84396301 -3.47595223 0 0 Z M-16.8125 17.125 C-18.92456506 20.21186432 -19.04945145 21.8282913 -18.4375 25.5 C-16.9375 28 -16.9375 28 -14.4375 29.5 C-10.7657913 30.11195145 -9.14936432 29.98706506 -6.0625 27.875 C-3.95043494 24.78813568 -3.82554855 23.1717087 -4.4375 19.5 C-5.9375 17 -5.9375 17 -8.4375 15.5 C-12.1092087 14.88804855 -13.72563568 15.01293494 -16.8125 17.125 Z " fill="#FFFFFF" transform="translate(203.4375,201.5)"/>
<path d="M0 0 C5.82485779 3.51996782 10.54466582 8.98962934 12.5625 15.5 C13.36764105 23.33608208 13.68710392 31.11922577 8.5625 37.5 C3.75801361 42.54521222 -0.59927055 46.10562995 -7.70703125 46.8359375 C-16.22326573 46.92983204 -22.11345494 46.6177288 -28.40234375 40.62890625 C-34.7841668 33.72505269 -35.91792252 28.29832071 -35.7421875 18.9453125 C-35.04689797 11.08319245 -31.38995981 6.95041296 -25.53515625 1.9453125 C-18.47077988 -2.92213491 -7.84396301 -3.47595223 0 0 Z M-16.8125 17.125 C-18.92456506 20.21186432 -19.04945145 21.8282913 -18.4375 25.5 C-16.9375 28 -16.9375 28 -14.4375 29.5 C-10.7657913 30.11195145 -9.14936432 29.98706506 -6.0625 27.875 C-3.95043494 24.78813568 -3.82554855 23.1717087 -4.4375 19.5 C-5.9375 17 -5.9375 17 -8.4375 15.5 C-12.1092087 14.88804855 -13.72563568 15.01293494 -16.8125 17.125 Z " fill="#FFFFFF" transform="translate(139.4375,201.5)"/>
<path d="M0 0 C16.49819515 -0.64278682 32.25324084 5.15526124 44.5625 16.3125 C52.41187357 23.79847665 58.64238302 33.64734765 62 44 C61.67 44.99 61.34 45.98 61 47 C58.28681956 47.88082622 55.71116483 48.57876229 52.9375 49.1875 C52.17888672 49.36474609 51.42027344 49.54199219 50.63867188 49.72460938 C48.76178303 50.16136967 46.8811984 50.58219156 45 51 C44.79246094 50.38253906 44.58492187 49.76507813 44.37109375 49.12890625 C40.06978101 37.30479549 32.14795219 28.01353803 20.9375 22.1875 C14.03131089 18.97654317 7.52970056 17.69504928 0 17 C0 11.39 0 5.78 0 0 Z " fill="#FFFFFF" transform="translate(184,120)"/>
</svg>
