<?xml version="1.0" encoding="UTF-8"?>
<svg version="1.1" xmlns="http://www.w3.org/2000/svg" width="512" height="512">
<path d="M0 0 C2.34912109 1.33178711 2.34912109 1.33178711 4.7734375 3.02734375 C5.67271973 3.65060547 6.57200195 4.27386719 7.49853516 4.91601562 C8.44776855 5.58310547 9.39700195 6.25019531 10.375 6.9375 C11.36161621 7.61103516 12.34823242 8.28457031 13.36474609 8.97851562 C17.70918126 11.95083748 21.9914649 14.93375635 26.078125 18.25390625 C33.56785383 24.18749894 39.00174835 25.94923671 48.56982422 25.01000977 C50.34945754 24.80090875 52.12791135 24.58160447 53.90527344 24.35400391 C59.50304834 23.71367781 65.13007988 23.4200649 70.75189209 23.06604004 C73.95546112 22.85995163 77.15733005 22.63072521 80.359375 22.40234375 C81.44702148 22.32491943 82.53466797 22.24749512 83.65527344 22.16772461 C84.81591309 22.08470093 84.81591309 22.08470093 86 22 C86.7299549 23.42021437 87.45784241 24.84150951 88.17871094 26.26635742 C88.87135089 27.62833699 89.57441402 28.98505066 90.28613281 30.3371582 C92.72348486 35.07606121 94.68328769 39.80683924 96.44140625 44.83984375 C100.89733533 56.88586137 104.85776195 66.40003598 117.12988281 72.19262695 C121.7863312 74.16183169 126.48860947 75.9148019 131.26416016 77.57226562 C138.09188175 80.18163145 144.52585453 83.62310089 151 87 C150.90912109 88.15935059 150.81824219 89.31870117 150.72460938 90.51318359 C150.3852712 94.85533537 150.05103544 99.19786797 149.71826172 103.54052734 C149.57412437 105.41237817 149.42864279 107.28412603 149.28173828 109.15576172 C149.06961724 111.8613872 148.86249282 114.56735832 148.65625 117.2734375 C148.59062866 118.09677582 148.52500732 118.92011414 148.45739746 119.7684021 C146.95749713 131.67040785 146.95749713 131.67040785 151.3125 142.125 C154.93992223 146.65927779 158.3079705 151.25830126 161.5625 156.0625 C165.22094449 161.44993105 168.96400166 166.735626 172.953125 171.88671875 C174 174 174 174 173.96484375 176.328125 C172.64583024 179.9807778 170.55631562 182.93252419 168.3125 186.0625 C167.59839966 187.08947998 167.59839966 187.08947998 166.86987305 188.13720703 C164.03769224 192.19586575 161.12364293 196.18380354 158.15625 200.14453125 C157.51776123 201.01392334 156.87927246 201.88331543 156.22143555 202.77905273 C154.97470616 204.47447077 153.70859867 206.15585448 152.42114258 207.82055664 C151.84517334 208.60938232 151.2692041 209.39820801 150.67578125 210.2109375 C150.15927002 210.89462402 149.64275879 211.57831055 149.1105957 212.28271484 C146.35180637 219.03262148 148.0872486 227.58741121 148.65625 234.7265625 C148.72283813 235.60025482 148.78942627 236.47394714 148.85803223 237.37411499 C149.06847507 240.12469668 149.2841401 242.87483869 149.5 245.625 C149.6448791 247.50648366 149.78941339 249.38799391 149.93359375 251.26953125 C150.28508347 255.84667068 150.64125241 260.42342394 151 265 C146.5025847 267.18889853 142.00425632 269.37590607 137.50512695 271.5612793 C135.97949322 272.30264119 134.45409614 273.04449033 132.92895508 273.78686523 C131.44826553 274.50752904 129.96694723 275.22690252 128.48498535 275.94494629 C127.02062002 276.6575981 125.55942283 277.37679605 124.10144043 278.10241699 C121.01371086 279.62537702 118.09040244 280.97130081 114.80078125 282.015625 C107.94726087 284.23294042 105.33880835 287.81872416 102.1015625 293.9765625 C100.93758657 296.3513747 99.82503067 298.74093067 98.7421875 301.15380859 C97.62576034 303.62331815 96.43976337 306.0494585 95.2421875 308.48046875 C94.50339542 310.0604421 93.76887107 311.64241953 93.0390625 313.2265625 C92.68623199 313.94155914 92.33340149 314.65655579 91.96987915 315.39321899 C89.14561173 321.9085288 90.71544809 326.503421 93 333 C93.62260752 334.96298497 94.2434113 336.92654281 94.86254883 338.890625 C95.55792143 341.01133294 96.25622146 343.13108262 96.95703125 345.25 C97.33691193 346.40622864 97.7167926 347.56245728 98.10818481 348.75372314 C99.12960932 351.86137824 100.15337074 354.96825162 101.17802048 358.07484436 C102.24612626 361.315721 103.31063537 364.55777796 104.37524414 367.79980469 C105.88282539 372.39015632 107.39097192 376.98032083 108.90026379 381.57011032 C112.29418926 391.89124065 115.68153396 402.21450065 119.05307007 412.54296875 C119.63408036 414.32130409 120.21610083 416.09930976 120.79922485 417.87695312 C124.07573071 427.86541507 127.20856847 437.86394246 130 448 C122.86372711 447.44692797 116.01431349 446.29961657 109.03125 444.75 C108.02912476 444.53182617 107.02699951 444.31365234 105.99450684 444.08886719 C103.89647117 443.63091741 101.79902232 443.17027152 99.70214844 442.70703125 C96.48250083 441.9961362 93.26097658 441.29429372 90.0390625 440.59375 C87.99467676 440.14635811 85.95040176 439.69845975 83.90625 439.25 C82.94174927 439.03956055 81.97724854 438.82912109 80.98352051 438.61230469 C79.65073059 438.31694824 79.65073059 438.31694824 78.29101562 438.015625 C77.50843384 437.84321289 76.72585205 437.67080078 75.91955566 437.49316406 C74 437 74 437 72 436 C71.75918701 436.56750977 71.51837402 437.13501953 71.27026367 437.71972656 C69.74374592 440.46000636 67.91799033 442.29039291 65.67578125 444.484375 C64.81146484 445.33773438 63.94714844 446.19109375 63.05664062 447.0703125 C62.15107422 447.95460938 61.24550781 448.83890625 60.3125 449.75 C54.85946966 455.09595265 49.49990669 460.42955356 44.53051758 466.23144531 C42.34409537 468.75791564 40.04111708 471.12808107 37.6875 473.5 C36.84574219 474.3559375 36.00398437 475.211875 35.13671875 476.09375 C33 478 33 478 31 478 C23.15121334 454.61575352 15.43553198 431.18829351 7.75 407.75 C7.50915806 407.01551636 7.26831612 406.28103271 7.02017593 405.52429199 C4.01201323 396.34999885 1.00532756 387.17522229 -2 378 C-3.89399265 380.84098898 -4.80621939 383.04985841 -5.87255859 386.26123047 C-6.23447296 387.34401276 -6.59638733 388.42679504 -6.9692688 389.54238892 C-7.35839447 390.72207245 -7.74752014 391.90175598 -8.1484375 393.1171875 C-8.55762421 394.34625824 -8.96681091 395.57532898 -9.38839722 396.84164429 C-10.49444777 400.16479824 -11.59472674 403.48983625 -12.69374084 406.81532288 C-13.59971395 409.55438636 -14.50901307 412.29234061 -15.41830444 415.03030396 C-22.37764975 435.98802821 -29.25407503 456.97254024 -36 478 C-40 478 -40 478 -41.9375 476.0859375 C-42.618125 475.19132812 -43.29875 474.29671875 -44 473.375 C-44.78375 472.37210937 -45.5675 471.36921875 -46.375 470.3359375 C-46.79652344 469.79420898 -47.21804687 469.25248047 -47.65234375 468.69433594 C-50.0156797 465.72304037 -52.5136383 462.86836337 -55 460 C-59.40254687 454.89579939 -63.70434332 449.72172584 -67.953125 444.48828125 C-70.88828783 440.92015392 -73.93294317 437.45460915 -77 434 C-89.62276336 437.01419011 -102.05747186 440.56867505 -114.5 444.25 C-116.40225612 444.81019349 -118.3045994 445.3700911 -120.20703125 445.9296875 C-124.80569622 447.28306034 -129.40317435 448.64039353 -134 450 C-135.45938307 446.14800283 -134.49996035 443.62652221 -133.22436523 439.80249023 C-133.02240949 439.1874337 -132.82045374 438.57237717 -132.61237812 437.93868256 C-131.93760212 435.89192078 -131.24811463 433.85043075 -130.55859375 431.80859375 C-130.07826454 430.36103402 -129.59889311 428.91315616 -129.12042236 427.46498108 C-127.83634597 423.58661926 -126.53987598 419.71250523 -125.24117661 415.83901978 C-123.90481515 411.8457488 -122.58021549 407.84858541 -121.25512695 403.8515625 C-119.66815884 399.06668925 -118.0803478 394.28210696 -116.48735046 389.49923706 C-112.16384553 376.51780156 -107.90732874 363.51553656 -103.6875 350.5 C-102.8565803 347.94093148 -102.02529224 345.38198305 -101.19378662 342.82310486 C-100.7200655 341.36494356 -100.24668 339.90667315 -99.77374268 338.44825745 C-98.84419408 335.58379437 -97.90526266 332.7636038 -96.78442383 329.96679688 C-93.74415622 318.46809411 -103.51041106 301.88683124 -108.96406555 291.93331909 C-115.15472441 281.61922643 -125.26470015 277.98223858 -136.32373047 274.33105469 C-143.44215659 271.75370981 -150.19932215 268.31148302 -157 265 C-156.90912109 263.84064941 -156.81824219 262.68129883 -156.72460938 261.48681641 C-156.3852712 257.14466463 -156.05103544 252.80213203 -155.71826172 248.45947266 C-155.57412437 246.58762183 -155.42864279 244.71587397 -155.28173828 242.84423828 C-155.06961724 240.1386128 -154.86249282 237.43264168 -154.65625 234.7265625 C-154.59062866 233.90322418 -154.52500732 233.07988586 -154.45739746 232.2315979 C-154.14261033 228.0383947 -153.91805795 223.84801589 -153.82348633 219.64379883 C-153.80425613 218.85016434 -153.78502594 218.05652985 -153.76521301 217.23884583 C-154.20187901 213.07495305 -156.64266066 210.24895829 -159.1875 207.0625 C-160.28291309 205.60150588 -161.37659606 204.13921333 -162.46875 202.67578125 C-163.04367188 201.91990723 -163.61859375 201.1640332 -164.2109375 200.38525391 C-167.31283355 196.2496747 -170.25127639 192.00400768 -173.1875 187.75 C-173.75170654 186.95215088 -174.31591309 186.15430176 -174.8972168 185.33227539 C-175.68092651 184.2010022 -175.68092651 184.2010022 -176.48046875 183.046875 C-176.94348389 182.38526367 -177.40649902 181.72365234 -177.88354492 181.04199219 C-179.20077031 178.63279184 -179.76361946 176.73746536 -180 174 C-179.21826172 172.17333984 -179.21826172 172.17333984 -177.9296875 170.4609375 C-177.21196167 169.47963867 -177.21196167 169.47963867 -176.47973633 168.47851562 C-175.95017334 167.78435547 -175.42061035 167.09019531 -174.875 166.375 C-173.77042994 164.87364909 -172.66763368 163.37099192 -171.56640625 161.8671875 C-170.9852002 161.08053711 -170.40399414 160.29388672 -169.80517578 159.48339844 C-166.70870594 155.22355381 -163.76647614 150.85928989 -160.8125 146.5 C-159.7158997 144.8846993 -158.61832921 143.27005656 -157.51953125 141.65625 C-157.05651611 140.97369141 -156.59350098 140.29113281 -156.11645508 139.58789062 C-155 138 -155 138 -154 137 C-153.59206139 130.43390011 -154.13454402 123.81918223 -154.65625 117.2734375 C-154.72283813 116.39974518 -154.78942627 115.52605286 -154.85803223 114.62588501 C-155.06847507 111.87530332 -155.2841401 109.12516131 -155.5 106.375 C-155.6448791 104.49351634 -155.78941339 102.61200609 -155.93359375 100.73046875 C-156.28508347 96.15332932 -156.64125241 91.57657606 -157 87 C-149.45068579 83.02970611 -142.08386586 79.17644806 -133.91015625 76.640625 C-120.55686781 72.18729948 -112.80657877 67.7508809 -106.34498596 55.04769897 C-103.05871345 48.1860747 -100.20693784 41.14030781 -97.5703125 34.0065918 C-96.00584901 29.84239957 -94.04354004 25.94913006 -92 22 C-90.15438477 22.13631836 -90.15438477 22.13631836 -88.27148438 22.27539062 C-83.67957409 22.61377535 -79.08739042 22.94831838 -74.49511719 23.28173828 C-72.51261938 23.42620788 -70.53019585 23.5717007 -68.54785156 23.71826172 C-65.68834333 23.92949172 -62.82858273 24.13696537 -59.96875 24.34375 C-58.65263733 24.44218201 -58.65263733 24.44218201 -57.30993652 24.54260254 C-46.49798819 25.8225712 -46.49798819 25.8225712 -37 21.6875 C-36.07316406 20.96046875 -35.14632812 20.2334375 -34.19140625 19.484375 C-33.68754395 19.08541016 -33.18368164 18.68644531 -32.66455078 18.27539062 C-29.51630251 15.86318045 -26.21801046 13.6645054 -22.9375 11.4375 C-17.55044399 7.77845116 -12.26442065 4.03603447 -7.11328125 0.046875 C-4.27687111 -1.35822282 -3.01777305 -0.85412842 0 0 Z M-8.11328125 25.74609375 C-8.95052734 26.33712891 -9.78777344 26.92816406 -10.65039062 27.53710938 C-11.52888672 28.16423828 -12.40738281 28.79136719 -13.3125 29.4375 C-15.92282635 31.28706817 -18.53299336 33.13209891 -21.17163086 34.94116211 C-24.07268813 36.97708364 -24.07268813 36.97708364 -26.78344727 39.51391602 C-34.57698029 46.07545101 -40.45984205 46.77973112 -50.5348053 46.00193787 C-53.46499861 45.72103707 -56.3875541 45.39322997 -59.3125 45.0625 C-61.32443965 44.87234568 -63.33681665 44.68676069 -65.34960938 44.50585938 C-70.23970877 44.05644358 -75.11973278 43.5455784 -80 43 C-80.7113208 44.51352051 -80.7113208 44.51352051 -81.43701172 46.05761719 C-83.19954093 49.80752292 -84.9627115 53.55712678 -86.72607422 57.30664062 C-87.48861864 58.92830331 -88.25099001 60.55004739 -89.01318359 62.171875 C-90.10989427 64.50542366 -91.20723061 66.83867721 -92.3046875 69.171875 C-92.6443454 69.89493835 -92.9840033 70.61800171 -93.33395386 71.36297607 C-94.21897998 73.24370878 -95.10921414 75.12198847 -96 77 C-96.2673999 77.74789795 -96.5347998 78.4957959 -96.81030273 79.26635742 C-98.74627482 82.08748153 -101.71009068 83.17244901 -104.73046875 84.56640625 C-105.39911453 84.88657211 -106.06776031 85.20673798 -106.75666809 85.53660583 C-108.89496599 86.55688727 -111.04097397 87.55966423 -113.1875 88.5625 C-114.6131546 89.24043479 -116.03829118 89.91946008 -117.46289062 90.59960938 C-123.59486667 93.51551313 -129.74606571 96.3537761 -136 99 C-135.83580566 100.19786133 -135.67161133 101.39572266 -135.50244141 102.62988281 C-130.46802363 140.97994428 -130.46802363 140.97994428 -137.34277344 151.52148438 C-139.79947828 154.55305563 -142.35494552 157.39262899 -145.15136719 160.11425781 C-148.00868444 163.02893273 -150.15484527 166.34160654 -152.375 169.75 C-153.08398438 170.77609375 -153.79296875 171.8021875 -154.5234375 172.859375 C-155.01070312 173.56578125 -155.49796875 174.2721875 -156 175 C-154.2439457 178.83484291 -151.91109857 182.26212834 -149.5625 185.75 C-148.99885742 186.59498047 -148.99885742 186.59498047 -148.42382812 187.45703125 C-147.8137793 188.36775391 -147.8137793 188.36775391 -147.19140625 189.296875 C-146.73757568 189.99876953 -146.28374512 190.70066406 -145.81616211 191.42382812 C-144.34378818 193.5123467 -142.83277806 195.38020567 -141.17016602 197.31054688 C-134.05521277 205.95445031 -131.89954445 212.33851733 -132.80793762 223.53424072 C-133.10236015 226.36236045 -133.45542468 229.17917753 -133.8125 232 C-134.01284792 233.94994495 -134.20754866 235.90047872 -134.39648438 237.8515625 C-134.86627648 242.57700835 -135.41131336 247.28795153 -136 252 C-127.1825519 256.7891685 -118.34929294 261.39365729 -109.1875 265.5 C-108.22263672 265.94085938 -107.25777344 266.38171875 -106.26367188 266.8359375 C-101.79989974 269.10575431 -101.79989974 269.10575431 -97 270 C-96.65066406 271.175625 -96.30132812 272.35125 -95.94140625 273.5625 C-93.80765028 279.95750321 -90.84601864 285.96381595 -87.90209961 292.01416016 C-86.92794457 294.01967194 -85.96650387 296.03095629 -85.00585938 298.04296875 C-84.38876786 299.32067356 -83.77095598 300.59803076 -83.15234375 301.875 C-82.59538818 303.02742188 -82.03843262 304.17984375 -81.46459961 305.3671875 C-80.26794605 308.10111974 -80.26794605 308.10111974 -78 309 C-75.3743892 308.86357543 -72.79022826 308.66216328 -70.17578125 308.40625 C-68.57357633 308.26162324 -66.97136249 308.11709518 -65.36914062 307.97265625 C-62.84553228 307.73809558 -60.3221985 307.50092133 -57.79907227 307.26123047 C-55.36271758 307.03188707 -52.92561374 306.81241978 -50.48828125 306.59375 C-49.7432283 306.51983032 -48.99817535 306.44591064 -48.23054504 306.36975098 C-41.45179993 305.76795676 -35.75966061 305.84966703 -30.25 310.25 C-29.32574219 310.95640625 -28.40148437 311.6628125 -27.44921875 312.390625 C-26.92118652 312.79474609 -26.3931543 313.19886719 -25.84912109 313.61523438 C-21.98839473 316.5064464 -18.02447712 319.25016885 -14.0625 322 C-12.81871582 322.88220215 -12.81871582 322.88220215 -11.54980469 323.78222656 C-10.7612207 324.3284668 -9.97263672 324.87470703 -9.16015625 325.4375 C-8.45511963 325.93121094 -7.75008301 326.42492187 -7.02368164 326.93359375 C-4.79145669 328.3107967 -4.79145669 328.3107967 -1 328 C1.52023997 326.47069945 3.86381815 324.90369993 6.25 323.1875 C7.32096924 322.45720581 7.32096924 322.45720581 8.41357422 321.7121582 C12.00864299 319.24227872 15.36877223 316.73240571 18.5546875 313.75 C26.16681766 306.99878436 31.93168766 305.41372822 42.18505859 305.91723633 C47.26608587 306.30696326 52.31979517 306.89429678 57.37255859 307.55273438 C62.90010364 308.23428388 68.44450805 308.62398983 74 309 C74.37286133 308.19369141 74.74572266 307.38738281 75.12988281 306.55664062 C76.53043769 303.5294947 77.93209526 300.50286429 79.33447266 297.4765625 C79.93809687 296.17337807 80.54129683 294.86999703 81.14404297 293.56640625 C82.01675328 291.67915211 82.89086527 289.79255501 83.765625 287.90625 C84.04764771 287.29700684 84.32967041 286.68776367 84.62023926 286.06005859 C86.15377433 282.76274417 87.746243 279.50839311 89.421875 276.28125 C91.21671425 273.15624391 91.21671425 273.15624391 91 270 C92.175625 269.65066406 93.35125 269.30132812 94.5625 268.94140625 C100.95750321 266.80765028 106.96381595 263.84601864 113.01416016 260.90209961 C115.01967194 259.92794457 117.03095629 258.96650387 119.04296875 258.00585938 C120.32067356 257.38876786 121.59803076 256.77095598 122.875 256.15234375 C124.02742188 255.59538818 125.17984375 255.03843262 126.3671875 254.46459961 C129.10111974 253.26794605 129.10111974 253.26794605 130 251 C129.74048834 248.11749961 129.41600367 245.26833504 129.0546875 242.3984375 C128.86107463 240.60975131 128.6710954 238.82066882 128.484375 237.03125 C128.19036431 234.21965106 127.88052838 231.41645552 127.50683594 228.61425781 C126.1282743 218.10789024 125.57117424 210.10368831 132.01953125 201.23828125 C133.50456357 199.32426821 135.0259613 197.46256059 136.60644531 195.62670898 C138.45304407 193.47115756 140.10833855 191.19464421 141.76953125 188.89453125 C143.31359619 186.81709719 144.86256485 184.74784038 146.44726562 182.70117188 C149.35643393 178.9837031 149.35643393 178.9837031 149.671875 174.51171875 C149.12015625 173.68285156 148.5684375 172.85398438 148 172 C147.61545654 171.41710205 147.23091309 170.8342041 146.8347168 170.23364258 C145.41066498 168.12340711 143.93182262 166.06100567 142.4375 164 C140.88831845 161.84301539 139.34611102 159.68555561 137.83911133 157.4987793 C135.99059335 154.89556566 135.99059335 154.89556566 133.55737305 152.32348633 C126.96216959 144.48916467 126.21565649 138.58981396 126.99833679 128.46560669 C127.27893569 125.53524359 127.60675435 122.61258463 127.9375 119.6875 C128.12765432 117.67556035 128.31323931 115.66318335 128.49414062 113.65039062 C128.94355642 108.76029123 129.4544216 103.88026722 130 99 C128.93265625 98.6275415 127.8653125 98.25508301 126.765625 97.87133789 C92.15035986 85.42621127 92.15035986 85.42621127 83.703125 68.17553711 C80.74636781 61.5729799 78.2667231 54.8685356 76 48 C75.34776202 46.32763406 74.68703752 44.6583732 74 43 C72.20320801 43.2462915 72.20320801 43.2462915 70.37011719 43.49755859 C32.01885732 48.53213369 32.01885732 48.53213369 21.47900391 41.65722656 C18.4454777 39.1994474 15.60088639 36.64599866 12.87695312 33.84863281 C9.9953045 31.0104638 6.73744548 28.84922925 3.375 26.625 C2.37210938 25.91601562 1.36921875 25.20703125 0.3359375 24.4765625 C-3.49287012 22.05634631 -4.66062627 23.2922919 -8.11328125 25.74609375 Z M20.94873047 336.49072266 C18.34109781 338.51031487 15.65471333 340.3807114 12.9375 342.25 C11.6244814 343.16592368 10.31188202 344.08244914 9 345 C11.56616115 355.13201474 14.86590506 365.01863612 18.12890625 374.94140625 C18.72524165 376.75933143 19.32150819 378.5772792 19.91770935 380.39524841 C21.16049608 384.18221288 22.40560351 387.96840537 23.65209961 391.75415039 C25.25088408 396.61119253 26.84146297 401.47088013 28.43008518 406.33125401 C29.65529302 410.07541859 30.88594071 413.8177781 32.1181469 417.5596447 C32.70740035 419.35200842 33.29467583 421.14502366 33.87994576 422.93869209 C34.69494449 425.43443558 35.5174988 427.92756207 36.34204102 430.42016602 C36.7028904 431.53359879 36.7028904 431.53359879 37.07102966 432.66952515 C38.40232104 436.70056849 38.40232104 436.70056849 41 440 C44.0997333 436.92501279 47.19614827 433.84673365 50.28955078 430.76538086 C51.34203287 429.71792294 52.39541135 428.6713649 53.44970703 427.62573242 C54.9662435 426.1213454 56.4795114 424.61373614 57.9921875 423.10546875 C58.90339355 422.19949951 59.81459961 421.29353027 60.75341797 420.36010742 C63.11308085 418.01660255 63.11308085 418.01660255 65 415 C66.11072876 415.21934204 66.11072876 415.21934204 67.24389648 415.44311523 C70.641027 416.11172059 74.03924239 416.77464803 77.4375 417.4375 C78.60216797 417.66759766 79.76683594 417.89769531 80.96679688 418.13476562 C87.30664702 419.36701819 93.56851338 420.40156221 100 421 C93.16127435 398.86431099 86.03675738 376.82485871 78.8125 354.8125 C78.59471767 354.14890724 78.37693535 353.48531448 78.15255356 352.80161285 C75.43861434 344.53323142 72.72101404 336.26605593 70 328 C69.04991814 327.91599442 69.04991814 327.91599442 68.0806427 327.83029175 C65.18512752 327.57335883 62.2898304 327.31404305 59.39453125 327.0546875 C58.39812622 326.96662842 57.40172119 326.87856934 56.37512207 326.7878418 C51.45596367 326.34555575 46.57883413 325.81651453 41.6875 325.125 C33.60751874 325.23023854 27.01652338 331.73997007 20.94873047 336.49072266 Z M-55.94287109 326.20703125 C-58.86227895 326.43558665 -61.77364072 326.70959517 -64.6875 327 C-65.68716797 327.09539062 -66.68683594 327.19078125 -67.71679688 327.2890625 C-70.14501674 327.52142804 -72.57267899 327.75845635 -75 328 C-85.15954957 358.28105124 -95.08729867 388.63739483 -105 419 C-101.91035415 420.54482293 -99.27158182 419.09328184 -96.12890625 418.12890625 C-95.45077377 417.9277269 -94.7726413 417.72654755 -94.07395935 417.51927185 C-91.90135565 416.87387335 -89.73180776 416.21888419 -87.5625 415.5625 C-85.39646556 414.91079195 -83.22985807 414.26122483 -81.06175232 413.61643982 C-79.71155654 413.21454375 -78.3625926 412.80848082 -77.01502991 412.39784241 C-74.22290927 411.56372588 -71.93407884 411 -69 411 C-67.16015625 412.9140625 -67.16015625 412.9140625 -65.0625 415.625 C-64.27746094 416.61757813 -63.49242187 417.61015625 -62.68359375 418.6328125 C-62.04333252 419.44347168 -62.04333252 419.44347168 -61.39013672 420.27050781 C-58.87050096 423.40522852 -56.24597659 426.44997668 -53.625 429.5 C-53.11332275 430.09893066 -52.60164551 430.69786133 -52.07446289 431.31494141 C-49.79640782 433.96946273 -47.49432122 436.5484802 -45 439 C-42.70466038 433.85311944 -40.82277244 428.67996914 -39.1015625 423.31640625 C-38.82992783 422.47952774 -38.55829315 421.64264923 -38.27842712 420.78041077 C-37.39052016 418.04220392 -36.50741748 415.30248044 -35.625 412.5625 C-34.3771221 408.6963495 -33.12806879 404.83057933 -31.87890625 400.96484375 C-31.56092575 399.9795166 -31.24294525 398.99418945 -30.91532898 397.97900391 C-29.00433824 392.06777201 -27.06572369 386.16660718 -25.09814453 380.27397156 C-23.87225055 376.6025591 -22.65467242 372.92841127 -21.43743896 369.25411987 C-20.85631503 367.50789007 -20.27109681 365.76301722 -19.68170166 364.01956177 C-18.86164215 361.59200223 -18.05627616 359.16001569 -17.25390625 356.7265625 C-17.00881821 356.01387711 -16.76373016 355.30119171 -16.51121521 354.56690979 C-15.25855369 350.71475114 -14.45632492 347.83487618 -16 344 C-17.7322177 342.22702712 -17.7322177 342.22702712 -20.0078125 340.84375 C-20.83023438 340.29589844 -21.65265625 339.74804688 -22.5 339.18359375 C-23.36625 338.62800781 -24.2325 338.07242187 -25.125 337.5 C-26.81545736 336.38595241 -28.50556703 335.27137706 -30.1953125 334.15625 C-31.02192383 333.62644531 -31.84853516 333.09664063 -32.70019531 332.55078125 C-35 331 -35 331 -36.79199219 329.48046875 C-42.69046764 324.48593378 -48.6191945 325.69180993 -55.94287109 326.20703125 Z " fill="#FFFFFF" transform="translate(259,17)"/>
<path d="M0 0 C1.79555216 1.55524518 3.56507951 3.14086459 5.3125 4.75 C6.09536377 5.46929687 6.09536377 5.46929687 6.89404297 6.203125 C14.92961231 13.67061801 21.56680425 21.35589669 27.3125 30.75 C27.66151367 31.31912109 28.01052734 31.88824219 28.37011719 32.47460938 C43.256257 57.19794941 47.8520996 88.83603681 41.4140625 116.96484375 C32.34745038 148.11926625 14.19594689 175.00503204 -14.60546875 190.97265625 C-42.93927419 206.02110123 -75.085943 209.27916386 -105.86523438 200.10058594 C-134.00129928 191.19299304 -158.22849559 170.86085778 -171.97290039 144.78027344 C-186.25292144 116.55287742 -189.44692614 84.67647241 -179.73779297 54.36694336 C-169.50687396 24.14476799 -147.86509778 0.85360623 -119.5078125 -13.46484375 C-113.43904701 -16.38770247 -107.17463354 -18.43772142 -100.6875 -20.25 C-99.62402344 -20.5696875 -98.56054688 -20.889375 -97.46484375 -21.21875 C-64.25022007 -29.60981282 -26.75258639 -21.16133466 0 0 Z M-140.6875 26.75 C-156.48469272 44.56885727 -165.13294967 66.70670476 -165 90.5625 C-164.99508545 91.61348877 -164.9901709 92.66447754 -164.98510742 93.74731445 C-164.65239932 115.87837471 -155.99912868 135.98916477 -141.6875 152.75 C-141.05328125 153.57757813 -140.4190625 154.40515625 -139.765625 155.2578125 C-126.08174156 171.66818399 -102.61624901 182.4561392 -81.6875 184.75 C-54.17903047 186.190812 -29.99301252 179.94220699 -8.6875 161.75 C-7.85992187 161.11578125 -7.03234375 160.4815625 -6.1796875 159.828125 C9.93859537 146.38780135 20.72991608 123.28885137 23.3125 102.75 C25.03766039 72.89422429 18.25576458 48.85178835 -1.4375 26.0625 C-16.48655946 10.13364937 -38.26870583 -2.02160581 -60.4855957 -3.42700195 C-92.36572443 -4.10587803 -117.89078212 3.206961 -140.6875 26.75 Z " fill="#FFFFFF" transform="translate(326.6875,102.25)"/>
<path d="M0 0 C4.95 0 9.9 0 15 0 C15 6.27 15 12.54 15 19 C16.44375 19.226875 17.8875 19.45375 19.375 19.6875 C29.0398001 21.6668729 36.98826642 26.06451168 43 34 C45.6628912 38.78260558 47.81135812 43.64485553 49 49 C46.00476403 50.34426712 43.00383761 51.67507499 40 53 C39.071875 53.4125 38.14375 53.825 37.1875 54.25 C35 55 35 55 31 55 C30.62875 53.824375 30.2575 52.64875 29.875 51.4375 C27.04802649 43.95199268 23.12967198 40.56483599 16 37 C15.67 48.55 15.34 60.1 15 72 C18.3 72.66 21.6 73.32 25 74 C34.02940308 77.39522374 41.42946176 82.17290473 46.3125 90.625 C50.14374607 99.1831081 51.25150651 109.13748668 48 118 C42.98093709 128.89103846 35.92026306 134.65262673 24.9296875 139.0546875 C22 140 22 140 16 141 C15.67 146.94 15.34 152.88 15 159 C10.05 159 5.1 159 0 159 C0 153.06 0 147.12 0 141 C-2.10375 140.62875 -4.2075 140.2575 -6.375 139.875 C-13.24704655 138.40887076 -18.31915648 136.06240053 -24 132 C-24.9075 131.401875 -25.815 130.80375 -26.75 130.1875 C-32.9035389 124.20489274 -38.78311125 114.97278259 -39.1015625 106.203125 C-39.06804687 105.47609375 -39.03453125 104.7490625 -39 104 C-36.56427941 103.16112944 -34.12666783 102.32873471 -31.6875 101.5 C-30.99720703 101.26152344 -30.30691406 101.02304688 -29.59570312 100.77734375 C-26.61068511 99.76791737 -24.17341086 99 -21 99 C-20.75765625 99.79664063 -20.5153125 100.59328125 -20.265625 101.4140625 C-17.47335042 110.24194598 -15.09466154 116.13427653 -7 121.01953125 C-4.74312187 122.21245079 -4.74312187 122.21245079 -1 123 C-0.67 111.12 -0.34 99.24 0 87 C-2.64 86.67 -5.28 86.34 -8 86 C-16.68726128 83.53776752 -25.06936834 78.74813546 -30 71 C-34.63486127 62.58322067 -35.64723369 53.4744212 -33.26953125 44.12890625 C-32.33699666 41.62819104 -31.27642366 39.34221636 -30 37 C-29.66097656 36.36578125 -29.32195312 35.7315625 -28.97265625 35.078125 C-23.57406142 26.39426428 -13.63048376 21.47684966 -4 19 C-2.68 19 -1.36 19 0 19 C0 12.73 0 6.46 0 0 Z M-11 41 C-14.66183775 45.08786873 -15.670297 49.37611447 -15.375 54.79296875 C-14.74659341 58.49140335 -13.57469947 61.24699724 -11 64 C-7.43278898 66.42599059 -4.3464883 68 0 68 C0 57.44 0 46.88 0 36 C-4.55665959 36 -7.49390097 38.21346254 -11 41 Z M15 91 C15 101.89 15 112.78 15 124 C22.70864532 122.00376665 22.70864532 122.00376665 27.5 117.5 C27.9640625 116.9121875 28.428125 116.324375 28.90625 115.71875 C31.33845133 111.89671934 31.29902643 108.41063988 31 104 C28.84072233 98.00200648 25.1968238 94.91809428 19.8125 91.6875 C17.85558587 90.82267288 17.85558587 90.82267288 15 91 Z " fill="#FFFFFF" transform="translate(250,117)"/>
</svg>
