<?xml version="1.0" encoding="UTF-8"?>
<svg version="1.1" xmlns="http://www.w3.org/2000/svg" width="512" height="512">
<path d="M0 0 C1.72409796 -0.00417597 3.44819316 -0.00965493 5.17228329 -0.01631981 C9.89662527 -0.03075865 14.62079256 -0.02653456 19.34514403 -0.019153 C24.445465 -0.01441977 29.54574827 -0.02693257 34.64605713 -0.03717041 C44.63286601 -0.05436076 54.61961199 -0.05519791 64.60643183 -0.04995751 C72.72445556 -0.04591497 80.84246071 -0.04736036 88.96048355 -0.05270576 C90.11618919 -0.05345419 91.27189483 -0.05420261 92.46262185 -0.05497371 C94.810491 -0.0565052 97.15836015 -0.05804355 99.5062293 -0.05958868 C121.52094934 -0.07331461 143.53563384 -0.0678754 165.55035307 -0.05640347 C185.68561494 -0.04647128 205.82078492 -0.05941137 225.95603262 -0.08333766 C246.63673717 -0.10772674 267.31739892 -0.11733697 287.99811757 -0.11068493 C299.60643697 -0.10719226 311.2146857 -0.10942801 322.82299423 -0.12693596 C332.70500696 -0.14165552 342.58689925 -0.14229654 352.46890961 -0.12486505 C357.50927356 -0.11635067 362.54942233 -0.11421632 367.58977509 -0.1295166 C372.20755447 -0.14336043 376.82493426 -0.13860435 381.44269051 -0.11927737 C383.10949599 -0.11551613 384.77633346 -0.1184429 386.44311045 -0.12888902 C399.05811278 -0.20230277 410.70761992 1.0918986 420.12283325 10.38768005 C428.18266362 19.90703704 430.7563663 28.24802734 430.4704895 40.6650238 C429.44570557 51.63827196 424.28476196 60.02791751 416.06033325 67.13768005 C405.49645357 74.69325002 393.48107796 74.96995619 381.00588989 74.89561462 C379.30451202 74.90023183 377.60313814 74.90659022 375.9017725 74.9145236 C371.25868344 74.93112755 366.61592582 74.92301148 361.97283602 74.91057873 C356.95297857 74.90149376 351.93317639 74.915515 346.91333008 74.92649841 C337.09214695 74.94425153 327.27108634 74.94045795 317.44989848 74.92884785 C309.46546981 74.91980117 301.48107539 74.91859487 293.49664307 74.92294312 C292.358709 74.92355605 291.22077494 74.92416898 290.04835802 74.92480049 C287.73640846 74.92607943 285.42445891 74.92737629 283.11250937 74.92869085 C261.45155148 74.94008725 239.79066138 74.92699768 218.12971461 74.90548939 C199.55805094 74.88761928 180.9864873 74.89072365 162.41482544 74.90916443 C140.8294825 74.93058773 119.24419894 74.93898871 97.65884686 74.92671537 C95.35557239 74.92544123 93.05229792 74.92418374 90.74902344 74.92294312 C89.61587411 74.92232601 88.48272477 74.92170891 87.31523758 74.92107311 C79.34370911 74.91762459 71.37221842 74.92343781 63.4006958 74.93286133 C53.68132444 74.94409889 43.96208224 74.94100428 34.24272561 74.91973835 C29.28715042 74.90925164 24.33179031 74.90506547 19.37621689 74.91833496 C14.83373382 74.93031405 10.29166382 74.92360596 5.74921787 74.90242475 C4.11210881 74.89798196 2.47496436 74.90017226 0.83787835 74.9099279 C-12.95877028 74.98579322 -25.62614965 73.51419087 -35.87716675 63.38768005 C-43.02177098 55.82657423 -46.0624027 47.22243293 -46.37716675 36.88768005 C-46.06712652 26.70802606 -43.12772413 17.73139235 -35.87716675 10.38768005 C-24.65411702 0.88537049 -14.05918192 -0.05538092 0 0 Z " fill="#FFFFFF" transform="translate(63.877166748046875,72.61231994628906)"/>
<path d="M0 0 C1.70137787 -0.0046172 3.40275175 -0.01097559 5.10411739 -0.01890898 C9.74720645 -0.03551293 14.38996407 -0.02739686 19.03305387 -0.0149641 C24.05291133 -0.00587914 29.0727135 -0.01990038 34.09255981 -0.03088379 C43.91374295 -0.0486369 53.73480355 -0.04484333 63.55599141 -0.03323323 C71.54042008 -0.02418654 79.5248145 -0.02298025 87.50924683 -0.02732849 C88.64718089 -0.02794142 89.78511495 -0.02855436 90.95753187 -0.02918586 C93.26948143 -0.03046481 95.58143098 -0.03176166 97.89338052 -0.03307623 C119.55433842 -0.04447263 141.21522851 -0.03138306 162.87617528 -0.00987476 C181.44783895 0.00799535 200.01940259 0.00489098 218.59106445 -0.0135498 C240.17640739 -0.0349731 261.76169095 -0.04337408 283.34704304 -0.03110075 C285.6503175 -0.0298266 287.95359197 -0.02856912 290.25686646 -0.02732849 C291.95659045 -0.02640284 291.95659045 -0.02640284 293.69065231 -0.02545848 C301.66218078 -0.02200997 309.63367147 -0.02782318 317.60519409 -0.0372467 C327.32456545 -0.04848427 337.04380765 -0.04538966 346.76316428 -0.02412373 C351.71873947 -0.01363702 356.67409958 -0.00945085 361.629673 -0.02272034 C366.17215607 -0.03469942 370.71422607 -0.02799133 375.25667202 -0.00681013 C376.89378108 -0.00236734 378.53092553 -0.00455763 380.16801155 -0.01431328 C393.96466018 -0.0901786 406.63203954 1.38142376 416.88305664 11.50793457 C424.02766087 19.0690404 427.06829259 27.67318169 427.38305664 38.00793457 C427.07301642 48.18758857 424.13361402 57.16422228 416.88305664 64.50793457 C405.66000692 74.01024413 395.06507181 74.95099555 381.00588989 74.89561462 C379.28179194 74.89979059 377.55769673 74.90526955 375.8336066 74.91193444 C371.10926462 74.92637327 366.38509734 74.92214918 361.66074586 74.91476762 C356.56042489 74.9100344 351.46014162 74.92254719 346.35983276 74.93278503 C336.37302388 74.94997538 326.3862779 74.95081253 316.39945807 74.94557213 C308.28143433 74.9415296 300.16342919 74.94297499 292.04540634 74.94832039 C290.8897007 74.94906881 289.73399507 74.94981723 288.54326805 74.95058833 C286.19539889 74.95211982 283.84752974 74.95365817 281.4996606 74.9552033 C259.48494056 74.96892923 237.47025606 74.96349002 215.45553683 74.95201809 C195.32027495 74.9420859 175.18510497 74.95502599 155.04985727 74.97895228 C134.36915272 75.00334136 113.68849097 75.0129516 93.00777233 75.00629956 C81.39945292 75.00280688 69.79120419 75.00504263 58.18289566 75.02255058 C48.30088293 75.03727014 38.41899065 75.03791116 28.53698029 75.02047967 C23.49661633 75.0119653 18.45646756 75.00983094 13.41611481 75.02513123 C8.79833543 75.03897506 4.18095563 75.03421897 -0.43680061 75.01489199 C-2.1036061 75.01113075 -3.77044357 75.01405752 -5.43722056 75.02450364 C-18.05222289 75.09791739 -29.70173002 73.80371602 -39.11694336 64.50793457 C-47.17677372 54.98857758 -49.7504764 46.64758728 -49.46459961 34.23059082 C-48.43981568 23.25734267 -43.27887206 14.86769711 -35.05444336 7.75793457 C-24.49056367 0.20236461 -12.47518807 -0.07434156 0 0 Z " fill="#FFFFFF" transform="translate(67.116943359375,364.4920654296875)"/>
<path d="M0 0 C1.71584837 -0.00417601 3.43169398 -0.009655 5.14753449 -0.01631981 C9.84907359 -0.03075806 14.55043715 -0.02653474 19.25198579 -0.019153 C24.32776673 -0.01441962 29.40350979 -0.0269327 34.47927856 -0.03717041 C44.4179606 -0.05436047 54.35657941 -0.05519797 64.29527245 -0.04995751 C72.37420392 -0.04591492 80.4531167 -0.04736043 88.53204727 -0.05270576 C89.68220219 -0.05345419 90.8323571 -0.05420261 92.01736519 -0.05497371 C94.35396035 -0.0565052 96.6905555 -0.05804355 99.02715065 -0.05958868 C120.9360005 -0.07331451 142.84481464 -0.06787547 164.75366367 -0.05640347 C184.79192782 -0.0464713 204.83009963 -0.05941136 224.86834954 -0.08333766 C245.44961304 -0.10772696 266.03083354 -0.11733692 286.61211121 -0.11068493 C298.16453939 -0.1071923 309.71689656 -0.10942768 321.26931381 -0.12693596 C331.10374959 -0.1416558 340.93806435 -0.14229617 350.77249776 -0.12486505 C355.78855888 -0.1163509 360.80440378 -0.11421575 365.82045364 -0.1295166 C370.41602862 -0.14336112 375.0112021 -0.13860347 379.60675384 -0.11927737 C381.265484 -0.11551634 382.92424631 -0.11844229 384.58294784 -0.12888902 C398.70215635 -0.21146092 409.24981514 2.13853329 419.84719849 11.9072113 C426.51213959 18.859726 429.4803749 27.42911043 429.76126099 36.95018005 C429.29985486 49.14626634 424.77117975 58.39033648 415.88626099 66.63768005 C408.86784795 72.3615858 401.14035395 74.50922981 392.24046993 74.52190113 C391.53678666 74.52425336 390.8331034 74.52660559 390.10809639 74.5290291 C387.73831369 74.53571262 385.36858589 74.53526107 382.99879456 74.53485107 C381.28726415 74.53815011 379.57573453 74.54187576 377.8642059 74.54599255 C373.15142417 74.55601627 368.43865517 74.55972995 363.72586429 74.56238186 C358.64659831 74.56628383 353.56734243 74.57586226 348.48808289 74.58459473 C336.21669602 74.60436245 323.94530832 74.61442586 311.67390952 74.62332252 C305.89589277 74.62770502 300.11787694 74.63307193 294.33986092 74.63831139 C275.13363428 74.65532417 255.92740821 74.66981843 236.72117519 74.67706013 C231.73640886 74.67897004 226.75164253 74.68089037 221.76687622 74.68284607 C219.90845373 74.68357168 219.90845373 74.68357168 218.01248736 74.68431195 C197.94157969 74.69261254 177.87073162 74.71794976 157.79984998 74.75042675 C137.19615293 74.78349423 116.59248617 74.80150862 95.98876244 74.80470437 C84.4194822 74.80686978 72.85028886 74.81562299 61.28103447 74.84116554 C51.42819078 74.86286827 41.57545509 74.87092504 31.7225902 74.86119876 C26.69642886 74.85665282 21.67049039 74.85855752 16.64435959 74.87796021 C12.03934739 74.8955835 7.43472078 74.89460084 2.82970453 74.87906291 C1.16745434 74.87668558 -0.49482249 74.88101689 -2.15703196 74.89289156 C-16.29052952 74.98757213 -26.84083103 72.64739262 -37.44967651 62.8681488 C-44.7547467 55.24788523 -47.56154808 45.71461974 -47.39279175 35.32933044 C-46.82870932 24.99360476 -42.46596104 16.26746067 -34.80123901 9.38768005 C-23.93599725 0.65170728 -13.35634129 -0.05287079 0 0 Z " fill="#FFFFFF" transform="translate(64.80123901367188,218.61231994628906)"/>
</svg>
