<?xml version="1.0" encoding="UTF-8"?>
<svg version="1.1" xmlns="http://www.w3.org/2000/svg" width="512" height="512">
<path d="M0 0 C0.96838303 -0.00960754 1.93676605 -0.01921509 2.93449402 -0.02911377 C3.97100601 -0.03336365 5.00751801 -0.03761353 6.07543945 -0.04199219 C7.15445023 -0.04769226 8.233461 -0.05339233 9.34516907 -0.05926514 C11.6272382 -0.06870015 13.90932087 -0.07524316 16.19140625 -0.07910156 C19.65885617 -0.0887838 23.12570722 -0.11981257 26.59301758 -0.15136719 C28.81632137 -0.15790027 31.03962938 -0.16314954 33.26293945 -0.16699219 C34.80252571 -0.18551239 34.80252571 -0.18551239 36.37321472 -0.20440674 C47.92095816 -0.16919246 57.15901355 2.94371518 65.75512695 10.75488281 C71.15631139 16.49448733 73.23540362 23.44704971 75.3684082 30.88769531 C75.61719727 31.73299805 75.86598633 32.57830078 76.12231445 33.44921875 C76.61711711 35.14705845 77.09181451 36.85091352 77.54418945 38.56054688 C78.7212551 42.60958695 79.58684931 44.76597865 82.6965332 47.73144531 C90.21541264 50.98429386 97.12038798 48.56110843 104.6887207 46.59863281 C117.23408852 43.5916942 126.40393297 43.21152977 138.1496582 49.20019531 C146.6488122 55.04481902 151.23501533 62.94510221 156.31738281 71.7019043 C157.55433365 73.83246428 158.80650301 75.95343105 160.06176758 78.07324219 C176.70148309 106.31784315 176.70148309 106.31784315 172.9387207 121.16113281 C170.50165664 128.38370448 165.89478649 133.35471 160.5012207 138.59082031 C159.56306519 139.50492676 159.56306519 139.50492676 158.60595703 140.4375 C157.35099896 141.64755253 156.08294406 142.84420249 154.80078125 144.02539062 C150.91227754 147.73600976 148.63749119 150.60479053 148.0012207 156.16113281 C149.7668836 161.90141558 154.05819182 165.41246965 158.3137207 169.41113281 C166.9271775 177.7673032 173.86579742 186.05096369 174.2512207 198.59863281 C173.83207279 212.40722801 165.14632829 223.83654347 158.29760742 235.36889648 C157.51525194 236.69113921 156.73791548 238.01636424 155.96557617 239.34448242 C144.81224889 258.51529444 144.81224889 258.51529444 134.8137207 263.09863281 C134.01579102 263.47890625 133.21786133 263.85917969 132.39575195 264.25097656 C121.86848542 268.25236824 111.59925196 265.63470739 101.12426758 262.85058594 C95.26534594 261.39099493 89.89630631 260.34686044 84.0012207 262.16113281 C78.16601925 265.9712232 77.23088715 272.02641264 75.5637207 278.41113281 C72.5114662 290.09260066 68.02181736 299.01466078 58.0012207 306.16113281 C52.57049735 309.21310958 47.02145287 310.26882627 40.85058594 310.33813477 C39.84861679 310.35097 38.84664764 310.36380524 37.8143158 310.37702942 C36.20333763 310.38810982 36.20333763 310.38810982 34.55981445 310.39941406 C33.44115494 310.40748581 32.32249542 310.41555756 31.16993713 310.4238739 C28.80210915 310.43769084 26.43426145 310.44842366 24.06640625 310.45629883 C21.66042184 310.46779522 19.25446245 310.48820954 16.84863281 310.51782227 C13.3563519 310.56078277 9.86482781 310.57670948 6.37231445 310.58691406 C5.31249863 310.60442215 4.2526828 310.62193024 3.16075134 310.63996887 C-8.25255759 310.60736214 -17.70672771 307.71085616 -25.88549805 299.61035156 C-32.18665402 292.30753309 -34.31446941 283.37202044 -36.68139648 274.20483398 C-38.10598664 268.99523437 -39.34469323 265.32919955 -43.9987793 262.16113281 C-50.82913925 260.03937972 -57.23095919 261.81644156 -63.9362793 263.59863281 C-75.97879883 266.76241669 -86.13397079 267.58670748 -97.53393555 261.89550781 C-104.5916307 257.57580568 -108.40247519 251.68916831 -112.48461914 244.70458984 C-113.98900469 242.17755202 -115.53765493 239.68106756 -117.10014343 237.18962097 C-118.64477179 234.72558331 -120.17832031 232.25474264 -121.71066284 229.78305054 C-122.47789909 228.54826177 -123.24812233 227.3153233 -124.02151489 226.0843811 C-130.30545246 216.05511796 -135.62815354 206.34440844 -133.9987793 194.16113281 C-131.70076887 184.50401758 -126.75421836 177.76685694 -119.7253418 170.95800781 C-119.14389404 170.39259277 -118.56244629 169.82717773 -117.96337891 169.24462891 C-116.80317742 168.12921607 -115.62990698 167.02719585 -114.44238281 165.94091797 C-110.67378361 162.35904865 -108.65465862 159.51647773 -107.9987793 154.16113281 C-110.01379534 147.42955267 -116.0328102 143.00072145 -121.01831055 138.34667969 C-128.8210679 130.84179296 -133.83522457 122.44281827 -134.3737793 111.41113281 C-133.99973655 100.64890273 -128.21001848 91.49603166 -122.81835938 82.49047852 C-121.68913546 80.60340582 -120.5743892 78.70836552 -119.46166992 76.81152344 C-103.24385405 49.32336559 -103.24385405 49.32336559 -88.9987793 45.16113281 C-79.47993789 42.90594219 -71.14747938 44.92168439 -61.86523438 47.33081055 C-55.14009874 49.05885944 -49.52200039 50.44385894 -42.7800293 47.98925781 C-38.33841385 43.47278368 -37.22900922 37.90039022 -35.4987793 31.91113281 C-31.91250878 19.65475775 -28.08852315 11.03849334 -16.9987793 4.16113281 C-11.51309059 1.25961151 -6.17635751 0.04979127 0 0 Z M-11.1628418 26.67285156 C-14.03401589 32.12808234 -15.5191694 37.92649219 -17.1784668 43.84277344 C-20.15521185 53.85483493 -24.77074104 61.83923275 -33.9987793 67.16113281 C-45.75553399 73.16458202 -58.57182606 70.19552656 -70.62670898 66.85253906 C-75.7467682 65.47636611 -79.76862301 64.60656169 -84.9987793 66.16113281 C-89.85903418 69.67394191 -92.67814307 73.27341405 -95.63549805 78.43847656 C-96.04161819 79.12744522 -96.44773834 79.81641388 -96.86616516 80.52626038 C-98.15022371 82.71099496 -99.41816698 84.90461254 -100.6862793 87.09863281 C-101.54791355 88.56731652 -102.41053543 90.03542129 -103.27416992 91.50292969 C-109.91499117 101.47894964 -109.91499117 101.47894964 -113.1237793 112.53613281 C-111.18449018 118.78495331 -106.62348333 122.6000296 -102.0065918 127.05566406 C-92.74941239 136.01702333 -87.81957976 142.91106815 -86.9987793 156.16113281 C-87.65117813 168.72399241 -94.47308135 176.48944689 -102.9987793 185.16113281 C-104.27354915 186.26429903 -105.56334933 187.35057297 -106.8737793 188.41113281 C-109.97191241 190.98330379 -111.72221667 193.25165976 -112.9987793 197.16113281 C-112.66688391 202.95549133 -110.89977631 206.77339521 -107.95581055 211.59863281 C-107.54973068 212.2823999 -107.14365082 212.96616699 -106.7252655 213.6706543 C-105.86748996 215.10928774 -105.00404283 216.54455312 -104.13525391 217.9765625 C-102.8197597 220.14714007 -101.52423773 222.32868151 -100.23120117 224.51269531 C-99.39056575 225.91703704 -98.54880457 227.32070563 -97.70581055 228.72363281 C-97.32431351 229.36550537 -96.94281647 230.00737793 -96.54975891 230.66870117 C-91.2195323 239.44349594 -91.2195323 239.44349594 -82.9987793 245.16113281 C-77.52736183 245.48488533 -72.09942393 243.97975699 -66.83203125 242.65380859 C-53.67788705 239.34673022 -43.01270997 238.60747975 -30.74487305 245.41113281 C-20.50248261 252.25234996 -17.59260874 263.729837 -14.72143555 275.03417969 C-12.98723521 281.31961869 -11.59799486 284.64688831 -5.9987793 288.16113281 C-3.19131847 289.09695309 -1.43816253 289.29721377 1.46923828 289.32226562 C2.82128105 289.33667694 2.82128105 289.33667694 4.20063782 289.35137939 C5.17252548 289.35562927 6.14441315 289.35987915 7.14575195 289.36425781 C8.14829514 289.36995789 9.15083832 289.37565796 10.1837616 289.38153076 C12.30625351 289.39097942 14.42876008 289.39751421 16.55126953 289.40136719 C19.79070797 289.41106393 23.02950954 289.44208529 26.26879883 289.47363281 C28.33194611 289.48016395 30.39509792 289.48541398 32.45825195 289.48925781 C33.90697441 289.50777802 33.90697441 289.50777802 35.38496399 289.52667236 C40.67972867 289.50922639 44.44412044 289.17269182 49.0012207 286.16113281 C53.82854241 280.55830275 55.22533747 273.45214608 57.1809082 266.47949219 C60.00790642 256.97109311 64.00666961 249.57036347 72.6574707 244.37988281 C85.16185577 237.87760258 96.45498236 239.91928829 109.61547852 243.38183594 C117.84099217 245.64490106 117.84099217 245.64490106 125.9387207 243.78613281 C133.69188709 238.01462235 138.44575322 227.41909919 143.31030273 219.25561523 C144.38510107 217.45878678 145.47621218 215.67251346 146.56762695 213.88574219 C147.26265974 212.72424398 147.95670645 211.56215502 148.6496582 210.39941406 C149.27018066 209.36856689 149.89070313 208.33771973 150.5300293 207.27563477 C152.16195068 203.82086857 152.7367969 200.96218951 153.0012207 197.16113281 C151.0444517 192.29565313 146.91673715 188.97258554 143.1887207 185.41113281 C133.95136727 176.32362532 127.38311144 168.04501869 126.9074707 154.48925781 C127.64398227 142.63142165 133.88141662 135.15651354 142.05200195 127.16894531 C142.58889648 126.64147705 143.12579102 126.11400879 143.67895508 125.57055664 C144.7488422 124.52543542 145.82672602 123.48842311 146.91333008 122.46069336 C149.89403909 119.5708479 152.07595913 117.25339706 153.0012207 113.16113281 C152.61827228 107.35884369 150.91041385 103.56230408 147.95825195 98.72363281 C147.55217209 98.03986572 147.14609222 97.35609863 146.72770691 96.65161133 C145.86993137 95.21297789 145.00648424 93.7777125 144.13769531 92.34570312 C142.82220111 90.17512556 141.52667914 87.99358411 140.23364258 85.80957031 C139.39300716 84.40522858 138.55124597 83.00156 137.70825195 81.59863281 C137.32675491 80.95676025 136.94525787 80.3148877 136.55220032 79.65356445 C133.37652573 74.44772146 129.85123667 68.9611429 124.6262207 65.66113281 C119.05999294 64.60089895 113.35656441 66.2401851 107.96459961 67.67285156 C95.67236932 70.91475845 83.65102639 72.34605343 72.0012207 66.16113281 C60.90151953 59.23105852 57.53463249 46.68198213 54.18041992 34.74804688 C52.63772859 29.43908352 51.12336296 24.90499062 46.01416016 22.05126953 C41.57091541 20.73856632 37.27155199 20.85598187 32.66137695 20.86035156 C31.16180702 20.85392387 31.16180702 20.85392387 29.63194275 20.84736633 C27.52140051 20.84163315 25.41083852 20.8411153 23.30029297 20.84545898 C20.07851321 20.84861831 16.85765261 20.82514889 13.63598633 20.79980469 C11.58195102 20.79753147 9.52791326 20.7968283 7.47387695 20.79785156 C6.51433609 20.78864182 5.55479523 20.77943207 4.56617737 20.76994324 C-1.95419964 20.81485227 -6.6886397 21.47986971 -11.1628418 26.67285156 Z " fill="#FFFFFF" transform="translate(236.998779296875,99.8388671875)"/>
<path d="M0 0 C2.92891277 1.18724146 5.38350185 2.85219313 7.95703125 4.671875 C8.66727951 5.15070129 9.37752777 5.62952759 10.10929871 6.12286377 C12.35741701 7.64617146 14.58429145 9.19775941 16.8125 10.75 C18.32624703 11.77785092 19.84121191 12.8039107 21.35742188 13.828125 C36.57309426 24.18933082 36.57309426 24.18933082 37.56640625 28.40234375 C37.55971523 32.74481635 37.39882054 35.3352991 35.125 39.125 C30.61702551 41.82978469 27.11990639 42.17930428 22 41 C18.07300184 38.99683427 14.53136346 36.63173855 11 34 C15.25138184 70.06344598 34.4980284 105.85628145 58 133 C58.70511719 133.81597656 59.41023438 134.63195312 60.13671875 135.47265625 C94.10145729 173.9497658 139.52290441 197.76529399 190.0390625 206.26171875 C194.01125229 207.25214602 196.94608067 208.47836499 199.3203125 211.90625 C200.54622088 215.68261144 199.94266578 219.20140606 199 223 C197.4375 225.5 197.4375 225.5 195 227 C188.08813867 228.44849941 182.28778431 227.45559221 175.4375 226 C174.34195801 225.77143311 173.24641602 225.54286621 172.11767578 225.30737305 C133.46278652 216.95985166 97.9738183 199.87564918 68 174 C67.22011719 173.33097656 66.44023438 172.66195312 65.63671875 171.97265625 C53.76078342 161.53505024 42.65746203 150.43542338 33.25878906 137.703125 C32.02930604 136.03965069 30.77783788 134.39472448 29.5234375 132.75 C9.07688891 105.50550097 -4.13725011 73.23015734 -11 40 C-13.03749633 42.52886758 -15.03793731 45.05262272 -16.9375 47.6875 C-19.2786308 50.31240422 -20.58552673 51.20593645 -24 52 C-28.18110238 51.92533746 -30.43731429 51.37113313 -33.9375 49.0625 C-36.85070197 44.73683647 -36.77474615 41.09247514 -36 36 C-34.64042603 32.94295538 -32.76569451 30.48286832 -30.6875 27.875 C-29.58568853 26.41262567 -28.48546742 24.94905195 -27.38671875 23.484375 C-26.82388184 22.74767578 -26.26104492 22.01097656 -25.68115234 21.25195312 C-22.49731276 16.98710614 -19.58823865 12.52883624 -16.6550293 8.08935547 C-11.82717528 0.94564166 -8.58599925 -1.14869279 0 0 Z " fill="#FFFFFF" transform="translate(36,261)"/>
<path d="M0 0 C3.28910929 2.43108078 4.73914733 3.98079216 5.7578125 7.9609375 C6.3672045 13.25477142 5.08789483 18.33876901 4 23.5 C3.77143311 24.60005371 3.54286621 25.70010742 3.30737305 26.83349609 C-5.01081675 65.50767725 -22.11767125 101.01844423 -48 131 C-48.66902344 131.77988281 -49.33804688 132.55976563 -50.02734375 133.36328125 C-60.97842701 145.82345233 -72.65332246 157.15178129 -86 167 C-87.10685902 167.83712299 -88.21363037 168.67436192 -89.3203125 169.51171875 C-116.74844294 189.96272844 -148.64060548 203.01943269 -182 210 C-181.23171875 210.60585938 -180.4634375 211.21171875 -179.671875 211.8359375 C-172.7985258 217.4029484 -172.7985258 217.4029484 -171 221 C-170.6248545 225.97067782 -170.84121201 229.05151502 -174 233 C-177.44545382 235.58409036 -180.81623257 235.33435846 -185 235 C-187.63167801 233.7046296 -189.84600586 232.43924677 -192.25 230.8125 C-193.25969849 230.15278198 -193.25969849 230.15278198 -194.28979492 229.47973633 C-195.75036726 228.51949443 -197.20550905 227.5509531 -198.65576172 226.57519531 C-201.14463005 224.9028168 -203.6517658 223.26011538 -206.16015625 221.6171875 C-207.87881278 220.47577609 -209.59628218 219.33257497 -211.3125 218.1875 C-212.53984863 217.37986206 -212.53984863 217.37986206 -213.79199219 216.5559082 C-221.27903192 211.47451702 -221.27903192 211.47451702 -223 207 C-224.03181006 201.10630094 -221.26366111 197.3845863 -218.1875 192.625 C-217.69483643 191.84423096 -217.20217285 191.06346191 -216.69458008 190.2590332 C-215.14805458 187.82695557 -213.57809844 185.41169077 -212 183 C-211.25556641 181.85362061 -211.25556641 181.85362061 -210.49609375 180.68408203 C-209.07484643 178.50815238 -207.6363125 176.34515509 -206.1875 174.1875 C-205.54107544 173.21127686 -205.54107544 173.21127686 -204.8815918 172.21533203 C-202.02346936 168.04981133 -199.10928597 164.96689338 -195 162 C-191.53338719 161.380962 -189.3277137 161.19027326 -186.2578125 163.0625 C-184.05665367 164.83185256 -182.27238958 166.45522084 -181 169 C-180.43336975 174.78671143 -181.81452542 178.25076291 -185 182.9375 C-185.3815625 183.52595703 -185.763125 184.11441406 -186.15625 184.72070312 C-187.09004808 186.15641767 -188.04308927 187.57958564 -189 189 C-152.02911743 180.54839977 -117.70640809 166.43118032 -89 141 C-88.19046875 140.29875 -87.3809375 139.5975 -86.546875 138.875 C-47.72123762 104.68890419 -23.38920934 58.41844482 -15.58544922 7.30053711 C-14.69453782 3.79967887 -12.8573052 2.09071112 -10 0 C-6.1544104 -1.2818632 -3.93271581 -0.94927623 0 0 Z " fill="#FFFFFF" transform="translate(485,277)"/>
<path d="M0 0 C12.45955702 6.90163848 24.17650526 14.55289979 35.23925781 23.52197266 C35.82578125 23.99425293 36.41230469 24.4665332 37.01660156 24.953125 C50.67032654 36.04107482 63.63845813 48.46118975 74.23925781 62.52197266 C74.70332031 63.12074219 75.16738281 63.71951172 75.64550781 64.33642578 C95.96465844 90.642469 110.55186767 121.16776267 118.23925781 153.52197266 C118.78195312 152.82330078 119.32464844 152.12462891 119.88378906 151.40478516 C120.59921875 150.49470703 121.31464844 149.58462891 122.05175781 148.64697266 C122.75945312 147.74205078 123.46714844 146.83712891 124.19628906 145.90478516 C127.10872608 142.50787009 128.6112126 141.58275122 133.11425781 141.14697266 C137.25465036 141.23847304 139.32258074 142.51691143 142.23925781 145.52197266 C143.98381537 149.01108778 143.71064928 152.708484 143.23925781 156.52197266 C142.18524229 159.21982169 140.68482207 161.43893157 139.00488281 163.78759766 C138.57044861 164.42888611 138.1360144 165.07017456 137.68841553 165.730896 C136.30778084 167.75848491 134.89925779 169.764728 133.48925781 171.77197266 C132.55770424 173.13267617 131.62799891 174.49464694 130.70019531 175.85791016 C120.36689602 190.95815355 120.36689602 190.95815355 117.23925781 192.52197266 C111.01945848 193.02504466 107.99574155 192.35201175 102.73925781 188.70947266 C102.15466797 188.31219971 101.57007813 187.91492676 100.96777344 187.50561523 C99.71143293 186.6482522 98.46091432 185.78230675 97.21582031 184.90869141 C95.15166882 183.46052188 93.07257359 182.03616523 90.98925781 180.61572266 C87.64900968 178.33506871 84.32070368 176.03805856 81.0012207 173.72729492 C79.31970606 172.57700564 77.60619257 171.47391445 75.89160156 170.37353516 C72.5875508 168.06702549 71.5100647 166.33439331 70.23925781 162.52197266 C70.23925781 158.1855785 70.77998023 156.14334821 73.36425781 152.64697266 C76.86063336 150.06269508 78.90286366 149.52197266 83.23925781 149.52197266 C86.88013267 150.88730073 89.79455399 152.88604184 92.92675781 155.13916016 C93.86068359 155.80987549 93.86068359 155.80987549 94.81347656 156.49414062 C95.28398437 156.8333252 95.75449219 157.17250977 96.23925781 157.52197266 C86.15962547 118.50786628 66.97579433 85.53927276 39.23925781 56.52197266 C38.60375 55.84521484 37.96824219 55.16845703 37.31347656 54.47119141 C32.36730081 49.3361402 26.84732072 44.91028188 21.23925781 40.52197266 C20.69269531 40.09368164 20.14613281 39.66539063 19.58300781 39.22412109 C-6.80445183 18.72886125 -36.41792715 6.26302866 -68.82324219 -1.11865234 C-69.79229492 -1.34077393 -70.76134766 -1.56289551 -71.75976562 -1.79174805 C-73.86571132 -2.27334692 -75.97329108 -2.74782928 -78.08203125 -3.21704102 C-79.15678711 -3.46687744 -80.23154297 -3.71671387 -81.33886719 -3.97412109 C-82.31243164 -4.19511475 -83.28599609 -4.4161084 -84.2890625 -4.64379883 C-86.76074219 -5.47802734 -86.76074219 -5.47802734 -89.51074219 -8.29052734 C-90.88708818 -11.80020963 -91.38082413 -13.7575357 -90.76074219 -17.47802734 C-89.04842587 -20.77582174 -87.82151341 -22.9108094 -84.51074219 -24.68115234 C-61.171805 -31.44413982 -20.30869911 -10.87273297 0 0 Z " fill="#FFFFFF" transform="translate(368.7607421875,46.47802734375)"/>
<path d="M0 0 C8.00434887 4.12181603 15.46845709 9.49719197 22.9375 14.5 C23.78115112 15.05131592 23.78115112 15.05131592 24.6418457 15.61376953 C26.30000262 16.69788479 27.9451184 17.80186385 29.58984375 18.90625 C30.55784912 19.54884766 31.52585449 20.19144531 32.52319336 20.85351562 C35.38928884 23.33737087 36.61080117 25.49098019 38 29 C38.18858391 35.87921299 34.47067824 40.26863028 30.5625 45.5625 C29.61721436 46.87226807 29.61721436 46.87226807 28.65283203 48.20849609 C27.37794631 49.97429539 26.09836448 51.73671425 24.81396484 53.49560547 C23.17396793 55.75981655 21.5717844 58.04374263 19.98828125 60.34765625 C19.54218506 60.99210693 19.09608887 61.63655762 18.63647461 62.30053711 C17.81824291 63.48394053 17.00493751 64.67077119 16.19750977 65.86157227 C14.11488724 68.82884051 12.48689343 70.84000377 9 72 C2.03867403 72.66298343 2.03867403 72.66298343 -1.9375 70.125 C-4.92084171 67.05125399 -5.49800927 64.73812325 -5.50195312 60.42797852 C-4.82766812 57.16641997 -3.30731123 54.97889696 -1.46875 52.21484375 C-0.50098633 50.74519165 -0.50098633 50.74519165 0.48632812 49.24584961 C0.98583984 48.50471924 1.48535156 47.76358887 2 47 C-36.61045942 59.01521195 -68.55653312 76.00605764 -98 104 C-98.65226562 104.61101562 -99.30453125 105.22203125 -99.9765625 105.8515625 C-105.13715053 110.8236359 -109.58918701 116.36317829 -114 122 C-114.42829102 122.5465625 -114.85658203 123.093125 -115.29785156 123.65625 C-136.96142128 151.54789792 -150.8860218 183.71854815 -156.8347168 218.46826172 C-158.81538836 229.33686929 -158.81538836 229.33686929 -164 233 C-167.51158123 234.75579061 -171.28669974 233.9514506 -175 233 C-178.30981765 230.186655 -179.44752069 227.56885514 -179.97802734 223.2890625 C-180.02913644 217.96463052 -178.67313007 212.7430672 -177.5625 207.5625 C-177.28954102 206.27786865 -177.01658203 204.9932373 -176.73535156 203.66967773 C-169.09996685 168.65208355 -153.58613231 135.85848621 -131 108 C-130.52771973 107.41347656 -130.05543945 106.82695313 -129.56884766 106.22265625 C-95.86914991 64.72477682 -51.79732465 39.60042864 -1 25 C-2.03060547 24.32904297 -2.03060547 24.32904297 -3.08203125 23.64453125 C-3.98308594 23.03996094 -4.88414062 22.43539063 -5.8125 21.8125 C-6.70582031 21.22082031 -7.59914062 20.62914063 -8.51953125 20.01953125 C-11.65773675 17.46448834 -13.71943512 15.02929118 -14.28515625 10.9375 C-13.81274342 6.82667955 -13.20371062 5.23281214 -10.375 2 C-6.2743511 -0.43001416 -4.69301571 -0.86038621 0 0 Z " fill="#FFFFFF" transform="translate(203,0)"/>
<path d="M0 0 C6.13552131 4.80932037 12.94410461 10.4817209 14.90234375 18.28515625 C15.19632817 22.11726895 14.18851331 23.98549658 12.125 27.1875 C9.62646868 29.96364591 8.11923257 30.18846124 4.375 30.8125 C-0.41945209 30.66830595 -3.0258722 28.0734156 -6.40625 24.9140625 C-7.875 23.1875 -7.875 23.1875 -7.875 21.1875 C-8.46152344 20.91550781 -9.04804688 20.64351562 -9.65234375 20.36328125 C-11.83188333 19.21030864 -13.53409709 17.93307711 -15.4375 16.375 C-28.1316797 6.68858302 -42.4146773 4.91347258 -57.875 6.1875 C-68.28801265 8.18389458 -78.70789068 13.32679945 -85.875 21.1875 C-86.535 21.1875 -87.195 21.1875 -87.875 21.1875 C-88.14699219 21.77402344 -88.41898438 22.36054688 -88.69921875 22.96484375 C-89.85219136 25.14438333 -91.12942289 26.84659709 -92.6875 28.75 C-102.31421205 41.3659356 -104.33290249 55.78989872 -102.875 71.1875 C-101.22006859 80.7200721 -96.9308606 88.72043207 -90.875 96.1875 C-90.23691406 97.10208984 -90.23691406 97.10208984 -89.5859375 98.03515625 C-81.86351496 108.43436943 -67.94864248 114.66636181 -55.54296875 116.74609375 C-39.13392528 118.53248793 -24.75511452 113.85260418 -11.9375 103.6875 C-8.13020422 100.43977795 -4.9328988 97.13317587 -1.875 93.1875 C1.59763273 91.45118364 5.33693013 91.58559598 9.125 92.1875 C11.88069447 94.36909145 13.56088747 96.05927494 15.125 99.1875 C15.49932138 104.98948131 14.57877869 108.15302139 10.77954102 112.65209961 C-3.83301144 128.62608577 -23.0921814 137.75126426 -44.58105469 139.06469727 C-65.02101613 139.91834386 -83.87814882 132.86430276 -99.31640625 119.5546875 C-112.89901969 106.98817796 -123.72742874 89.60805756 -125.05200195 70.65478516 C-125.61280581 46.14475207 -121.06822578 25.66931342 -104.0078125 7.3125 C-75.84151351 -21.499095 -31.84041298 -23.9058006 0 0 Z " fill="#FFFFFF" transform="translate(304.875,193.8125)"/>
<path d="M0 0 C3.44312714 2.1244827 4.71617547 3.14852641 6 7 C6.45914381 10.34519064 6.66752287 12.8729674 4.90281677 15.85246277 C1.10552833 20.77148134 -2.95476647 25.27562032 -7.33984375 29.67578125 C-8.02502579 30.36762009 -8.71020782 31.05945892 -9.41615295 31.77226257 C-10.85481491 33.2209773 -12.29613141 34.66706036 -13.73999023 36.1105957 C-15.93866878 38.31367111 -18.12082009 40.53228861 -20.30273438 42.75195312 C-21.7099564 44.1650402 -23.11812757 45.57718285 -24.52734375 46.98828125 C-25.49485817 47.97735222 -25.49485817 47.97735222 -26.48191833 48.98640442 C-30.41457934 52.88008366 -33.70216167 55.29853624 -39 57 C-47.46597956 56.58063259 -51.85709707 50.86981754 -57.4375 45 C-58.80165039 43.6078125 -58.80165039 43.6078125 -60.19335938 42.1875 C-68.35367707 33.80169183 -68.35367707 33.80169183 -68.29296875 26.26171875 C-67.86344199 22.9457722 -66.39075646 21.25012373 -64 19 C-60.69557384 17.34778692 -57.543447 17.23266905 -54 18 C-51.77090704 19.47635821 -49.95746832 21.10627047 -48.0546875 22.98046875 C-46.37513406 24.63128459 -44.68337221 26.12851317 -42.87158203 27.6262207 C-41.92395996 28.40956787 -40.97633789 29.19291504 -40 30 C-38.75911621 28.74340576 -38.75911621 28.74340576 -37.49316406 27.46142578 C-34.41949281 24.3515252 -31.33918343 21.24827211 -28.25683594 18.14697266 C-26.92428823 16.8043741 -25.59354196 15.45998508 -24.26464844 14.11376953 C-22.35303197 12.17786496 -20.43500687 10.24851442 -18.515625 8.3203125 C-17.62789398 7.41709763 -17.62789398 7.41709763 -16.722229 6.49563599 C-16.16195007 5.93520599 -15.60167114 5.374776 -15.02441406 4.79736328 C-14.53587952 4.30438751 -14.04734497 3.81141174 -13.54400635 3.30349731 C-9.4881932 -0.12054401 -5.20811885 -0.85768624 0 0 Z " fill="#FFFFFF" transform="translate(287,230)"/>
<path d="M0 0 C3.1198667 1.26446736 3.79216202 2.16943849 6 5 C6.7909925 8.49641614 6.76431027 11.50026352 6 15 C3.63095184 18.41421647 2.02503506 19.64346607 -1.875 21 C-6.0430077 21 -8.42900496 20.15607248 -12 18 C-14.52544475 14.0205113 -15.15041546 11.98605693 -14.4375 7.3125 C-11.34283619 0.18131817 -7.52142496 -1.44193121 0 0 Z " fill="#FFFFFF" transform="translate(328,245)"/>
</svg>
