<?xml version="1.0" encoding="UTF-8"?>
<svg version="1.1" xmlns="http://www.w3.org/2000/svg" width="512" height="512">
<path d="M0 0 C1.80630048 -0.00542874 3.61259652 -0.0125556 5.41888428 -0.02124023 C10.29455794 -0.03937925 15.16989074 -0.0324473 20.0455699 -0.01972389 C25.15747425 -0.00955653 30.26935054 -0.01899905 35.3812561 -0.02526855 C43.95702327 -0.03253015 52.53265228 -0.02299225 61.10839844 -0.00390625 C71.02145836 0.01790129 80.93418967 0.010777 90.84724176 -0.01121187 C99.36979275 -0.02935865 107.89224481 -0.03192898 116.41480887 -0.0214572 C121.50041383 -0.01522366 126.58586419 -0.0143837 131.6714592 -0.02760315 C136.44705123 -0.03915195 141.22221848 -0.03115374 145.99776459 -0.00802612 C147.75012888 -0.00273563 149.50252891 -0.00425863 151.254879 -0.01307678 C153.64618186 -0.02400174 156.03612174 -0.01030752 158.42733765 0.00964355 C159.12120461 0.00072067 159.81507157 -0.00820222 160.5299648 -0.0173955 C165.2454131 0.05896771 167.62163068 1.19880472 170.93994141 4.51757812 C172.18171661 7.00112854 172.06030821 8.64865435 172.0534668 11.42626953 C172.05339127 12.44717682 172.05331573 13.46808411 172.05323792 14.51992798 C172.04807663 15.62516815 172.04291534 16.73040833 172.03759766 17.86914062 C172.03547523 19.56289322 172.03547523 19.56289322 172.03330994 21.29086304 C172.02769884 24.90812801 172.01514443 28.52533177 172.00244141 32.14257812 C171.99742784 34.5904939 171.99286468 37.03841064 171.98876953 39.48632812 C171.9777258 45.49676579 171.96097684 51.50716758 171.93994141 57.51757812 C173.02098145 57.49872559 174.10202148 57.47987305 175.21582031 57.46044922 C176.65771025 57.44519733 178.09960516 57.43041088 179.54150391 57.41601562 C180.25121338 57.4023999 180.96092285 57.38878418 181.69213867 57.37475586 C194.63913614 57.27808098 205.77162919 63.40966644 215.12744141 72.01757812 C225.43776085 82.76628911 229.37392564 95.99534173 229.3034668 110.58032227 C228.99546417 123.98322782 223.77635251 135.24998313 214.87744141 145.20507812 C202.43861543 156.77932202 188.65197942 159.51757812 171.93994141 159.51757812 C171.93994141 171.39757812 171.93994141 183.27757812 171.93994141 195.51757812 C176.50193359 195.47117187 181.06392578 195.42476562 185.76416016 195.37695312 C188.65806319 195.3565096 191.55187691 195.33725365 194.44580078 195.32226562 C199.03705383 195.29837405 203.62798714 195.27014162 208.21899414 195.21582031 C211.92133393 195.17228905 215.62333075 195.14842583 219.32590675 195.13806915 C220.7369101 195.13069071 222.14789513 195.11628199 223.55875206 195.0946579 C225.53808588 195.06553334 227.51776642 195.06394346 229.49731445 195.06347656 C231.18608955 195.05015289 231.18608955 195.05015289 232.90898132 195.03656006 C236.62203702 195.62582776 238.26949201 196.92529126 240.93994141 199.51757812 C242.65478086 202.94725703 242.21620902 206.75262885 241.93994141 210.51757812 C241.60994141 211.46632813 241.27994141 212.41507813 240.93994141 213.39257812 C238.56184034 220.82414395 239.41793746 228.12933776 242.62353516 235.16601562 C246.92669671 242.85296891 252.57588362 247.66841809 260.93994141 250.51757812 C270.16056671 252.63832195 277.98116494 250.87858879 286.18994141 246.39257812 C291.99283404 242.51615187 295.85215117 236.09699048 297.93994141 229.51757812 C298.25608437 225.90903236 298.25608437 225.90903236 298.18994141 222.08007812 C298.19509766 220.80261719 298.20025391 219.52515625 298.20556641 218.20898438 C297.94688945 214.61413554 297.18677936 211.87630828 295.93994141 208.51757812 C295.42793477 204.42152505 295.75330236 202.84730711 297.81494141 199.20507812 C299.93994141 196.51757812 299.93994141 196.51757812 301.93994141 195.51757812 C303.52053128 195.40730042 305.10561026 195.35847424 306.68994141 195.34057617 C308.17288696 195.32132332 308.17288696 195.32132332 309.68579102 195.30168152 C310.75966064 195.29429459 311.83353027 195.28690765 312.93994141 195.27929688 C314.04539307 195.27122513 315.15084473 195.26315338 316.28979492 195.25483704 C318.63686551 195.24098297 320.98395636 195.23026676 323.33105469 195.22241211 C326.8976964 195.20528103 330.46339149 195.16141533 334.02978516 195.1171875 C336.31233043 195.10705341 338.59488359 195.09853956 340.87744141 195.09179688 C341.93511719 195.07428879 342.99279297 195.0567807 344.08251953 195.03874207 C352.54948886 195.06317443 359.14833273 196.96553382 366.18994141 201.70507812 C373.58109927 209.26421685 377.17736919 216.84488407 377.20736694 227.54937744 C377.21189806 228.22138333 377.21642917 228.89338922 377.22109759 229.58575892 C377.2336726 231.81863744 377.23212574 234.05126987 377.23046875 236.28417969 C377.23645838 237.89296275 377.24326493 239.50174295 377.25082397 241.11051941 C377.26844834 245.46815798 377.27317789 249.82571794 377.27445555 254.18338871 C377.27587988 256.91007612 377.28015487 259.63674373 377.28544998 262.36342621 C377.30393946 271.88796755 377.31212207 281.41245302 377.31054688 290.93701172 C377.30934622 299.79558141 377.33043632 308.65390717 377.3620342 317.51241517 C377.38824457 325.13390817 377.39891216 332.75532174 377.39763606 340.37685943 C377.39712776 344.92171931 377.40273716 349.46636234 377.42399216 354.01117706 C377.44345465 358.28932322 377.44344473 362.56704748 377.42895889 366.84520912 C377.42687949 368.40800663 377.43151948 369.97083111 377.44367981 371.53358269 C377.53002345 383.40661848 376.45980195 393.85274065 367.93994141 402.79492188 C361.44079933 408.39281574 355.11887431 410.63835142 346.64761066 410.6517992 C345.34589021 410.65625705 344.04416976 410.66071489 342.70300323 410.66530782 C341.25498981 410.66521852 339.8069764 410.66502868 338.35896301 410.66474915 C336.82337354 410.66804855 335.28778494 410.67177428 333.75219744 410.67589062 C329.52582202 410.6859099 325.29946079 410.6896273 321.07307518 410.69227993 C316.51736909 410.69618316 311.96167425 410.70576143 307.40597534 410.7144928 C296.40120322 410.73425588 285.39643018 410.74432286 274.39164475 410.75322059 C269.21009275 410.75760342 264.02854177 410.76297022 258.84699059 410.76820946 C241.62407678 410.78522098 224.4011636 410.79971565 207.17824268 410.8069582 C202.70875358 410.80886811 198.23926448 410.81078844 193.76977539 410.81274414 C192.65889888 410.81322788 191.54802237 410.81371162 190.40348294 410.81421002 C172.4037426 410.82251222 154.40406868 410.8478527 136.40435735 410.88032482 C117.92735316 410.91338647 99.45038273 410.93140612 80.9733488 410.93460244 C70.59796733 410.93676828 60.22268274 410.94552785 49.84733009 410.97106361 C41.01221076 410.9927583 32.17721184 411.00082705 23.34206889 410.99109683 C18.83461387 410.98654868 14.32740736 410.98846833 9.81998634 411.00785828 C5.69123954 411.02546581 1.56292298 411.02451195 -2.56582824 411.00896098 C-4.05711585 411.00658125 -5.54843305 411.01092748 -7.03967538 411.02278963 C-18.17223963 411.10583831 -26.87342538 409.71922124 -35.0650444 401.74927521 C-43.26727285 392.57395737 -43.93405015 382.47884493 -43.83642578 370.83203125 C-43.8445736 369.1847139 -43.85526652 367.53740751 -43.86828613 365.89012146 C-43.89545213 361.44980842 -43.88511268 357.01033932 -43.86601162 352.57001305 C-43.85072358 347.90313979 -43.86493576 343.23633438 -43.87432861 338.56945801 C-43.88521641 330.73513946 -43.87093302 322.90116129 -43.84228516 315.06689453 C-43.8096367 306.0348134 -43.8202157 297.00354516 -43.85324359 287.97148371 C-43.880552 280.18930732 -43.88427455 272.40737433 -43.86861157 264.62516546 C-43.85930136 259.98919716 -43.85788796 255.3536098 -43.87783051 250.71766663 C-43.8952812 246.35712574 -43.8829284 241.99762344 -43.84846497 237.63719368 C-43.8405938 236.04580972 -43.84270217 234.45433695 -43.85604095 232.86298943 C-43.92505439 223.78630659 -43.16310001 216.96263912 -38.14995193 209.04425812 C-36.76453485 206.55000312 -36.76453485 206.55000312 -37.75273705 203.9251585 C-38.53142768 202.4911117 -39.31555749 201.05996469 -40.11105919 199.63517475 C-44.142916 192.2338215 -43.63803765 184.35708635 -43.609375 176.17260742 C-43.61808136 174.52573731 -43.6284517 172.87887529 -43.64035034 171.23202515 C-43.66702555 166.77932294 -43.66829941 162.32696134 -43.66322374 157.87419486 C-43.66107681 154.14685451 -43.67087034 150.41958201 -43.68043458 146.69225627 C-43.70258943 137.89252301 -43.70352027 129.09296052 -43.69140625 120.29321289 C-43.67933292 111.2390757 -43.70394015 102.18556059 -43.74654639 93.13152951 C-43.7818676 85.3367051 -43.79376703 77.54207789 -43.7872709 69.74717647 C-43.78365844 65.10106622 -43.78878321 60.45539962 -43.81669998 55.80936241 C-43.84199366 51.43660714 -43.8378426 47.06481561 -43.8118782 42.69207382 C-43.80717665 41.09583385 -43.81250784 39.49952459 -43.82912445 37.90336418 C-43.93415028 27.02227237 -42.49300313 18.06745611 -35.28684425 9.37981701 C-25.42487447 -0.21401948 -12.89088451 -0.06536269 0 0 Z M-20.06005859 24.51757812 C-23.16066834 29.16849274 -23.18573427 33.34611825 -23.20050049 38.84225464 C-23.20621063 40.11796326 -23.21192078 41.39367187 -23.21780396 42.70803833 C-23.21904915 44.11444082 -23.22017428 45.52084342 -23.22119141 46.92724609 C-23.2258227 48.41414513 -23.23084777 49.90104297 -23.23623657 51.38793945 C-23.24933063 55.42104217 -23.2557994 59.45412826 -23.26024723 63.4872489 C-23.26318215 66.00852143 -23.26728769 68.52978946 -23.2717514 71.05105972 C-23.28541701 78.94423236 -23.29508886 86.83739466 -23.29895329 94.7305783 C-23.30343512 103.83384508 -23.32099268 112.9369618 -23.34995389 122.04018295 C-23.37158128 129.08322547 -23.3816581 136.12622579 -23.38299441 143.16930115 C-23.38404147 147.37309745 -23.38992836 151.5767525 -23.40781403 155.78051376 C-23.42431358 159.73517479 -23.42644116 163.68958863 -23.41767502 167.64427185 C-23.41690571 169.09264412 -23.42123335 170.5410298 -23.43113327 171.98936844 C-23.63123953 182.19826189 -23.63123953 182.19826189 -20.06005859 191.51757812 C-15.06380181 196.24225235 -10.30821704 196.06482149 -3.80615234 195.98632812 C-2.82767838 195.99337769 -1.84920441 196.00042725 -0.84107971 196.00769043 C2.27369535 196.02968135 5.38761157 196.02672735 8.50244141 196.01757812 C12.60837445 196.00553819 16.71302706 196.01921818 20.81884766 196.04882812 C22.22838463 196.03184875 22.22838463 196.03184875 23.66639709 196.01452637 C27.94475319 196.04757991 30.31336497 196.13658528 34.03759766 198.40112305 C36.31043208 200.92976802 36.5411172 201.97736429 36.37744141 205.33007812 C36.33490234 206.21179688 36.29236328 207.09351563 36.24853516 208.00195312 C35.84499449 211.29157577 34.86462835 214.33896674 33.93994141 217.51757812 C32.84490342 225.69907625 35.037746 233.3119631 39.70556641 240.07617188 C43.82270112 245.01187078 47.87684766 248.35388585 53.93994141 250.51757812 C54.57673828 250.7521875 55.21353516 250.98679687 55.86962891 251.22851562 C63.75580641 253.66721309 71.53490668 252.34491009 78.84228516 248.73632812 C86.87359461 244.07009246 91.57226798 237.50631741 94.31494141 228.64257812 C95.60621617 222.55165942 94.83479302 216.10270502 92.81494141 210.26757812 C91.38663658 205.77862012 92.48268521 201.88934671 93.93994141 197.51757812 C96.97065801 196.33568419 100.03513183 196.36599162 103.25927734 196.31225586 C104.32007507 196.29231064 105.3808728 196.27236542 106.47381592 196.2518158 C108.18181366 196.22674706 108.18181366 196.22674706 109.92431641 196.20117188 C111.095047 196.18039078 112.26577759 196.15960968 113.47198486 196.13819885 C117.21124409 196.07282184 120.95057345 196.01387322 124.68994141 195.95507812 C127.2251049 195.91188166 129.76026131 195.868267 132.29541016 195.82421875 C138.5101798 195.71715253 144.72501919 195.61536403 150.93994141 195.51757812 C150.95207169 194.56037369 150.95207169 194.56037369 150.96444702 193.58383179 C151.05061116 186.93247806 151.15012013 180.28141828 151.25732422 173.63037109 C151.29556931 171.14930158 151.33042994 168.66817747 151.36181641 166.18701172 C151.40756342 162.61731474 151.4655431 159.04799219 151.52587891 155.47851562 C151.54320572 153.81881241 151.54320572 153.81881241 151.56088257 152.12557983 C151.75012845 142.21429453 151.75012845 142.21429453 153.93994141 137.51757812 C158.30025745 135.16971564 164.73203551 136.15968008 169.31494141 137.51757812 C178.12966736 139.94922666 185.79754682 138.52614161 193.93994141 134.51757812 C200.43581193 130.53543528 205.16561818 123.79753391 207.58447266 116.59960938 C209.04153879 108.0653649 208.69812563 99.88508918 203.93994141 92.51757812 C198.83414026 85.59445793 193.34383465 80.87833565 184.93994141 78.51757812 C181.48506953 78.20368811 181.48506953 78.20368811 177.93994141 78.26757812 C176.17650391 78.25984375 176.17650391 78.25984375 174.37744141 78.25195312 C170.90567085 78.5202263 168.21353177 79.3875168 164.93994141 80.51757812 C162.52587891 80.70507812 162.52587891 80.70507812 160.31494141 80.51757812 C159.58017578 80.47632813 158.84541016 80.43507812 158.08837891 80.39257812 C155.48153989 79.33088369 154.29112384 77.91415146 152.79495239 75.56072998 C150.94716421 71.14521729 151.3358002 66.27001465 151.33056641 61.55664062 C151.31403015 60.41093597 151.2974939 59.26523132 151.28045654 58.08480835 C151.23199992 54.4373436 151.21060972 50.79029577 151.18994141 47.14257812 C151.16177994 44.66469259 151.13185227 42.18682646 151.10009766 39.70898438 C151.02624136 33.64525791 150.97458503 27.58164859 150.93994141 21.51757812 C129.38260665 21.44751883 107.82529065 21.39460504 86.26786518 21.36214161 C76.25853484 21.34666811 66.2492752 21.32556933 56.23999023 21.29125977 C47.51661116 21.26137223 38.79328329 21.24200664 30.06985444 21.23531264 C25.45021011 21.23139929 20.83071229 21.22219231 16.21111488 21.20038795 C11.86339513 21.18003302 7.5158823 21.17374231 3.16811943 21.17825508 C1.57216391 21.17742944 -0.0237985 21.17145782 -1.61971283 21.1599617 C-3.79899085 21.14503275 -5.97748792 21.14862547 -8.15678406 21.15681458 C-9.37631618 21.1540492 -10.59584829 21.15128382 -11.85233593 21.14843464 C-15.39512111 21.55613699 -17.23636214 22.3743264 -20.06005859 24.51757812 Z M-21.06005859 220.51757812 C-22.65953313 225.14087088 -23.31169797 229.20605641 -23.320755 234.08276367 C-23.32783981 235.36122162 -23.33492462 236.63967957 -23.34222412 237.95687866 C-23.33993078 239.35601842 -23.33742115 240.75515785 -23.3347168 242.15429688 C-23.3390684 243.64149226 -23.34425304 245.1286854 -23.35020447 246.61587524 C-23.36355574 250.64062119 -23.3641776 254.66527301 -23.36164117 258.69003677 C-23.36056909 262.0548703 -23.36546074 265.41968496 -23.37024659 268.78451443 C-23.38132781 276.72387042 -23.38178661 284.66317909 -23.37573242 292.60253906 C-23.36968943 300.78405314 -23.38201504 308.96539538 -23.40330249 317.14688015 C-23.42093059 324.1814785 -23.42691805 331.2160222 -23.42366475 338.25064182 C-23.42185409 342.44769022 -23.42446653 346.64461596 -23.43837929 350.84164429 C-23.45097318 354.78813963 -23.44899891 358.73436728 -23.4359684 362.68085861 C-23.43360667 364.12600165 -23.43632283 365.57116363 -23.44459152 367.01628494 C-23.6157432 377.20440466 -23.6157432 377.20440466 -20.06005859 386.51757812 C-15.7165706 390.72095361 -11.21501381 390.64231271 -5.39093018 390.63783264 C-4.72189344 390.63868707 -4.05285671 390.63954149 -3.36354613 390.64042181 C-1.12335892 390.64206797 1.11675329 390.63656938 3.35693359 390.63110352 C4.96341449 390.63082143 6.56989552 390.63097979 8.17637634 390.63154602 C12.53758191 390.63183317 16.89876003 390.62594976 21.25995922 390.61897206 C25.81769357 390.6127248 30.37542853 390.61213364 34.9331665 390.61094666 C43.5639106 390.6078374 52.19464204 390.59962945 60.82538056 390.58959717 C70.65116131 390.57842347 80.47694266 390.57292241 90.30272818 390.56790173 C110.51513965 390.55744652 130.72753973 390.5398549 150.93994141 390.51757812 C150.94580765 389.87944183 150.95167389 389.24130554 150.9577179 388.58383179 C151.02173169 381.93238828 151.10617242 375.28142503 151.20239258 368.63037109 C151.23561376 366.14931578 151.26365438 363.6681854 151.28637695 361.18701172 C151.31997361 357.61718811 151.37229424 354.04805067 151.42822266 350.47851562 C151.43461258 349.37204681 151.4410025 348.265578 151.44758606 347.12557983 C151.5532548 341.57032326 151.6803013 337.25442218 154.93994141 332.51757812 C160.7456763 329.61471068 168.09789773 331.78660222 173.93994141 333.51757812 C183.03400911 334.25097068 190.42817591 331.54660737 197.86181641 326.32226562 C203.79045038 321.17371507 207.43468531 314.20000964 208.27587891 306.40429688 C208.40474962 295.84978519 206.08810931 289.04557448 198.85791016 281.30664062 C192.94493976 275.79107964 186.3704793 272.44010968 178.20166016 272.55664062 C174.13309915 272.85393737 170.5554527 273.30451652 166.68994141 274.64257812 C163.03868042 275.80434299 160.62868446 275.47391892 156.93994141 274.51757812 C154.07052028 272.25224566 153.10086528 271.00034976 151.93994141 267.51757812 C151.82480309 265.84606825 151.76357357 264.17058183 151.73461914 262.49536133 C151.71467392 261.47452957 151.6947287 260.45369781 151.67417908 259.40193176 C151.64911034 257.75181343 151.64911034 257.75181343 151.62353516 256.06835938 C151.60275406 254.94060593 151.58197296 253.81285248 151.56056213 252.65092468 C151.49511293 249.04403853 151.43620297 245.43707884 151.37744141 241.83007812 C151.3342518 239.38671111 151.29063737 236.94335156 151.24658203 234.5 C151.13863588 228.50593369 151.03952749 222.51181254 150.93994141 216.51757812 C139.05994141 216.51757812 127.17994141 216.51757812 114.93994141 216.51757812 C114.93994141 219.48757813 114.93994141 222.45757812 114.93994141 225.51757812 C113.671572 239.3939181 107.90108869 251.62904051 97.33056641 260.77539062 C85.18715404 270.07161874 72.47265512 273.45300959 57.28759766 271.98242188 C44.92145355 270.26530268 32.77674399 264.48985904 24.93994141 254.51757812 C16.52307504 242.63614207 14.20311005 230.69498411 12.93994141 216.51757812 C8.90160351 216.41832793 4.86374268 216.3459325 0.82446289 216.29785156 C-0.54805883 216.27779822 -1.92049576 216.25054784 -3.29272461 216.21582031 C-5.27077903 216.16703261 -7.24946978 216.14668936 -9.22802734 216.12695312 C-10.41678467 216.10600586 -11.60554199 216.08505859 -12.83032227 216.06347656 C-16.82430545 216.62503138 -18.35030564 217.54265885 -21.06005859 220.51757812 Z M171.93994141 216.51757812 C171.93994141 228.39757812 171.93994141 240.27757812 171.93994141 252.51757812 C175.23994141 252.51757812 178.53994141 252.51757812 181.93994141 252.51757812 C190.6438396 253.65166656 198.43831326 255.94053578 205.93994141 260.51757812 C206.63603516 260.93652344 207.33212891 261.35546875 208.04931641 261.78710938 C218.23097537 268.63407771 224.52137783 280.18440328 227.54931641 291.86914062 C229.8463466 307.44300535 227.05273356 321.54849105 217.93994141 334.51757812 C217.50037109 335.15308594 217.06080078 335.78859375 216.60791016 336.44335938 C209.21404737 346.05325021 197.03344566 351.62386101 185.24462891 353.20117188 C180.81456841 353.74575772 176.39130923 354.11595095 171.93994141 354.51757812 C171.93994141 366.39757812 171.93994141 378.27757812 171.93994141 390.51757812 C194.50583134 390.5853081 217.07163894 390.64056751 239.63760471 390.67301464 C250.11545514 390.68848108 260.59323792 390.70956639 271.07104492 390.74389648 C280.20389299 390.7738056 289.33669206 390.79315475 298.46958774 390.79984361 C303.30503368 390.80375329 308.14033944 390.81293704 312.97574043 390.8347683 C317.52865791 390.85515729 322.08137768 390.86140703 326.63433647 390.85690117 C328.30362905 390.85772529 329.97292835 390.86367657 331.6421814 390.87519455 C333.92584424 390.89017673 336.208766 390.88651131 338.4924469 390.87834167 C340.40747182 390.88248974 340.40747182 390.88248974 342.36118412 390.88672161 C347.48599096 390.35810542 351.46470197 389.27225479 354.85279083 385.24240017 C356.16062679 381.96445474 356.32300381 379.45076056 356.33435059 375.92042542 C356.34044169 375.27110186 356.34653279 374.62177831 356.35280848 373.95277828 C356.36940975 371.78482686 356.36466708 369.61746463 356.35986328 367.44946289 C356.36720528 365.89197176 356.3757919 364.33448606 356.38552856 362.77700806 C356.40773871 358.55178119 356.41067554 354.32674937 356.40878105 350.10147214 C356.40866134 346.57260309 356.41722583 343.04377534 356.42555857 339.51491779 C356.44479054 331.18919775 356.44767708 322.86357797 356.44091797 314.5378418 C356.43427577 305.95180191 356.45714902 297.36619147 356.4942317 288.78023869 C356.52492772 281.40513304 356.53628889 274.03016555 356.53239489 266.65499729 C356.53032742 262.25162789 356.53580621 257.84859274 356.56028748 253.44528389 C356.58255088 249.30415313 356.5806807 245.16372078 356.56035995 241.02258682 C356.55694923 239.50445577 356.56204188 237.98627774 356.57634354 236.46821022 C357.00463282 227.52434495 357.00463282 227.52434495 353.52648926 219.63023376 C349.54398207 216.37737832 347.50825355 216.3977159 342.40087891 216.41992188 C340.44794922 216.42475586 340.44794922 216.42475586 338.45556641 216.4296875 C337.07535742 216.43804347 335.69514908 216.44650842 334.31494141 216.45507812 C332.92692215 216.46009311 331.53890118 216.46465602 330.15087891 216.46875 C326.74719009 216.48056836 323.34358702 216.49704379 319.93994141 216.51757812 C319.90457275 217.53553467 319.8692041 218.55349121 319.83276367 219.60229492 C319.32842806 232.32448397 316.91961774 243.27531002 308.93994141 253.51757812 C308.52357422 254.11957031 308.10720703 254.7215625 307.67822266 255.34179688 C300.45376941 264.99609626 288.32155832 270.21944965 276.73681641 272.01367188 C262.5373994 273.55777888 249.75940376 270.60127416 237.93994141 262.51757812 C222.41867514 249.93718336 220.10014734 235.95943151 217.93994141 216.51757812 C202.75994141 216.51757812 187.57994141 216.51757812 171.93994141 216.51757812 Z " fill="#3197CF" transform="translate(43.06005859375,101.482421875)"/>
<path d="M0 0 C0.76154632 -0.00794881 1.52309265 -0.01589762 2.30771613 -0.02408731 C4.85619589 -0.04331653 7.40244979 -0.01971467 9.9508667 0.0038147 C11.77935107 -0.00104211 13.60783015 -0.00848171 15.43629456 -0.01831055 C20.40160382 -0.03712881 25.36612455 -0.01827589 30.33137226 0.00835371 C35.53085251 0.0309929 40.7302942 0.02276656 45.92980957 0.01885986 C54.66596341 0.01709359 63.401807 0.03925719 72.13787842 0.07608032 C82.22684119 0.11836354 92.31534858 0.12544693 102.40438199 0.1129564 C112.11725179 0.10154856 121.82996177 0.11288795 131.54280853 0.1353035 C135.67179073 0.14457377 139.80067485 0.14635255 143.92966461 0.14213181 C148.79878958 0.13835196 153.66745421 0.15468067 158.53647423 0.18625259 C160.31939222 0.1947067 162.10235706 0.19646069 163.88528633 0.19087219 C176.32017455 0.15782189 185.24573914 1.19864719 194.63739014 9.95547485 C201.65930325 17.26399667 202.67352416 24.53805949 202.69598389 34.22109985 C202.70264069 35.22176987 202.70929749 36.22243988 202.71615601 37.25343323 C202.72625187 39.36218433 202.73097398 41.47096719 202.73065186 43.57974243 C202.73503671 46.80382644 202.77142141 50.02655355 202.80926514 53.25039673 C202.81513159 55.30312644 202.81910213 57.35586262 202.82098389 59.40859985 C202.83535492 60.37016495 202.84972595 61.33173004 202.86453247 62.32243347 C202.83494808 66.65538443 202.77414892 69.07769096 200.45623779 72.83218384 C197.18402237 75.82352077 194.83851452 76.08177059 190.39910889 76.04141235 C187.22870072 75.58589394 185.54080619 73.99528703 183.36004639 71.7484436 C181.75276042 68.53387167 182.18139971 65.02003168 182.14910889 61.48672485 C182.12102491 59.79335607 182.09236035 58.09999683 182.06317139 56.40664673 C182.02202783 53.73843815 181.98514021 51.07040484 181.9586792 48.40200806 C181.93091783 45.82570513 181.8850314 43.2502116 181.83660889 40.67422485 C181.83172958 39.49102409 181.83172958 39.49102409 181.82675171 38.28392029 C181.71228211 33.075345 181.10053211 29.24425708 178.36004639 24.7484436 C173.5081312 22.19927568 169.87218877 21.37108101 164.33015442 21.34971619 C163.32275441 21.33974595 163.32275441 21.33974595 162.29500288 21.32957429 C160.06400339 21.31105 157.83354521 21.31354228 155.60247803 21.31607056 C153.99554697 21.3070469 152.38862279 21.29671819 150.78170776 21.28518677 C146.43306911 21.25766151 142.08456122 21.24833834 137.73584676 21.2423327 C133.18608392 21.23293737 128.63641831 21.20673304 124.0867157 21.18232727 C115.47734649 21.13869046 106.86799619 21.11012618 98.25855011 21.08700389 C88.45440703 21.05993711 78.65036189 21.0160265 68.8462888 20.97071517 C48.6842469 20.87790918 28.52221448 20.80843329 8.36004639 20.7484436 C8.36004639 32.6284436 8.36004639 44.5084436 8.36004639 56.7484436 C12.32004639 56.7484436 16.28004639 56.7484436 20.36004639 56.7484436 C34.35385761 58.57581414 46.32107756 66.1200302 55.17645264 76.9750061 C64.06891427 89.58937524 66.66821287 103.60958697 64.36004639 118.7484436 C61.09536845 133.1556093 53.02165189 144.62451335 40.54364014 152.53359985 C30.5511817 157.94895349 20.65252235 159.7484436 9.36004639 159.7484436 C9.03004639 171.2984436 8.70004639 182.8484436 8.36004639 194.7484436 C11.97199951 194.71363892 15.58395264 194.67883423 19.30535889 194.64297485 C22.81023366 194.6195671 26.31509967 194.60135739 29.82000732 194.58364868 C32.25266427 194.56857826 34.68529413 194.54811838 37.11785889 194.52212524 C40.61792699 194.4856662 44.11763529 194.46869941 47.61785889 194.45547485 C49.24475143 194.43224907 49.24475143 194.43224907 50.9045105 194.40855408 C56.44496442 194.407324 60.64145017 194.47997846 65.36004639 197.7484436 C67.7449465 201.13346312 68.4029054 202.9769813 68.17254639 207.1234436 C67.61663609 209.60365876 66.96541346 212.06388668 66.23504639 214.4984436 C64.21087906 222.50240295 65.76831722 230.24543664 69.71551514 237.3890686 C73.7180016 243.13135322 79.26346589 248.26835016 86.06707764 250.34609985 C94.96223235 251.90691916 102.53785647 251.29548896 110.36004639 246.7484436 C111.93785889 245.9440686 111.93785889 245.9440686 113.54754639 245.1234436 C119.75949147 239.87780109 123.79760655 231.88637397 124.53973389 223.7875061 C124.65901095 220.32847134 124.3534241 217.72609339 123.36004639 214.3734436 C122.08644117 209.75662468 121.55617941 205.49929746 122.36004639 200.7484436 C124.88680677 197.40219336 126.39938181 196.06866513 130.36004639 194.7484436 C131.82194324 194.65897505 133.28750444 194.62333951 134.75213623 194.62246704 C135.63670502 194.61866028 136.5212738 194.61485352 137.43264771 194.6109314 C138.38579865 194.60990417 139.33894958 194.60887695 140.32098389 194.6078186 C142.33922437 194.58949371 144.35745386 194.5699237 146.37567139 194.54922485 C149.55782657 194.52023363 152.73927388 194.49844296 155.92156982 194.49795532 C158.99284692 194.49462215 162.06249031 194.46008375 165.13348389 194.4203186 C166.5571376 194.43092316 166.5571376 194.43092316 168.009552 194.44174194 C172.51080187 194.35880102 174.70817691 194.22081879 178.43670654 191.51895142 C181.82170277 186.64297564 181.48338282 181.97886118 181.46551514 176.2171936 C181.47896416 174.75233506 181.49398603 173.28749026 181.51043701 171.82266235 C181.53329637 169.53131921 181.54750902 167.24154674 181.53509521 164.95010376 C181.52626555 162.72550453 181.55518193 160.50397441 181.59051514 158.2796936 C181.57216866 157.25917908 181.57216866 157.25917908 181.55345154 156.2180481 C181.62350414 153.45635645 181.8588165 151.34244246 183.67221069 149.19342041 C186.40233099 146.85319108 188.68910131 145.04696558 192.36004639 145.1234436 C192.97879639 145.11055298 193.59754639 145.09766235 194.23504639 145.0843811 C197.64862004 146.15112287 200.16498491 147.97561634 202.36004639 150.7484436 C203.24145012 153.83345118 203.20226052 156.80968158 203.15692139 160.00234985 C203.16266174 160.89904892 203.1684021 161.79574799 203.17431641 162.71961975 C203.17839286 164.61670456 203.1673658 166.51387389 203.14227295 168.41079712 C203.11040602 171.27857902 203.14183119 174.14061234 203.18035889 177.00820923 C203.20699165 188.64380907 202.40161412 197.66868531 194.55145264 206.86782837 C186.34507014 214.81724542 177.12104348 216.25562974 166.10614014 216.1000061 C164.64909852 216.06660124 163.19206725 216.03274167 161.73504639 215.9984436 C160.2389767 215.97833601 158.74288075 215.96009281 157.24676514 215.9437561 C153.617304 215.90012475 149.9888482 215.83133663 146.36004639 215.7484436 C146.37309814 216.54508423 146.3861499 217.34172485 146.39959717 218.1625061 C146.54649107 233.49543111 142.41165386 247.37239632 131.62176514 258.7171936 C119.04653041 270.01101408 105.07820584 273.5952435 88.63397217 272.92764282 C76.43355279 271.96617537 63.88133122 265.20852522 55.84051514 256.01016235 C48.50502735 246.74330563 44.39214907 236.76809924 43.67254639 224.9359436 C43.5861792 223.63012329 43.49981201 222.32430298 43.41082764 220.97891235 C43.36004639 217.7484436 43.36004639 217.7484436 44.36004639 215.7484436 C43.73221756 215.75732605 43.10438873 215.7662085 42.45753479 215.77536011 C35.92016712 215.86388815 29.38296987 215.92420073 22.84515381 215.96817017 C20.40563032 215.98827925 17.96615499 216.01557044 15.52679443 216.05020142 C12.01926791 216.0987485 8.51237895 216.12141992 5.00457764 216.1390686 C3.91482132 216.15971375 2.825065 216.18035889 1.70228577 216.20162964 C-5.881 216.20387431 -5.881 216.20387431 -9.80523682 213.84902954 C-12.93183721 210.26935292 -12.78272952 207.96548295 -12.83282471 203.26675415 C-12.8410022 202.60149719 -12.84917969 201.93624023 -12.85760498 201.25082397 C-12.88245056 199.04561259 -12.89897303 196.84046556 -12.91339111 194.63516235 C-12.91871479 193.88199045 -12.92403847 193.12881855 -12.92952347 192.35282326 C-12.95625194 188.36597333 -12.9756274 184.37915468 -12.99005127 180.39224243 C-13.00669526 176.27610181 -13.05147053 172.16076249 -13.10242271 168.04492474 C-13.13609482 164.87844433 -13.14762856 161.7121541 -13.15327835 158.54551125 C-13.15999146 157.02843924 -13.17521537 155.51137978 -13.19916916 153.99448204 C-13.23082556 151.86843146 -13.2308586 149.74454146 -13.22344971 147.61831665 C-13.23153656 146.40967453 -13.23962341 145.20103241 -13.24795532 143.95576477 C-12.46306385 139.81531747 -10.88196792 138.35326833 -7.63995361 135.7484436 C-2.90165776 134.20124496 0.50730844 134.95653156 5.17254639 136.2484436 C14.90817861 138.84864352 21.79745121 137.30489711 30.65301514 132.5531311 C37.28897944 128.1291549 41.02386378 121.20936384 42.89910889 113.5453186 C44.24961366 105.33636804 42.18468307 97.39639074 37.88348389 90.3187561 C33.02293125 84.21427057 26.02498503 80.23884834 18.36004639 78.7484436 C13.99020242 78.40111774 10.14683523 78.51955958 5.92254639 79.7484436 C2.87540623 80.60378119 0.36863372 81.06329812 -2.76495361 81.2484436 C-3.57190674 81.3000061 -4.37885986 81.3515686 -5.21026611 81.4046936 C-8.13339037 80.61516808 -9.69269593 79.36301173 -11.56784058 77.00076294 C-14.0876315 71.70712913 -13.34952118 65.26216653 -13.30401611 59.4984436 C-13.30738793 57.99681201 -13.3122436 56.49518309 -13.31851196 54.99356079 C-13.32586624 51.85299587 -13.31522577 48.71314408 -13.29180908 45.57266235 C-13.26332061 41.55741612 -13.27973258 37.54384099 -13.3096714 33.52865601 C-13.32778444 30.42979458 -13.32196836 27.33132599 -13.30903244 24.23245239 C-13.30570941 22.75255126 -13.3097466 21.27261386 -13.32143021 19.79275513 C-13.33420713 17.71973945 -13.31467527 15.64938704 -13.28692627 13.5765686 C-13.2829483 12.39997681 -13.27897034 11.22338501 -13.27487183 10.01113892 C-11.76970644 2.27644812 -7.41305097 -0.154663 0 0 Z " fill="#3197CF" transform="translate(309.63995361328125,-0.748443603515625)"/>
<path d="M0 0 C4.37758112 2.34513274 4.37758112 2.34513274 6 5 C6.79658808 8.49581819 6.75872644 11.49951211 6 15 C3.48577015 18.73325038 1.86635918 19.74796824 -2.4375 21 C-6.53094236 21 -8.59065251 20.22004022 -12 18 C-14.82827437 13.75758844 -14.8876122 9.97696843 -14 5 C-10.90973636 -0.13529105 -5.51511126 -1.31312173 0 0 Z " fill="#3197CF" transform="translate(506,100)"/>
</svg>
