<?xml version="1.0" encoding="UTF-8"?>
<svg version="1.1" xmlns="http://www.w3.org/2000/svg" width="512" height="512">
<path d="M0 0 C1.50184341 -0.01007584 1.50184341 -0.01007584 3.0340271 -0.02035522 C6.31830917 -0.03923384 9.60238593 -0.04325377 12.88671875 -0.04541016 C15.18400148 -0.05184323 17.48128341 -0.05857197 19.77856445 -0.06558228 C24.5831899 -0.07752831 29.38774357 -0.08126566 34.19238281 -0.08007812 C40.33564447 -0.07987466 46.47844498 -0.10721795 52.62159729 -0.14162254 C57.36236673 -0.16390026 62.10302513 -0.16791545 66.84384155 -0.16685867 C69.1083638 -0.16921172 71.37288924 -0.17801842 73.63735962 -0.19352341 C76.80804502 -0.21320809 79.97773468 -0.20733591 83.1484375 -0.1953125 C84.53740738 -0.21217102 84.53740738 -0.21217102 85.95443726 -0.22937012 C95.49855686 -0.13780795 103.67667601 3.71244974 110.57421875 10.29052734 C116.43159719 17.52458454 118.48662222 24.20863153 119.57421875 33.29052734 C120.60160156 33.48646484 121.62898438 33.68240234 122.6875 33.88427734 C133.08597135 36.05052071 141.73288584 39.04080667 148.5078125 47.78662109 C153.81663031 56.15087361 154.84218009 63.33506974 154.70703125 73.04443359 C154.70783745 75.13623193 154.71049755 77.22803024 154.71484375 79.31982422 C154.71287563 82.59452595 154.69901757 85.86744307 154.65332031 89.1418457 C154.61425473 92.3187831 154.62539287 95.49238333 154.64453125 98.66943359 C154.61884064 99.64457413 154.59315002 100.61971466 154.56668091 101.62440491 C154.59148412 106.88009741 154.59148412 106.88009741 157.33172607 111.15426636 C159.43277741 112.74620531 159.43277741 112.74620531 161.61886597 113.99742126 C165.22427751 116.3817376 166.82273418 120.01222506 168.16081238 124.06892395 C168.73102259 127.13317505 168.72653762 130.09440883 168.7512207 133.21118164 C168.7577919 133.89956619 168.7643631 134.58795074 168.77113342 135.29719543 C168.79080179 137.56971358 168.80251606 139.84216575 168.8125 142.11474609 C168.81657553 142.89418894 168.82065105 143.67363178 168.82485008 144.47669411 C168.84568579 148.60433306 168.85999688 152.73193904 168.86938477 156.85961914 C168.88042913 161.10521392 168.91481294 165.35028172 168.95455647 169.59569073 C168.98080833 172.87556374 168.98908427 176.15531294 168.99266624 179.43528175 C168.99751205 180.99926108 169.00906833 182.56323563 169.02770424 184.12711143 C169.15998839 195.96618926 167.8178054 204.56026932 159.5 213.50146484 C151.29611177 221.12292693 143.09443778 222.59828586 132.19921875 222.41552734 C131.17699219 222.40650391 130.15476562 222.39748047 129.1015625 222.38818359 C126.59220353 222.36473164 124.08333539 222.3319109 121.57421875 222.29052734 C121.32027344 223.01498047 121.06632812 223.73943359 120.8046875 224.48583984 C117.21824862 232.66064338 109.34870272 241.39219561 101.69140625 246.04052734 C98.58762397 247.94566225 96.05526348 249.61660988 93.57421875 252.29052734 C92.17223869 258.19583728 92.45203324 263.99694533 95.57421875 269.29052734 C96.23421875 268.81615234 96.89421875 268.34177734 97.57421875 267.85302734 C103.26621294 264.88844704 108.18222836 264.8213784 114.29663086 266.44995117 C118.8704846 268.13799688 122.8523078 270.93688977 126.94921875 273.54052734 C134.54908321 278.21589668 141.73626945 281.77195328 150.27319336 284.32250977 C155.22911111 285.80742683 159.86174146 287.57810411 164.51171875 289.85302734 C165.61386719 290.39056641 166.71601563 290.92810547 167.8515625 291.48193359 C170.85780948 293.47890971 172.10105257 295.01968634 173.57421875 298.29052734 C173.50518826 301.74205173 173.22365193 303.54118137 170.94921875 306.16552734 C167.6479211 307.72929991 165.21097534 307.52770712 161.57421875 307.29052734 C158.21484375 306.08349609 158.21484375 306.08349609 154.82421875 304.47802734 C148.8782399 301.67788614 142.94505685 299.90203417 136.57421875 298.29052734 C131.99907678 302.84013509 127.42800188 307.39380056 122.85961914 311.95019531 C121.30779987 313.49701236 119.75508094 315.04292741 118.20141602 316.58789062 C115.95737465 318.81968522 113.71668071 321.05479579 111.4765625 323.29052734 C110.79085678 323.97107178 110.10515106 324.65161621 109.39866638 325.3527832 C105.44978353 329.30121425 101.69414828 333.35399998 98.06950378 337.60281372 C96.20096141 339.71181926 94.1906838 341.46201391 91.94921875 343.16552734 C91.23507812 343.71982422 90.5209375 344.27412109 89.78515625 344.84521484 C85.42030381 347.69856361 81.96022094 348.54079246 76.76171875 348.41552734 C75.78589844 348.39748047 74.81007812 348.37943359 73.8046875 348.36083984 C72.70060547 348.32603516 72.70060547 348.32603516 71.57421875 348.29052734 C71.16236328 349.39847656 71.16236328 349.39847656 70.7421875 350.52880859 C69.35556511 353.80754448 67.49444155 356.58270615 65.5 359.52099609 C63.1537278 366.54001294 66.05220576 375.60211875 67.34008789 382.74145508 C67.60365334 384.22871346 67.60365334 384.22871346 67.87254333 385.74601746 C68.44809767 388.9893316 69.02880012 392.23170229 69.609375 395.47412109 C70.0119102 397.739436 70.41403911 400.00482314 70.81578064 402.27027893 C71.8697381 408.20928754 72.92771313 414.14757212 73.98699951 420.08563232 C75.68663153 429.61394981 77.38264696 439.14290452 79.07388115 448.67271614 C79.66549961 452.0007575 80.26038321 455.32820421 80.85548401 458.65562439 C81.21637329 460.68551254 81.57713377 462.7154236 81.93774414 464.74536133 C82.10448639 465.67264038 82.27122864 466.59991943 82.44302368 467.55529785 C82.59303329 468.40321396 82.74304291 469.25113007 82.89759827 470.1247406 C83.02903764 470.86117011 83.16047701 471.59759962 83.29589939 472.35634518 C83.57421875 474.29052734 83.57421875 474.29052734 83.57421875 477.29052734 C84.14162781 477.27942429 84.70903687 477.26832123 85.29364014 477.25688171 C91.19820416 477.146281 97.10247412 477.07085777 103.0078125 477.01586914 C105.21171011 476.9907216 107.4155243 476.95659907 109.61914062 476.91333008 C112.78666761 476.85269048 115.95309235 476.82431986 119.12109375 476.80224609 C120.10664246 476.77643967 121.09219116 476.75063324 122.10760498 476.7240448 C128.93606971 476.72124374 128.93606971 476.72124374 132.19628906 479.62963867 C133.87746811 482.87612529 134.18801263 484.68448827 133.57421875 488.29052734 C131.70711965 490.59328291 130.21774134 491.96876605 127.57421875 493.29052734 C126.18269841 493.38494247 124.78675651 493.4178773 123.39203739 493.4191618 C122.51005651 493.42238624 121.62807562 493.42561069 120.71936804 493.42893285 C119.74439617 493.42738424 118.76942431 493.42583564 117.76490784 493.42424011 C116.21815295 493.42763845 116.21815295 493.42763845 114.64015049 493.43110543 C111.16186324 493.43746899 107.68361472 493.43661455 104.20532227 493.43579102 C101.72044321 493.43878117 99.23556462 493.44218336 96.75068665 493.44596863 C90.68594541 493.45390867 84.62121957 493.45702412 78.55647457 493.45758101 C73.6238344 493.4580559 68.69119743 493.4601093 63.75855827 493.46328163 C49.77036302 493.47209448 35.78217544 493.47670044 21.79397739 493.47595116 C21.03930128 493.4759112 20.28462516 493.47587125 19.50708008 493.47583008 C18.75148034 493.4757892 17.99588061 493.47574832 17.21738391 493.4757062 C4.99026096 493.47530034 -7.23683111 493.48485298 -19.46394514 493.49896844 C-32.02189158 493.51335112 -44.57982298 493.52023748 -57.13777786 493.51937467 C-64.18657074 493.51904318 -71.2353313 493.52176869 -78.28411674 493.53255272 C-84.92016642 493.54264003 -91.55615971 493.54230294 -98.19221687 493.53503609 C-100.62417322 493.53399181 -103.05613384 493.53634379 -105.48808289 493.54239655 C-108.81667394 493.55014208 -112.14503134 493.54545448 -115.47361755 493.5377655 C-116.42851293 493.54290907 -117.3834083 493.54805263 -118.36723989 493.55335206 C-132.44365512 493.48185776 -143.97473973 490.34040574 -154.38671875 480.51708984 C-165.69970403 468.16383006 -165.91641861 453.83120037 -165.81689453 437.9609375 C-165.80100091 434.95704391 -165.81669787 431.95453284 -165.8359375 428.95068359 C-165.87838637 390.50563148 -155.30354282 355.9636628 -130.42578125 326.29052734 C-129.70003906 325.42169922 -128.97429687 324.55287109 -128.2265625 323.65771484 C-123.97986288 318.7352143 -119.4666433 314.38997204 -114.42578125 310.29052734 C-113.02392578 309.13230469 -113.02392578 309.13230469 -111.59375 307.95068359 C-98.18288156 297.10664016 -82.53900861 288.22405592 -65.81884766 283.75952148 C-56.82782501 281.31589398 -49.64743738 277.07904571 -41.95874023 271.83520508 C-35.89745726 267.79923333 -29.67191968 264.59749084 -22.17480469 265.58789062 C-20.23249467 266.05895662 -18.32508537 266.66834151 -16.42578125 267.29052734 C-15.09495671 267.63373999 -13.76217304 267.96967557 -12.42578125 268.29052734 C-9.91539603 263.26975691 -10.10133452 257.61613879 -11.42578125 252.29052734 C-14.65788419 248.16914825 -19.37056986 245.46767267 -23.66064453 242.56103516 C-39.54294311 231.12929493 -48.24132879 208.95030141 -51.42578125 190.29052734 C-51.42578125 189.30052734 -51.42578125 188.31052734 -51.42578125 187.29052734 C-52.33199219 187.32533203 -53.23820312 187.36013672 -54.171875 187.39599609 C-64.36360049 187.62247888 -72.24411515 187.13137368 -79.921875 179.97021484 C-84.29228047 175.08898276 -86.49689987 169.75735871 -86.61865234 163.23144531 C-86.63471527 162.44317352 -86.6507782 161.65490173 -86.66732788 160.84274292 C-86.71226406 157.235507 -86.75286586 153.62844736 -86.77587891 150.02099609 C-86.79238788 148.12796695 -86.81961069 146.23499883 -86.85791016 144.34228516 C-87.28602217 123.04092032 -87.28602217 123.04092032 -81.42578125 116.29052734 C-80.01399325 115.33984953 -78.5930214 114.40269491 -77.1640625 113.47802734 C-74.85691812 111.6232111 -73.62821342 110.22140192 -72.99212646 107.29638672 C-72.30941069 100.98271044 -72.49737729 94.62978599 -72.61328125 88.29052734 C-72.64830103 84.49875276 -72.66064676 80.70745508 -72.65625 76.91552734 C-72.65610397 75.99878738 -72.65595795 75.08204742 -72.6558075 74.13752747 C-72.45831367 53.648263 -65.01010531 35.64857277 -50.61328125 20.97802734 C-36.82060333 7.46427331 -19.25274578 -0.01884506 0 0 Z M-42.2578125 35.66162109 C-55.93302117 52.2443516 -57.09370682 70.10386915 -56.94726562 90.79150391 C-56.9256191 94.44287967 -56.94725916 98.09233239 -56.97265625 101.74365234 C-56.97001639 104.07438583 -56.96489853 106.40511814 -56.95703125 108.73583984 C-56.96512817 109.8222879 -56.9732251 110.90873596 -56.98156738 112.02810669 C-56.91265747 117.98143122 -56.91265747 117.98143122 -54.66308594 123.40014648 C-52.43817844 125.2800525 -50.86345319 126.24181382 -48.09765625 127.09130859 C-47.2984375 127.34589844 -46.49921875 127.60048828 -45.67578125 127.86279297 C-44.43828125 128.22920898 -44.43828125 128.22920898 -43.17578125 128.60302734 C-41.91507813 128.99844727 -41.91507813 128.99844727 -40.62890625 129.40185547 C-38.5658689 130.04655464 -36.49640285 130.67061903 -34.42578125 131.29052734 C-34.41119873 130.29311523 -34.39661621 129.29570312 -34.3815918 128.26806641 C-34.3229123 124.51040641 -34.24569532 120.75330291 -34.16333008 116.99609375 C-34.13040398 115.38062683 -34.10227545 113.76505378 -34.0793457 112.14941406 C-33.86798703 97.64211483 -33.06718745 84.75795032 -22.83203125 73.54443359 C-16.43306472 67.49258082 -8.25084629 64.7254354 0.4453125 64.18115234 C8.15743589 64.45073968 15.87159516 66.20059458 23.25 68.37255859 C28.94431158 69.80565123 34.73521905 69.67243548 40.57421875 69.66552734 C41.77377197 69.66609131 42.9733252 69.66665527 44.20922852 69.66723633 C52.36008664 69.56660845 59.42711788 68.56631788 67.20703125 66.25537109 C77.63573951 63.26709854 88.56688873 63.47553835 98.32421875 68.47802734 C107.21520072 73.95550731 112.52595732 81.2041136 115.11352539 91.41967773 C115.72518482 95.23128516 115.80847985 99.02138883 115.890625 102.87255859 C115.92179665 104.09382698 115.92179665 104.09382698 115.95359802 105.33976746 C116.01871338 107.92743914 116.07780083 110.51520787 116.13671875 113.10302734 C116.17994017 114.8628028 116.2235556 116.62256862 116.26757812 118.38232422 C116.37435555 122.68496043 116.47572893 126.98769377 116.57421875 131.29052734 C119.49622571 130.38867334 122.4109693 129.46990754 125.32421875 128.54052734 C126.14921875 128.28787109 126.97421875 128.03521484 127.82421875 127.77490234 C128.6234375 127.51708984 129.42265625 127.25927734 130.24609375 126.99365234 C131.3458252 126.64802246 131.3458252 126.64802246 132.46777344 126.29541016 C135.17426062 125.00427649 136.65504461 123.60061497 138.57421875 121.29052734 C139.16941416 118.63918592 139.16941416 118.63918592 139.07592773 115.69921875 C139.08530869 114.57770416 139.09468964 113.45618958 139.10435486 112.3006897 C139.09312088 111.09335175 139.0818869 109.88601379 139.0703125 108.64208984 C139.07176773 107.39680511 139.07322296 106.15152039 139.07472229 104.86849976 C139.07306177 102.23355017 139.06356997 99.60004231 139.04077148 96.96533203 C139.0180706 94.26880906 139.01103796 91.57306819 139.02026367 88.87646484 C139.03287469 84.98560892 139.02416529 81.09542185 139.0078125 77.20458984 C139.01074814 76.00130035 139.01368378 74.79801086 139.01670837 73.55825806 C138.93287891 66.10452373 138.22150842 61.45256778 133.32421875 55.60302734 C128.92620853 51.90470057 124.74912413 50.28733133 119.07421875 49.85302734 C114.25798623 49.42564835 111.48013826 48.18090778 107.57421875 45.29052734 C104.81369375 41.44551037 104.15030723 37.40989081 103.19921875 32.85302734 C101.93206345 27.09502112 100.60662642 23.60426578 96.57421875 19.29052734 C90.43681883 15.45465239 84.59971322 15.14095857 77.51782227 15.14526367 C76.32150932 15.14022575 76.32150932 15.14022575 75.10102844 15.13508606 C72.46837801 15.12560177 69.83579146 15.12363359 67.203125 15.12255859 C65.36050898 15.11934207 63.51789321 15.1159777 61.67527771 15.11247253 C57.80930999 15.10648599 53.9433646 15.10463193 50.07739258 15.10522461 C45.15877396 15.1053257 40.24030143 15.09172645 35.32171726 15.0744524 C31.51150374 15.06324623 27.70132442 15.0613081 23.89109612 15.06183434 C22.08008259 15.06066512 20.26906786 15.05630387 18.45807076 15.04850197 C-5.00223369 14.95696861 -25.25108257 17.87228058 -42.2578125 35.66162109 Z M-11.49609375 84.02490234 C-17.70595303 90.72843245 -18.71002325 97.24264443 -18.734375 106.07568359 C-18.75952045 107.7573279 -18.78491867 109.43896845 -18.81054688 111.12060547 C-18.839313 113.74274838 -18.86336546 116.36482638 -18.88208008 118.98706055 C-18.90379118 121.53775767 -18.94321219 124.08773688 -18.984375 126.63818359 C-18.98449081 127.41646011 -18.98460663 128.19473663 -18.98472595 128.99659729 C-19.07170732 133.80736624 -19.79114696 137.11487315 -22.42578125 141.29052734 C-26.87856287 145.01843753 -30.92019874 145.99776441 -36.42578125 147.29052734 C-36.47617227 151.43073068 -36.5119552 155.57075968 -36.53564453 159.71118164 C-36.54554611 161.11225503 -36.55907094 162.51330868 -36.57666016 163.91430664 C-36.88402918 189.07336533 -31.94195598 210.35027337 -14.42578125 229.29052734 C2.76191813 245.60575467 23.69314323 251.89610824 46.953125 251.56005859 C62.41633879 251.03487332 77.09540259 244.21220793 89.57421875 235.29052734 C89.57421875 234.96052734 89.57421875 234.63052734 89.57421875 234.29052734 C88.58421875 234.26474609 87.59421875 234.23896484 86.57421875 234.21240234 C77.78237162 233.87849246 70.53532619 233.46011412 64.19921875 226.79052734 C63.66296875 225.96552734 63.12671875 225.14052734 62.57421875 224.29052734 C62.18234375 223.69240234 61.79046875 223.09427734 61.38671875 222.47802734 C59.00823018 216.07440426 59.02085872 209.60789225 61.57421875 203.29052734 C65.21534781 197.21492247 68.98369554 194.70738261 75.73388672 192.85742188 C80.70062106 191.8661242 85.58812344 191.8581207 90.63671875 191.91552734 C92.17295898 191.898125 92.17295898 191.898125 93.74023438 191.88037109 C101.90732307 191.91168262 108.34275146 193.57137171 115.57421875 197.29052734 C118.58835419 186.16054057 118.94388476 175.85646924 118.76171875 164.41552734 C118.74662625 162.74496666 118.73294602 161.07439259 118.72070312 159.40380859 C118.6881011 155.36570934 118.63657898 151.32827213 118.57421875 147.29052734 C117.88714844 147.10224365 117.20007813 146.91395996 116.4921875 146.7199707 C115.14060547 146.3353064 115.14060547 146.3353064 113.76171875 145.94287109 C112.86839844 145.6927124 111.97507812 145.44255371 111.0546875 145.18481445 C107.00188588 143.72365182 104.84046447 141.14586111 102.46850586 137.67041016 C101.11399633 134.06578036 101.27570002 130.4507202 101.265625 126.64990234 C101.24045495 124.92203453 101.21505708 123.19417003 101.18945312 121.46630859 C101.16079237 118.75651993 101.13676229 116.04678892 101.11791992 113.33691406 C101.09611958 110.71176918 101.05666163 108.0873071 101.015625 105.46240234 C101.01545128 104.26354401 101.01545128 104.26354401 101.01527405 103.04046631 C100.90581093 96.74375455 99.82603241 91.10039917 95.77734375 86.04833984 C90.20876635 81.39300914 85.63933003 78.93795263 78.19921875 79.41552734 C74.42947309 79.86924116 70.92528758 80.75229467 67.28027344 81.7980957 C47.09302262 87.34788055 25.62058027 85.25986946 5.67944336 79.74951172 C-0.47193201 78.4083792 -6.70026975 80.00726865 -11.49609375 84.02490234 Z M-70.42578125 129.29052734 C-70.54965345 134.32583697 -70.64024639 139.36025432 -70.70043945 144.39672852 C-70.72553839 146.10879979 -70.75962554 147.82076438 -70.80297852 149.5324707 C-70.86383864 151.9976638 -70.89203557 154.4614372 -70.9140625 156.92724609 C-70.93986893 157.68889572 -70.96567535 158.45054535 -70.99226379 159.23527527 C-70.99439477 163.30007414 -70.61808767 165.05387705 -68.02026367 168.25073242 C-62.18238829 172.84049894 -62.29999763 171.29052734 -52.42578125 171.29052734 C-52.42578125 161.72052734 -52.42578125 152.15052734 -52.42578125 142.29052734 C-56.05578125 140.31052734 -59.68578125 138.33052734 -63.42578125 136.29052734 C-67.05078125 132.41552734 -67.05078125 132.41552734 -69.42578125 129.29052734 C-69.75578125 129.29052734 -70.08578125 129.29052734 -70.42578125 129.29052734 Z M151.57421875 129.29052734 C151.0328125 130.20060547 150.49140625 131.11068359 149.93359375 132.04833984 C146.39646492 137.48835444 140.21025822 139.47250761 134.57421875 142.29052734 C134.57421875 151.86052734 134.57421875 161.43052734 134.57421875 171.29052734 C143.89737041 172.04839213 143.89737041 172.04839213 150.57421875 168.29052734 C153.09983523 164.50210262 152.82813448 161.50519405 152.76953125 157.12255859 C152.76528641 155.93033943 152.76528641 155.93033943 152.76095581 154.71403503 C152.7497658 152.17687896 152.72466366 149.64007662 152.69921875 147.10302734 C152.68918741 145.38232932 152.68006183 143.66162576 152.671875 141.94091797 C152.64983036 137.72398492 152.61530881 133.50731609 152.57421875 129.29052734 C152.24421875 129.29052734 151.91421875 129.29052734 151.57421875 129.29052734 Z M149.96484375 185.75537109 C146.76012539 186.4727672 143.59977037 186.64072307 140.32421875 186.85302734 C136.98296875 187.06958984 136.98296875 187.06958984 133.57421875 187.29052734 C132.25421875 193.56052734 130.93421875 199.83052734 129.57421875 206.29052734 C138.5732385 206.84186004 138.5732385 206.84186004 146.57421875 203.29052734 C151.02206402 198.78142638 151.02206402 198.78142638 152.671875 192.90771484 C152.66027344 192.00279297 152.64867187 191.09787109 152.63671875 190.16552734 C152.62769531 189.25544922 152.61867188 188.34537109 152.609375 187.40771484 C152.59777344 186.70904297 152.58617187 186.01037109 152.57421875 185.29052734 C151.45514642 185.24427871 151.45514642 185.24427871 149.96484375 185.75537109 Z M74.57421875 212.29052734 C75.66206843 215.54035869 75.66206843 215.54035869 77.57421875 218.29052734 C81.69225518 218.57159291 85.82273326 218.52234899 89.94921875 218.54052734 C91.11195313 218.56115234 92.2746875 218.58177734 93.47265625 218.60302734 C94.58640625 218.60818359 95.70015625 218.61333984 96.84765625 218.61865234 C97.87294434 218.62799805 98.89823242 218.63734375 99.95458984 218.64697266 C102.59364361 218.49470939 102.59364361 218.49470939 104.43994141 216.96142578 C105.87486244 215.20417924 105.87486244 215.20417924 105.44921875 212.22802734 C104.82771462 208.99797319 104.82771462 208.99797319 101.57421875 207.29052734 C97.96551574 206.80573584 94.33703143 206.87409576 90.69921875 206.85302734 C89.70535156 206.82015625 88.71148437 206.78728516 87.6875 206.75341797 C81.38403079 206.70700688 78.36918923 207.09092494 74.57421875 212.29052734 Z M5.57421875 261.29052734 C5.45304688 262.03818359 5.331875 262.78583984 5.20703125 263.55615234 C5.03945312 264.54099609 4.871875 265.52583984 4.69921875 266.54052734 C4.53679687 267.51505859 4.374375 268.48958984 4.20703125 269.49365234 C3.57421875 272.29052734 3.57421875 272.29052734 2.44140625 274.39990234 C1.3947459 276.24723451 1.3947459 276.24723451 1.81176758 278.26245117 C2.75656412 280.77555551 3.60173535 281.30620863 5.90625 282.63037109 C6.61346191 283.04762451 7.32067383 283.46487793 8.04931641 283.89477539 C8.82065918 284.33474854 9.59200195 284.77472168 10.38671875 285.22802734 C12.01728375 286.1887593 13.64612318 287.15242451 15.2734375 288.11865234 C16.13243652 288.6271875 16.99143555 289.13572266 17.87646484 289.65966797 C22.55557663 292.48830749 27.12528606 295.48330336 31.69921875 298.47802734 C33.02336792 299.3431897 33.02336792 299.3431897 34.37426758 300.22583008 C36.44233448 301.57858865 38.50904088 302.933364 40.57421875 304.29052734 C48.04884468 300.31292858 55.15006342 295.81632774 62.26171875 291.22802734 C63.36322266 290.52097656 64.46472656 289.81392578 65.59960938 289.08544922 C70.6184896 285.85967527 75.61618808 282.60886546 80.57421875 279.29052734 C79.8062684 275.33148232 78.92430569 271.40611894 78.01171875 267.47802734 C77.74230469 266.31658203 77.47289062 265.15513672 77.1953125 263.95849609 C76.99035156 263.07806641 76.78539062 262.19763672 76.57421875 261.29052734 C75.37796875 261.55865234 74.18171875 261.82677734 72.94921875 262.10302734 C72.11132812 262.28220703 71.2734375 262.46138672 70.41015625 262.64599609 C68.50763081 263.07838824 66.61590526 263.56112551 64.73828125 264.09130859 C48.63005721 268.28740152 30.95889178 267.84749625 15 263.26318359 C11.85833411 262.37119408 8.80231726 261.76160163 5.57421875 261.29052734 Z M-30.80078125 284.10302734 C-32.26644531 284.88613281 -32.26644531 284.88613281 -33.76171875 285.68505859 C-36.07849168 287.081237 -37.58695287 288.36046452 -39.42578125 290.29052734 C-34.0537813 295.80148685 -28.6656682 301.29624135 -23.25648212 306.7706995 C-20.74530283 309.31320507 -18.24001188 311.86099251 -15.74731445 314.42163086 C-12.88195246 317.36459663 -9.99269091 320.28302486 -7.1015625 323.20068359 C-5.76222404 324.58647362 -5.76222404 324.58647362 -4.39582825 326.0002594 C-3.55533432 326.84120651 -2.71484039 327.68215363 -1.84887695 328.54858398 C-1.11385452 329.29693008 -0.37883209 330.04527618 0.37846375 330.81629944 C2.49637089 332.55936241 2.49637089 332.55936241 5.18733215 332.13816833 C8.33259633 331.02120918 10.351383 329.3302858 12.88671875 327.16552734 C13.83804688 326.35728516 14.789375 325.54904297 15.76953125 324.71630859 C16.69507813 323.91580078 17.620625 323.11529297 18.57421875 322.29052734 C19.39664063 321.60345703 20.2190625 320.91638672 21.06640625 320.20849609 C23.90539741 317.84060243 23.90539741 317.84060243 26.57421875 315.29052734 C26.57421875 314.63052734 26.57421875 313.97052734 26.57421875 313.29052734 C25.14185123 312.14507666 25.14185123 312.14507666 23.234375 311.07568359 C22.50976074 310.64247803 21.78514648 310.20927246 21.03857422 309.76293945 C20.24596191 309.29766846 19.45334961 308.83239746 18.63671875 308.35302734 C16.97280915 307.35754982 15.31007526 306.36010488 13.6484375 305.36083984 C12.79942871 304.85069336 11.95041992 304.34054687 11.07568359 303.81494141 C7.31887545 301.52551041 3.63174883 299.13452694 -0.05078125 296.72802734 C-5.81369948 292.9730404 -11.59903319 289.258345 -17.42578125 285.60302734 C-18.11494629 285.16853271 -18.80411133 284.73403809 -19.51416016 284.28637695 C-24.94922441 280.88859413 -25.20560866 281.08515866 -30.80078125 284.10302734 Z M105.50415039 281.96655273 C104.47342407 282.60838501 104.47342407 282.60838501 103.421875 283.26318359 C102.63925293 283.73957275 101.85663086 284.21596191 101.05029297 284.70678711 C100.23318848 285.22942139 99.41608398 285.75205566 98.57421875 286.29052734 C97.76098145 286.79318115 96.94774414 287.29583496 96.10986328 287.8137207 C93.47921559 289.45068691 90.86870328 291.11615127 88.26171875 292.79052734 C87.32054199 293.39421143 86.37936523 293.99789551 85.40966797 294.61987305 C83.45101696 295.87709095 81.49301417 297.13531929 79.53564453 298.39453125 C76.59836257 300.27506972 73.64849181 302.13429625 70.6953125 303.98974609 C68.86306487 305.15216551 67.03102502 306.31491252 65.19921875 307.47802734 C64.33127686 308.01814453 63.46333496 308.55826172 62.5690918 309.11474609 C61.77929932 309.62005859 60.98950684 310.12537109 60.17578125 310.64599609 C59.47791504 311.08580811 58.78004883 311.52562012 58.06103516 311.97875977 C57.32506104 312.62808472 57.32506104 312.62808472 56.57421875 313.29052734 C56.24312307 316.24644832 56.24312307 316.24644832 57.88769531 317.77685547 C58.4906543 318.28667969 59.09361328 318.79650391 59.71484375 319.32177734 C60.37355469 319.88509766 61.03226563 320.44841797 61.7109375 321.02880859 C62.40832031 321.61017578 63.10570312 322.19154297 63.82421875 322.79052734 C64.50613281 323.37189453 65.18804687 323.95326172 65.890625 324.55224609 C67.77233558 326.14895974 69.65815633 327.7351956 71.57421875 329.29052734 C72.20682617 329.86867188 72.83943359 330.44681641 73.49121094 331.04248047 C75.50898242 332.52395659 75.50898242 332.52395659 77.93370056 332.1108551 C81.13892356 331.11509093 82.55317129 329.79480759 84.90551758 327.41333008 C85.72599075 326.59255478 86.54646393 325.77177948 87.39179993 324.9261322 C88.26281845 324.03446854 89.13383698 323.14280487 90.03125 322.22412109 C90.9342131 321.3154982 91.83717621 320.40687531 92.76750183 319.47071838 C95.16182823 317.0611581 97.5438965 314.63982748 99.92358398 312.21582031 C102.35645964 309.74194342 104.80077342 307.27942543 107.24414062 304.81591797 C112.0314365 299.98451318 116.80713333 295.14187014 121.57421875 290.29052734 C114.35851385 283.51291075 114.35851385 283.51291075 105.50415039 281.96655273 Z M-112.55078125 330.91552734 C-124.29476672 342.72782422 -132.63632534 356.14851765 -139.42578125 371.29052734 C-139.90789062 372.35529297 -140.39 373.42005859 -140.88671875 374.51708984 C-147.16364738 389.54367657 -149.54968711 406.09552695 -149.62890625 422.29443359 C-149.63460632 423.21715561 -149.6403064 424.13987762 -149.6461792 425.09056091 C-149.6555618 427.02756628 -149.66213608 428.96458712 -149.66601562 430.90161133 C-149.67576657 433.84858961 -149.7068721 436.79488264 -149.73828125 439.74169922 C-149.74480878 441.63427325 -149.75006023 443.52685221 -149.75390625 445.41943359 C-149.76625305 446.29048233 -149.77859985 447.16153107 -149.7913208 448.05897522 C-149.75861176 457.11866717 -146.87093273 464.7757738 -140.42578125 471.29052734 C-133.18326635 476.45097888 -126.84337604 477.44768682 -118.0625 477.38818359 C-117.27051712 477.38676865 -116.47853424 477.3853537 -115.66255188 477.38389587 C-113.14608906 477.37832192 -110.62971694 477.36577427 -108.11328125 477.35302734 C-106.401694 477.34800898 -104.69010534 477.34344666 -102.97851562 477.33935547 C-98.79423617 477.32836102 -94.61002406 477.31111441 -90.42578125 477.29052734 C-90.41643555 476.12481201 -90.40708984 474.95909668 -90.39746094 473.75805664 C-90.35760943 469.43588955 -90.29186477 465.11443792 -90.21826172 460.79272461 C-90.19002388 458.9217243 -90.16882335 457.05060408 -90.15478516 455.17944336 C-90.13339408 452.49058514 -90.0867658 449.80317296 -90.03515625 447.11474609 C-90.03392761 446.27715256 -90.03269897 445.43955902 -90.03143311 444.57658386 C-89.88533633 438.79318844 -89.88533633 438.79318844 -87.57519531 436.26635742 C-84.6106406 434.92045497 -82.64533181 434.82100955 -79.42578125 435.29052734 C-77.27636719 436.77392578 -77.27636719 436.77392578 -75.42578125 439.29052734 C-75.00840992 442.30470994 -74.82065934 444.97699529 -74.81640625 447.99365234 C-74.80077637 448.73663574 -74.78514648 449.47961914 -74.76904297 450.24511719 C-74.71660003 453.00993133 -74.69820319 455.77530678 -74.67578125 458.54052734 C-74.59328125 464.72802734 -74.51078125 470.91552734 -74.42578125 477.29052734 C-50.33578125 477.29052734 -26.24578125 477.29052734 -1.42578125 477.29052734 C0.36182895 469.54421647 2.1001359 461.90730299 3.4753418 454.09741211 C3.64159058 453.16880875 3.80783936 452.24020538 3.97912598 451.28346252 C4.51817246 448.26688781 5.05232101 445.24947321 5.5859375 442.23193359 C5.9626493 440.11251802 6.33950836 437.99312861 6.71650696 435.87376404 C7.50121148 431.45750671 8.2833229 427.04079962 9.0637207 422.6237793 C10.06328035 416.96822544 11.07064656 411.3140931 12.08008099 405.66029453 C12.85832454 401.29518998 13.63181734 396.92925364 14.4039402 392.56306267 C14.77351813 390.47720709 15.14471731 388.39163809 15.51758385 386.30636787 C16.03707741 383.3977187 16.55000156 380.48798382 17.0612793 377.57788086 C17.21552872 376.7222052 17.36977814 375.86652954 17.52870178 374.98492432 C19.17240861 365.53757819 18.15017234 359.40077209 13.0546875 351.24755859 C10.87038776 348.14465362 10.87038776 348.14465362 7.875 347.30224609 C5.10589164 347.1009093 5.10589164 347.1009093 2.48046875 347.40771484 C-6.89629072 347.0296197 -13.11868 339.08954152 -19.19921875 332.83740234 C-20.21329258 331.81076716 -21.22841733 330.78516907 -22.24453735 329.76055908 C-24.89916661 327.07949521 -27.54237157 324.38747693 -30.18237305 321.6920166 C-34.42587338 317.36177705 -38.68338448 313.0454099 -42.94716263 308.73514557 C-44.43327948 307.22856114 -45.9124081 305.71535894 -47.39096069 304.20135498 C-48.28594269 303.29331116 -49.18092468 302.38526733 -50.10302734 301.44970703 C-50.89164154 300.64458679 -51.68025574 299.83946655 -52.49276733 299.00994873 C-64.56970081 288.26748199 -104.01373906 322.57788321 -112.55078125 330.91552734 Z M40.57421875 324.29052734 C39.59839844 325.13357422 38.62257812 325.97662109 37.6171875 326.84521484 C36.33210644 327.95207298 35.04694605 329.05883901 33.76171875 330.16552734 C32.79782227 330.99890625 32.79782227 330.99890625 31.81445312 331.84912109 C31.19248047 332.38408203 30.57050781 332.91904297 29.9296875 333.47021484 C29.35887451 333.96247559 28.78806152 334.45473633 28.19995117 334.96191406 C26.57421875 336.29052734 26.57421875 336.29052734 23.57421875 338.29052734 C23.86425781 339.00595703 24.15429688 339.72138672 24.453125 340.45849609 C25.57421875 343.29052734 25.57421875 343.29052734 26.4140625 345.96630859 C27.77263394 349.22978091 28.84880939 350.99589474 31.57421875 353.29052734 C37.59905112 355.27101363 44.57645217 355.402991 50.57421875 353.29052734 C54.86509549 350.10489521 57.1817113 345.36980562 58.57421875 340.29052734 C57.63406831 336.2728532 54.379979 334.22179163 51.26171875 331.72802734 C50.31683594 330.96361328 49.37195313 330.19919922 48.3984375 329.41162109 C45.86587405 327.50957136 43.32302706 325.85769857 40.57421875 324.29052734 Z M34.57421875 369.29052734 C32.84906444 374.4426041 32.84906444 374.4426041 31.68832397 379.61621094 C31.54253403 380.42354675 31.39674408 381.23088257 31.24653625 382.06268311 C31.01887825 383.36269257 31.01887825 383.36269257 30.78662109 384.68896484 C30.62051834 385.61654602 30.45441559 386.5441272 30.28327942 387.49981689 C29.73764107 390.55425541 29.19865591 393.60982281 28.66015625 396.66552734 C28.28211878 398.79496596 27.90382934 400.92435986 27.52529907 403.05371094 C26.73392244 407.51168268 25.94589155 411.97022984 25.16015625 416.42919922 C24.15350683 422.14002426 23.13812071 427.84925517 22.12016869 433.55807495 C21.33753685 437.95320187 20.55976683 442.34917854 19.78343582 446.74542236 C19.41100186 448.85080353 19.03700804 450.95590939 18.66141891 453.06072998 C18.13698198 456.00366435 17.61915899 458.94768915 17.10302734 461.89208984 C16.94720688 462.75876282 16.79138641 463.62543579 16.63084412 464.51837158 C16.49069382 465.3257074 16.35054352 466.13304321 16.20614624 466.96484375 C16.08338003 467.65945709 15.96061382 468.35407043 15.83412743 469.06973267 C15.5154379 471.79278142 15.57421875 474.54889325 15.57421875 477.29052734 C32.73421875 477.29052734 49.89421875 477.29052734 67.57421875 477.29052734 C65.20847578 463.75528922 65.20847578 463.75528922 62.84179688 450.22021484 C61.87186399 444.67436666 60.90202468 439.12850226 59.93286133 433.58251953 C56.18644205 412.14462965 52.42230188 390.71043802 48.57421875 369.29052734 C43.95421875 369.29052734 39.33421875 369.29052734 34.57421875 369.29052734 Z " fill="#3197CF" transform="translate(175.42578125,-0.29052734375)"/>
<path d="M0 0 C21.00507557 18.57256291 34.34583333 42.95552705 36.49609375 71.20703125 C37.87916765 98.20356994 30.9739474 125.27270795 12.74609375 145.83203125 C11.34271655 147.30315769 9.92809585 148.76375354 8.49609375 150.20703125 C7.67109375 151.07328125 6.84609375 151.93953125 5.99609375 152.83203125 C5.17109375 153.61578125 4.34609375 154.39953125 3.49609375 155.20703125 C2.88765625 155.79871094 2.27921875 156.39039063 1.65234375 157 C-19.7374947 177.0335987 -46.07292632 183.27046622 -74.6015625 182.59375 C-82.98629444 182.23305519 -90.56273435 180.86273906 -98.50390625 178.20703125 C-99.66664063 177.82160156 -100.829375 177.43617188 -102.02734375 177.0390625 C-128.9897218 167.32883544 -149.16891763 147.69761826 -161.60351562 122.18896484 C-173.09097413 96.90285091 -173.39109853 67.80662596 -164.00390625 41.82421875 C-152.75466856 14.69715078 -132.57106129 -5.6310801 -105.50976562 -16.98828125 C-100.59295375 -18.96075106 -95.64409769 -20.52296046 -90.50390625 -21.79296875 C-89.62605469 -22.01726562 -88.74820313 -22.2415625 -87.84375 -22.47265625 C-56.96077693 -28.96030239 -24.04590991 -20.12161741 0 0 Z M-131.72265625 20.11328125 C-147.25640582 38.37225004 -155.93858614 61.09219914 -154.50390625 85.20703125 C-152.87842881 104.75854862 -145.62660515 122.57730862 -132.50390625 137.20703125 C-131.69179688 138.11324219 -130.8796875 139.01945313 -130.04296875 139.953125 C-114.2854229 156.61176218 -92.9954307 165.90517685 -70.07421875 167.203125 C-46.40915891 167.22901675 -24.15251403 159.81391949 -7.1796875 142.94921875 C-6.29667969 142.04429687 -5.41367187 141.139375 -4.50390625 140.20703125 C-3.69308594 139.40523437 -2.88226563 138.6034375 -2.046875 137.77734375 C13.02716489 122.11266856 20.38698852 100.69709372 20.87109375 79.20703125 C20.27973569 54.00039398 9.97744433 31.77652546 -8.19140625 14.2109375 C-44.72831675 -17.45027042 -98.28647908 -14.58463845 -131.72265625 20.11328125 Z " fill="#3197CF" transform="translate(465.50390625,329.79296875)"/>
<path d="M0 0 C4.64575523 4.7784911 4.46347887 9.75695498 4.3828125 16.05078125 C4.3799826 16.88715622 4.37715271 17.72353119 4.37423706 18.58525085 C4.3630832 21.24448226 4.33798763 23.90337118 4.3125 26.5625 C4.30246399 28.37043783 4.29333923 30.17838096 4.28515625 31.98632812 C4.26315959 36.40768312 4.22866294 40.82878358 4.1875 45.25 C5.13753906 45.36988281 6.08757812 45.48976563 7.06640625 45.61328125 C10.1875 46.25 10.1875 46.25 12.125 48.4375 C13.45857199 51.9675435 13.40232912 53.68143947 12.1875 57.25 C9.8125 59.625 9.8125 59.625 7.1875 61.25 C6.1975 61.25 5.2075 61.25 4.1875 61.25 C4.21070313 62.21421875 4.23390625 63.1784375 4.2578125 64.171875 C4.27585937 65.43515625 4.29390625 66.6984375 4.3125 68 C4.33570313 69.25296875 4.35890625 70.5059375 4.3828125 71.796875 C4.20162896 75.00020002 3.95030171 76.63402735 2.1875 79.25 C-0.48883026 81.3315902 -1.93003668 81.24587591 -5.375 81.125 C-8.8125 80.25 -8.8125 80.25 -10.515625 78.6796875 C-12.31162827 75.3148862 -12.13671174 72.20874412 -12 68.5 C-11.97969727 67.45392578 -11.97969727 67.45392578 -11.95898438 66.38671875 C-11.9237945 64.67414459 -11.86999155 62.96197059 -11.8125 61.25 C-12.63451904 61.26571045 -13.45653809 61.2814209 -14.3034668 61.29760742 C-18.03557428 61.36005073 -21.76757172 61.39902136 -25.5 61.4375 C-26.79357422 61.46263672 -28.08714844 61.48777344 -29.41992188 61.51367188 C-30.66708984 61.52333984 -31.91425781 61.53300781 -33.19921875 61.54296875 C-34.91951294 61.56653442 -34.91951294 61.56653442 -36.67456055 61.59057617 C-40.19414084 61.20857862 -42.03576444 60.42214399 -44.8125 58.25 C-46.42221695 53.85755468 -46.39466806 51.68101287 -44.63037109 47.34423828 C-42.86193243 43.93139763 -40.96242372 40.61552946 -39 37.3125 C-38.30371046 36.108083 -37.60914025 34.90267046 -36.91625977 33.69628906 C-35.53854363 31.30562274 -34.14909635 28.92247465 -32.74804688 26.54541016 C-31.07277362 23.69313488 -29.42635853 20.82778569 -27.796875 17.94921875 C-26.94902139 16.465514 -26.10015893 14.98238501 -25.25 13.5 C-24.88221436 12.85297119 -24.51442871 12.20594238 -24.13549805 11.53930664 C-21.08415286 6.33659362 -17.58071969 0.95351981 -12.375 -2.25 C-7.63477743 -3.17492148 -4.09301149 -2.5467627 0 0 Z M-12.8125 25.25 C-13.68845514 26.5977258 -14.51310216 27.97884205 -15.31640625 29.37109375 C-15.80947266 30.22380859 -16.30253906 31.07652344 -16.81054688 31.95507812 C-17.32681641 32.85677734 -17.84308594 33.75847656 -18.375 34.6875 C-18.89513672 35.58533203 -19.41527344 36.48316406 -19.95117188 37.40820312 C-22.51815253 41.12165538 -22.51815253 41.12165538 -23.8125 45.25 C-19.8525 45.25 -15.8925 45.25 -11.8125 45.25 C-11.8125 38.65 -11.8125 32.05 -11.8125 25.25 C-12.1425 25.25 -12.4725 25.25 -12.8125 25.25 Z " fill="#3197CF" transform="translate(446.8125,368.75)"/>
<path d="M0 0 C5.91160049 4.74848775 8.3810395 10.26770163 9.453125 17.7578125 C10.25837212 29.51865863 2.6704456 39.62262575 -3.8359375 48.73828125 C-4.74885925 50.0272295 -5.66161253 51.31629708 -6.57421875 52.60546875 C-8.98004275 55.99382231 -11.40361062 59.36891041 -13.8359375 62.73828125 C-13.22073242 62.75286377 -12.60552734 62.76744629 -11.97167969 62.7824707 C-9.17580896 62.85708702 -6.38111463 62.95370105 -3.5859375 63.05078125 C-2.61785156 63.07333984 -1.64976562 63.09589844 -0.65234375 63.11914062 C0.28222656 63.15458984 1.21679688 63.19003906 2.1796875 63.2265625 C3.03852539 63.25274658 3.89736328 63.27893066 4.78222656 63.3059082 C7.66648506 63.82948567 9.05940267 64.71567845 11.1640625 66.73828125 C12.26779628 70.71172286 12.57949833 72.82827897 10.8515625 76.61328125 C9.1640625 78.73828125 9.1640625 78.73828125 7.1640625 79.73828125 C4.22123083 79.84973796 1.30279745 79.90240587 -1.640625 79.90625 C-2.95391281 79.9112426 -2.95391281 79.9112426 -4.29373169 79.91633606 C-6.14812697 79.92140395 -8.00253139 79.92374443 -9.85693359 79.92358398 C-12.6925362 79.92576708 -15.5277477 79.94391478 -18.36328125 79.96289062 C-20.16406117 79.96582525 -21.96484294 79.96780958 -23.765625 79.96875 C-24.61365692 79.97593552 -25.46168884 79.98312103 -26.3354187 79.99052429 C-27.12949127 79.98744766 -27.92356384 79.98437103 -28.74169922 79.98120117 C-29.43738007 79.98262619 -30.13306091 79.98405121 -30.849823 79.98551941 C-33.96473027 79.59776536 -36.17294678 78.5591269 -38.1484375 76.11328125 C-39.18989503 72.51551889 -38.81767142 69.29265743 -37.8359375 65.73828125 C-36.20016182 62.83566941 -34.15251025 60.35548627 -32.0234375 57.80078125 C-30.83725196 56.31326099 -29.65372765 54.82361531 -28.47265625 53.33203125 C-27.86856934 52.57535156 -27.26448242 51.81867188 -26.64208984 51.0390625 C-13.82781709 36.0808797 -13.82781709 36.0808797 -7.8359375 18.30078125 C-8.89326379 15.59138264 -9.40906171 14.32830332 -11.8359375 12.73828125 C-15.21834029 11.70885431 -17.11426919 11.48054257 -20.4609375 12.67578125 C-23.29109199 15.13354699 -24.4063491 17.48302031 -25.84375 20.8984375 C-26.8359375 22.73828125 -26.8359375 22.73828125 -29.8359375 24.73828125 C-33.67287337 25.15685607 -35.94796814 25.28472394 -39.2734375 23.23828125 C-41.47423309 19.71700831 -41.53097521 16.71302813 -40.8359375 12.73828125 C-38.8200045 6.1235011 -34.55887956 1.48438668 -28.8359375 -2.26171875 C-18.9062939 -7.05363631 -9.08298749 -6.04090755 0 0 Z " fill="#3197CF" transform="translate(381.8359375,372.26171875)"/>
</svg>
