<?xml version="1.0" standalone="no"?>
<!DOCTYPE svg PUBLIC "-//W3C//DTD SVG 20010904//EN"
 "http://www.w3.org/TR/2001/REC-SVG-20010904/DTD/svg10.dtd">
<svg version="1.0" xmlns="http://www.w3.org/2000/svg"
 width="512.000000pt" height="512.000000pt" viewBox="0 0 512.000000 512.000000"
 preserveAspectRatio="xMidYMid meet">

<g transform="translate(0.000000,512.000000) scale(0.100000,-0.100000)"
fill="#000000" stroke="none">
<path d="M3480 5024 c-211 -45 -397 -215 -469 -427 l-18 -52 -725 -5 c-696 -5
-727 -6 -747 -24 -20 -18 -21 -29 -21 -197 l0 -179 -40 -20 c-87 -45 -141
-125 -148 -223 -6 -81 13 -139 65 -197 59 -65 114 -91 196 -91 107 0 186 45
237 134 16 28 32 74 36 104 13 104 -53 226 -145 268 l-41 18 0 124 0 123 631
0 632 0 -46 -49 c-113 -120 -146 -287 -87 -444 40 -106 139 -205 245 -246 l50
-19 3 -86 3 -86 -1368 -2 -1368 -3 -56 -28 c-67 -32 -142 -109 -172 -175 l-22
-47 0 -1030 0 -1030 34 -63 c41 -75 94 -125 170 -161 l56 -26 473 -3 472 -3 0
-134 0 -133 -213 -4 c-239 -4 -265 -10 -346 -84 -75 -67 -86 -99 -86 -257 l0
-139 28 -24 28 -24 1225 0 1225 0 24 25 c24 23 25 29 25 157 0 119 -3 138 -24
184 -31 67 -94 120 -174 144 -54 17 -93 20 -253 20 l-189 0 0 135 0 135 448 0
c499 0 513 2 608 66 53 36 99 92 130 159 18 38 19 83 22 843 l3 802 102 0 c61
0 112 5 127 13 14 7 36 35 51 66 14 29 33 57 42 62 16 9 17 -18 17 -413 l0
-423 -31 -14 c-201 -89 -203 -389 -3 -486 61 -30 160 -32 223 -5 62 27 132
101 149 158 40 132 -9 259 -124 323 l-54 31 0 419 0 419 38 0 c35 0 46 8 130
94 54 55 92 102 92 113 0 11 -9 42 -21 68 l-21 47 23 56 c29 73 31 76 80 92
66 22 79 47 79 157 0 80 2 94 18 99 120 39 222 128 274 241 87 185 21 416
-151 530 -33 23 -64 43 -68 45 -5 1 -19 36 -32 77 -29 86 -99 190 -168 250
-58 50 -188 115 -261 130 -64 13 -182 14 -235 2 -35 -9 -43 -6 -93 29 -137 96
-323 131 -494 94z m230 -154 c69 -13 153 -52 204 -94 71 -58 80 -60 151 -41
235 64 480 -84 530 -320 16 -80 25 -91 90 -119 106 -48 164 -125 172 -230 13
-154 -93 -279 -245 -293 l-57 -5 -24 56 -23 57 22 54 c13 31 20 65 16 78 -3
12 -45 62 -94 110 -99 96 -110 100 -185 67 l-46 -20 -65 26 c-62 26 -66 30
-82 76 -24 72 -38 78 -182 78 -68 0 -131 -4 -141 -10 -10 -5 -28 -34 -40 -63
-21 -51 -26 -56 -85 -81 l-63 -27 -47 21 c-78 33 -89 29 -181 -61 -105 -102
-114 -121 -86 -184 26 -59 26 -60 -1 -125 l-22 -52 -56 5 c-268 24 -341 375
-105 508 31 17 60 39 65 49 6 10 10 45 10 77 0 119 44 224 131 318 116 124
275 176 439 145z m240 -720 c17 -50 32 -63 100 -85 30 -9 74 -28 97 -41 49
-28 80 -30 128 -7 l36 17 30 -30 c30 -31 30 -31 15 -69 -21 -50 -20 -78 6
-128 12 -23 31 -69 42 -102 20 -56 25 -62 73 -85 52 -24 53 -26 53 -68 0 -37
-3 -44 -27 -52 -59 -21 -73 -34 -89 -79 -9 -25 -30 -75 -45 -110 -34 -73 -35
-97 -12 -146 l17 -36 -30 -29 -30 -30 -50 21 -51 22 -64 -30 c-35 -17 -88 -38
-118 -48 -49 -16 -55 -21 -77 -71 -23 -52 -25 -54 -64 -54 -35 0 -42 4 -50 28
-20 57 -36 77 -75 90 -22 8 -75 31 -118 50 l-78 36 -49 -21 -48 -21 -30 32
-29 31 17 50 c17 46 17 53 3 85 -9 19 -27 62 -40 95 -13 33 -28 70 -34 83 -5
14 -29 31 -59 44 -49 20 -50 22 -50 62 0 39 2 43 38 55 53 19 69 36 88 95 9
28 28 74 42 101 29 57 30 90 7 136 -17 31 -17 32 13 62 l30 30 41 -17 c57 -22
69 -21 152 19 41 19 80 35 89 35 28 0 61 32 80 76 19 42 21 44 63 44 42 0 44
-1 57 -40z m-2295 -201 c59 -57 31 -156 -49 -178 -72 -19 -136 30 -136 102 0
50 21 84 64 103 41 18 84 8 121 -27z m1603 -684 c7 -14 12 -28 12 -30 0 -3
-645 -6 -1432 -7 -1348 -3 -1435 -4 -1459 -21 -56 -38 -54 3 -54 -943 l0 -872
24 -26 24 -26 1569 0 1569 0 24 25 25 24 0 775 0 776 35 -17 35 -17 0 -855 c0
-809 -1 -858 -19 -896 -22 -50 -69 -91 -119 -105 -25 -6 -542 -10 -1557 -10
-1449 0 -1522 1 -1560 19 -51 23 -102 81 -110 123 -3 18 -4 472 -3 1009 l3
975 27 41 c15 23 44 49 70 62 l43 21 1421 0 1421 0 11 -25z m64 -272 l78 -78
0 -707 0 -708 -1460 0 -1460 0 0 778 c0 428 3 782 7 785 3 4 625 7 1382 7
l1376 0 77 -77z m971 -1123 c21 -24 27 -40 27 -76 0 -123 -171 -147 -210 -29
-13 40 -6 70 24 104 46 51 113 51 159 1z m-1873 -1125 l0 -135 -475 0 -475 0
0 135 0 135 475 0 475 0 0 -135z m549 -305 c19 -5 47 -22 63 -37 25 -24 28
-33 28 -95 l0 -68 -1120 0 -1120 0 0 55 c0 73 21 112 73 136 40 18 81 19 1042
19 624 0 1013 -4 1034 -10z"/>
<path d="M3512 4813 c-168 -39 -302 -199 -319 -379 -5 -57 -4 -64 20 -88 31
-31 75 -34 107 -8 17 14 25 35 31 80 20 142 111 232 250 249 60 7 87 27 95 70
5 27 1 37 -24 63 -35 35 -61 37 -160 13z"/>
<path d="M3775 3957 c-72 -24 -128 -58 -180 -111 -240 -240 -107 -645 232
-706 203 -36 415 103 468 306 52 199 -43 398 -233 487 -57 27 -80 32 -157 34
-55 2 -105 -2 -130 -10z m228 -171 c53 -26 96 -71 123 -131 72 -153 -29 -331
-203 -360 -54 -9 -135 14 -189 53 -46 34 -92 112 -100 174 -14 104 50 217 151
265 40 19 62 23 115 20 36 -1 82 -11 103 -21z"/>
<path d="M1132 2979 c-15 -5 -32 -28 -45 -59 -18 -43 -27 -52 -73 -70 -49 -20
-54 -20 -83 -6 -64 34 -90 24 -179 -68 -45 -46 -82 -92 -82 -102 0 -11 7 -39
16 -64 15 -42 15 -48 -4 -94 -16 -42 -25 -52 -62 -66 -65 -25 -70 -37 -70
-170 0 -130 3 -137 81 -172 48 -22 79 -95 59 -142 -33 -80 -30 -90 63 -183 93
-93 103 -96 183 -63 47 20 120 -11 142 -59 35 -77 43 -81 169 -81 63 0 122 4
132 10 10 5 28 31 39 57 18 41 28 51 68 67 44 18 49 18 93 2 25 -9 54 -16 65
-16 10 0 56 37 102 82 92 89 102 115 68 179 -14 29 -14 34 6 84 19 46 27 55
66 70 65 25 77 53 72 180 -3 117 -14 137 -78 156 -32 10 -40 19 -59 64 -21 50
-21 55 -7 90 30 72 24 91 -62 177 -86 86 -107 93 -179 63 -34 -14 -40 -14 -89
6 -44 19 -53 27 -63 60 -20 66 -48 79 -165 78 -55 0 -112 -4 -124 -10z m164
-189 c16 -38 54 -70 86 -70 7 0 40 -14 72 -30 66 -34 83 -36 130 -16 32 13 36
13 54 -7 17 -20 18 -25 6 -52 -20 -45 -17 -66 16 -131 16 -32 30 -65 30 -72 0
-32 32 -70 70 -86 34 -13 40 -20 40 -45 0 -25 -6 -31 -34 -41 -42 -13 -60 -34
-76 -85 -7 -22 -23 -61 -36 -87 -28 -56 -30 -78 -8 -120 15 -29 15 -32 -5 -51
-18 -19 -24 -20 -54 -9 -45 16 -83 15 -110 -3 -13 -8 -49 -24 -81 -35 -71 -24
-83 -33 -101 -77 -11 -27 -19 -33 -44 -33 -24 0 -33 7 -48 37 -19 39 -23 42
-137 92 -73 33 -110 38 -151 19 -22 -10 -29 -9 -47 10 -19 18 -20 25 -10 47
19 41 14 78 -19 151 -50 113 -53 118 -92 139 -30 16 -37 26 -37 50 0 25 6 33
40 47 22 9 44 27 49 40 76 181 77 188 61 239 -12 37 -12 42 7 60 19 20 22 20
51 5 42 -22 64 -20 120 8 26 13 65 29 87 36 51 16 72 34 85 76 10 28 16 34 41
34 25 0 32 -6 45 -40z"/>
<path d="M1160 2645 c-110 -31 -199 -105 -248 -205 -24 -49 -27 -67 -27 -155
0 -93 2 -105 32 -166 39 -79 102 -140 181 -177 50 -24 70 -27 157 -27 91 0
105 3 158 30 150 75 238 248 207 403 -16 75 -63 164 -113 208 -92 83 -235 120
-347 89z m148 -157 c69 -17 136 -87 152 -159 46 -206 -204 -345 -357 -199 -70
65 -83 188 -30 269 30 45 59 67 115 87 47 17 62 17 120 2z"/>
<path d="M2134 2926 c-49 -21 -61 -84 -24 -124 l21 -22 548 0 548 0 21 23 c40
42 24 105 -32 127 -44 16 -1043 13 -1082 -4z"/>
<path d="M2115 2625 c-35 -34 -34 -86 1 -114 26 -21 36 -21 566 -21 l539 0 24
25 c16 15 25 36 25 55 0 19 -9 40 -25 55 l-24 25 -541 0 -541 0 -24 -25z"/>
<path d="M2112 2337 c-27 -29 -28 -77 -3 -108 l19 -24 552 0 552 0 19 24 c28
35 25 85 -7 110 -26 21 -36 21 -569 21 l-542 0 -21 -23z"/>
<path d="M2134 2066 c-50 -22 -61 -87 -21 -124 l23 -22 545 0 546 0 21 23 c40
43 25 107 -29 126 -50 17 -1044 14 -1085 -3z"/>
<path d="M2115 1765 c-35 -34 -34 -86 1 -114 26 -21 36 -21 566 -21 l539 0 24
25 c16 15 25 36 25 55 0 19 -9 40 -25 55 l-24 25 -541 0 -541 0 -24 -25z"/>
</g>
</svg>
