<?xml version="1.0" encoding="UTF-8"?>
<svg version="1.1" xmlns="http://www.w3.org/2000/svg" width="512" height="512">
<path d="M0 0 C1.55336311 -0.0049926 1.55336311 -0.0049926 3.1381073 -0.01008606 C5.32424477 -0.01513692 7.51038991 -0.01749496 9.6965332 -0.01733398 C13.021127 -0.01951691 16.34538685 -0.03768268 19.66992188 -0.05664062 C21.80078012 -0.05957573 23.93163994 -0.06155974 26.0625 -0.0625 C27.04716751 -0.06968552 28.03183502 -0.07687103 29.04634094 -0.08427429 C40.47582467 -0.04690325 49.56345443 2.23890639 58.27734375 9.98828125 C64.06045468 16.09267612 66.31370025 22.94092445 68.59375 30.890625 C68.96777954 32.15942505 68.96777954 32.15942505 69.34936523 33.45385742 C69.84538965 35.15238469 70.32093665 36.8570548 70.77368164 38.56762695 C71.95045192 42.61665386 72.81618054 44.77289391 75.92578125 47.73828125 C83.44466068 50.9911298 90.34963602 48.56794437 97.91796875 46.60546875 C110.46333657 43.59853013 119.63318101 43.21836571 131.37890625 49.20703125 C139.87806025 55.05165496 144.46426338 62.95193814 149.54663086 71.70874023 C150.7835817 73.83930022 152.03575105 75.96026699 153.29101562 78.08007812 C169.94944665 106.35974892 169.94944665 106.35974892 166.16796875 121.23046875 C162.88096194 130.86737509 155.0557939 137.53321081 147.94213867 144.47167969 C147.34892822 145.05079102 146.75571777 145.62990234 146.14453125 146.2265625 C145.60779785 146.74532959 145.07106445 147.26409668 144.51806641 147.79858398 C141.75202768 150.74031914 141.64222637 153.81937737 141.69042969 157.70751953 C142.7624421 162.59167013 146.7341768 165.41599204 150.35546875 168.60546875 C158.85594018 176.2775044 166.33396436 184.56722176 167.4453125 196.46875 C167.92446276 208.79249481 162.3068437 218.02508496 155.98046875 228.10546875 C155.23334555 229.31511999 154.487246 230.52540409 153.7421875 231.73632812 C151.59011625 235.22533691 149.41305654 238.69796172 147.23046875 242.16796875 C146.22862549 243.76668823 146.22862549 243.76668823 145.20654297 245.39770508 C139.60091776 254.28946197 132.91079994 262.48690777 122.35546875 265.54296875 C120.98784931 265.79524806 119.61123172 266.00207301 118.23046875 266.16796875 C117.13798828 266.30912109 117.13798828 266.30912109 116.0234375 266.453125 C108.3676122 266.92332529 101.24437312 264.89995809 93.9309082 262.85913086 C88.20028316 261.33563758 83.02941723 260.47104315 77.23046875 262.16796875 C73.85679548 264.60241138 72.59040612 267.08815663 71.29296875 270.98046875 C70.96167969 271.94210937 70.63039063 272.90375 70.2890625 273.89453125 C69.53155045 276.2369486 68.79715391 278.58689123 68.078125 280.94140625 C64.66915848 291.97260671 59.95232443 301.38682302 49.40625 307.16796875 C44.34476869 309.45167398 39.55742752 310.28647568 34.0480957 310.32910156 C33.03967117 310.33870911 32.03124664 310.34831665 30.99226379 310.35821533 C29.91200424 310.36246521 28.83174469 310.36671509 27.71875 310.37109375 C26.59534714 310.37679382 25.47194427 310.3824939 24.3144989 310.3883667 C21.93827248 310.39780324 19.56203305 310.40434533 17.18579102 310.40820312 C13.57349434 310.41788692 9.96177211 310.44891502 6.34960938 310.48046875 C4.03515961 310.48700162 1.7207058 310.49225098 -0.59375 310.49609375 C-1.6638884 310.50844055 -2.73402679 310.52078735 -3.83659363 310.5335083 C-14.45988196 310.50237962 -22.81196758 308.40367999 -30.76953125 301.16796875 C-31.31480469 300.67683594 -31.86007813 300.18570312 -32.421875 299.6796875 C-39.92421023 291.98645316 -42.16696009 280.38644013 -44.58203125 270.26171875 C-46.06759584 266.39143205 -47.4178708 264.62823015 -50.76953125 262.16796875 C-57.4606236 260.07211428 -63.60052489 261.78029001 -70.14453125 263.60546875 C-82.73528804 266.83516187 -93.34992658 267.93378272 -105.08203125 261.29296875 C-115.06912052 253.39620049 -121.09520208 242.20761467 -127.39599609 231.35302734 C-128.52742074 229.40438073 -129.66552795 227.4597581 -130.8046875 225.515625 C-143.15109772 204.36853356 -143.15109772 204.36853356 -140.12109375 191.390625 C-136.54953214 180.50804625 -129.14849064 173.31787451 -121.12524414 165.50830078 C-116.76192217 161.27748623 -116.76192217 161.27748623 -115.26953125 155.54296875 C-115.40447338 148.70999015 -120.89633917 144.9690122 -125.5078125 140.53515625 C-134.20770334 132.11471465 -140.52944681 124.01727912 -141.14453125 111.41796875 C-140.7704885 100.65573866 -134.98077043 91.5028676 -129.58911133 82.49731445 C-128.45988742 80.61024176 -127.34514115 78.71520146 -126.23242188 76.81835938 C-110.014606 49.33020153 -110.014606 49.33020153 -95.76953125 45.16796875 C-86.25068985 42.91277813 -77.91823133 44.92852033 -68.63598633 47.33764648 C-61.9108507 49.06569538 -56.29275235 50.45069488 -49.55078125 47.99609375 C-45.1091658 43.47961961 -43.99976117 37.90722616 -42.26953125 31.91796875 C-38.68085851 19.65338389 -34.85651206 11.05696653 -23.76953125 4.16796875 C-16.13263629 0.05208431 -8.45911172 0.00950148 0 0 Z M-17.96484375 26.74609375 C-20.21922291 31.02063086 -21.40837619 35.26579093 -22.64453125 39.91796875 C-25.60923135 50.34202397 -29.11136135 60.20153174 -38.76953125 66.16796875 C-51.61554958 72.86296201 -64.08319441 70.5501087 -77.39794922 66.85961914 C-82.51767846 65.48279182 -86.53960372 64.61346562 -91.76953125 66.16796875 C-97.83645486 69.97344268 -100.69301988 75.53372933 -104.14453125 81.66796875 C-105.28128567 83.64916467 -106.41930269 85.62963669 -107.55859375 87.609375 C-108.10547852 88.56473145 -108.65236328 89.52008789 -109.21582031 90.50439453 C-111.78383936 94.90682819 -114.56562149 99.16458405 -117.37890625 103.4140625 C-119.59255795 107.79783904 -120.3403851 111.34025642 -118.859375 116.08203125 C-115.31145555 121.32101512 -110.61375062 125.40181099 -106.01757812 129.71484375 C-99.17338101 136.31481799 -94.74158095 142.84342248 -94.47680664 152.66381836 C-94.3648158 164.7214993 -97.63039199 172.14929986 -105.76953125 181.16796875 C-106.86453359 182.24632352 -107.96808258 183.31603986 -109.078125 184.37890625 C-109.66408447 184.94319336 -110.25004395 185.50748047 -110.85375977 186.08886719 C-112.02574569 187.20413123 -113.21209699 188.30453759 -114.41381836 189.38769531 C-117.18019651 192.00235179 -118.63933668 193.81142283 -119.96484375 197.44140625 C-119.68015721 202.87322536 -117.47484952 206.52138158 -114.76953125 211.16796875 C-114.13805176 212.27092285 -113.50657227 213.37387695 -112.85595703 214.51025391 C-111.09101846 217.56468616 -109.28384903 220.59179503 -107.45874023 223.6105957 C-106.32702608 225.48877527 -105.21142482 227.37595969 -104.09570312 229.26367188 C-103.3642513 230.47844921 -102.63186188 231.69266258 -101.8984375 232.90625 C-100.9249939 234.531073 -100.9249939 234.531073 -99.93188477 236.1887207 C-97.15126455 240.01980442 -94.05908861 243.02319007 -89.76953125 245.16796875 C-83.32103747 245.23993855 -77.06036307 243.57790134 -70.83203125 242.10546875 C-58.47248773 239.26068105 -48.91601919 239.1041692 -37.51171875 245.41796875 C-27.2748615 252.26848919 -24.36413938 263.7336071 -21.4921875 275.04101562 C-19.75441664 281.33939566 -18.33478196 284.59992495 -12.76953125 288.16796875 C-10.38933266 289.35806804 -8.8883085 289.3134657 -6.23144531 289.3449707 C-5.28996643 289.35780594 -4.34848755 289.37064117 -3.378479 289.38386536 C-2.3576825 289.39125229 -1.33688599 289.39863922 -0.28515625 289.40625 C0.76319397 289.41432175 1.81154419 289.42239349 2.8916626 289.43070984 C5.11428164 289.44455809 7.33692202 289.45527692 9.55957031 289.46313477 C12.95288652 289.48032899 16.34522391 289.5242072 19.73828125 289.56835938 C21.89712825 289.5784878 24.05598353 289.58700343 26.21484375 289.59375 C27.73389313 289.62001213 27.73389313 289.62001213 29.28363037 289.64680481 C35.26614862 289.62846031 38.6670166 289.14110066 43.23046875 285.16796875 C47.37036847 280.0100609 48.58452488 272.79425314 50.36132812 266.53515625 C53.22181288 257.02192675 57.22252778 249.58523333 65.88671875 244.38671875 C78.39110382 237.88443851 89.68423041 239.92612422 102.84472656 243.38867188 C111.07024022 245.651737 111.07024022 245.651737 119.16796875 243.79296875 C126.92113513 238.02145828 131.67500126 227.42593513 136.53955078 219.26245117 C137.61434912 217.46562271 138.70546022 215.67934939 139.796875 213.89257812 C140.49190778 212.73107992 141.1859545 211.56899095 141.87890625 210.40625 C142.49942871 209.37540283 143.11995117 208.34455566 143.75927734 207.2824707 C145.39119873 203.82770451 145.96604494 200.96902545 146.23046875 197.16796875 C144.27410368 192.30349344 140.1466732 188.97762824 136.41796875 185.41796875 C128.10106684 177.28399614 121.12467397 169.65047807 120.84985352 157.40820312 C120.88264606 145.42038877 123.86525789 138.66643075 132.23046875 130.16796875 C133.24562727 129.16877291 134.26269827 128.17151792 135.28125 127.17578125 C135.81814453 126.64831299 136.35503906 126.12084473 136.90820312 125.57739258 C137.97809025 124.53227136 139.05597407 123.49525905 140.14257812 122.4675293 C143.12328714 119.57768383 145.30520718 117.260233 146.23046875 113.16796875 C145.84752033 107.36567963 144.13966189 103.56914002 141.1875 98.73046875 C140.78142014 98.04670166 140.37534027 97.36293457 139.95695496 96.65844727 C139.09917941 95.21981382 138.23573229 93.78454844 137.36694336 92.35253906 C136.05144915 90.18196149 134.75592719 88.00042005 133.46289062 85.81640625 C132.62225521 84.41206452 131.78049402 83.00839594 130.9375 81.60546875 C130.55600296 80.96359619 130.17450592 80.32172363 129.78144836 79.66040039 C126.60577377 74.4545574 123.08048471 68.96797883 117.85546875 65.66796875 C112.28924099 64.60773489 106.58581246 66.24702104 101.19384766 67.6796875 C88.90161737 70.92159439 76.88027444 72.35288936 65.23046875 66.16796875 C54.13076758 59.23789445 50.76388054 46.68881807 47.40966797 34.75488281 C45.86697663 29.44591946 44.352611 24.91182656 39.2434082 22.05810547 C34.80016346 20.74540226 30.50080004 20.8628178 25.890625 20.8671875 C24.39105507 20.86075981 24.39105507 20.86075981 22.8611908 20.85420227 C20.75064856 20.84846909 18.64008657 20.84795124 16.52954102 20.85229492 C13.30776126 20.85545424 10.08690066 20.83198483 6.86523438 20.80664062 C4.81119907 20.80436741 2.75716131 20.80366424 0.703125 20.8046875 C-0.25641586 20.79547775 -1.21595673 20.78626801 -2.20457458 20.77677917 C-8.7650892 20.82196465 -13.49314841 21.49463658 -17.96484375 26.74609375 Z " fill="#000000" transform="translate(243.76953125,99.83203125)"/>
<path d="M0 0 C2.92661422 1.17650336 5.38271608 2.82866496 7.95703125 4.63671875 C8.66727951 5.11317337 9.37752777 5.58962799 10.10929871 6.08052063 C11.59893235 7.08552734 13.08190794 8.10046738 14.55834961 9.12475586 C16.81016042 10.68587803 19.08112649 12.21509437 21.35742188 13.74023438 C22.80851058 14.72476835 24.25842277 15.71103908 25.70703125 16.69921875 C26.37998734 17.15463547 27.05294342 17.61005219 27.74629211 18.07926941 C31.97253916 21.02522777 36.26387325 24.03518607 37.56640625 29.28125 C37.5589917 33.49271551 37.37834963 35.46585934 34.875 39 C31.62399027 41.26157198 29.95490344 42 26 42 C20.49947829 40.16649276 15.82813711 37.17277582 11 34 C12.94330828 52.44159894 19.85047177 70.47617897 28 87 C28.38027344 87.77827148 28.76054688 88.55654297 29.15234375 89.35839844 C36.9860382 105.23768236 46.39890447 119.60125723 58 133 C58.70511719 133.81597656 59.41023438 134.63195312 60.13671875 135.47265625 C70.2083322 146.88232966 80.77092443 156.95959456 93 166 C94.00289062 166.74765625 95.00578125 167.4953125 96.0390625 168.265625 C123.01491105 187.64362474 153.83726897 200.00104223 186.51879883 205.62060547 C190.91787981 206.40916729 194.34581459 207.24877932 198 210 C200.31851886 213.68855273 200.22723824 216.96490151 199.52734375 221.1328125 C198.67986651 224.13350967 197.61976808 225.32066149 195 227 C188.02851098 228.48193938 182.15724702 227.41371622 175.25 225.9375 C174.14889893 225.70780518 173.04779785 225.47811035 171.91333008 225.24145508 C134.03811083 217.10363425 98.29338096 200.58962015 69 175 C67.86884766 174.03320312 67.86884766 174.03320312 66.71484375 173.046875 C26.0269418 137.45345159 0.99303308 92.4626113 -11 40 C-13.03749633 42.52886758 -15.03793731 45.05262272 -16.9375 47.6875 C-19.2786308 50.31240422 -20.58552673 51.20593645 -24 52 C-28.18110238 51.92533746 -30.43731429 51.37113313 -33.9375 49.0625 C-36.85070197 44.73683647 -36.77474615 41.09247514 -36 36 C-34.64042603 32.94295538 -32.76569451 30.48286832 -30.6875 27.875 C-29.58568853 26.41262567 -28.48546742 24.94905195 -27.38671875 23.484375 C-26.82388184 22.74767578 -26.26104492 22.01097656 -25.68115234 21.25195312 C-22.49731276 16.98710614 -19.58823865 12.52883624 -16.6550293 8.08935547 C-11.82430005 0.94138723 -8.58810973 -1.14106463 0 0 Z " fill="#000000" transform="translate(36,261)"/>
<path d="M0 0 C3.28910929 2.43108078 4.73914733 3.98079216 5.7578125 7.9609375 C6.36721348 13.25484943 5.08768696 18.3386626 4 23.5 C3.7721582 24.59860352 3.54431641 25.69720703 3.30957031 26.82910156 C-6.10238847 70.64685894 -26.92456293 109.74932652 -58 142 C-58.58442871 142.61166016 -59.16885742 143.22332031 -59.77099609 143.85351562 C-68.28816995 152.7311448 -77.08803156 160.71107687 -87 168 C-88.30710937 168.96486328 -88.30710937 168.96486328 -89.640625 169.94921875 C-117.48661391 189.93545272 -148.58812903 202.82114419 -182 210 C-181.278125 210.556875 -180.55625 211.11375 -179.8125 211.6875 C-172.75471698 217.49056604 -172.75471698 217.49056604 -171 221 C-170.6248545 225.97067782 -170.84121201 229.05151502 -174 233 C-177.44545382 235.58409036 -180.81623257 235.33435846 -185 235 C-187.63167801 233.7046296 -189.84600586 232.43924677 -192.25 230.8125 C-193.25969849 230.15278198 -193.25969849 230.15278198 -194.28979492 229.47973633 C-195.75036726 228.51949443 -197.20550905 227.5509531 -198.65576172 226.57519531 C-201.14463005 224.9028168 -203.6517658 223.26011538 -206.16015625 221.6171875 C-207.87881278 220.47577609 -209.59628218 219.33257497 -211.3125 218.1875 C-212.53984863 217.37986206 -212.53984863 217.37986206 -213.79199219 216.5559082 C-221.27903192 211.47451702 -221.27903192 211.47451702 -223 207 C-223.86580004 201.53650322 -221.69274556 198.14482346 -218.75 193.75 C-218.30833496 193.06905273 -217.86666992 192.38810547 -217.41162109 191.68652344 C-216.45834053 190.22294765 -215.49829039 188.76376336 -214.53222656 187.30859375 C-212.94208969 184.912747 -211.37261085 182.50418225 -209.8046875 180.09375 C-208.74601868 178.47836186 -207.68614797 176.86376067 -206.625 175.25 C-206.12581055 174.4878418 -205.62662109 173.72568359 -205.11230469 172.94042969 C-198.97292839 163.72101565 -198.97292839 163.72101565 -194.8515625 162.21484375 C-188.98014547 161.4834918 -188.98014547 161.4834918 -186.1171875 162.9921875 C-183.94708071 164.7639172 -182.25853301 166.48293399 -181 169 C-180.43336975 174.78671143 -181.81452542 178.25076291 -185 182.9375 C-185.3815625 183.52595703 -185.763125 184.11441406 -186.15625 184.72070312 C-187.09004808 186.15641767 -188.04308927 187.57958564 -189 189 C-168.06430195 184.21406745 -147.86079133 178.29391563 -128.90332031 168.02978516 C-126.95253123 166.97431718 -124.98853481 165.946507 -123.0234375 164.91796875 C-112.94194646 159.54370298 -103.91590111 153.12290264 -95 146 C-94.4318457 145.54898926 -93.86369141 145.09797852 -93.27832031 144.63330078 C-79.1824794 133.35244531 -66.64462468 120.58330558 -56 106 C-55.22140625 104.94296875 -54.4428125 103.8859375 -53.640625 102.796875 C-47.75225018 94.55315025 -42.78650654 85.91568727 -38 77 C-37.39285156 75.89269531 -36.78570312 74.78539062 -36.16015625 73.64453125 C-25.32050097 53.07130796 -19.07067019 30.20715604 -15.58325195 7.29614258 C-14.6944247 3.79701309 -12.85511508 2.0891086 -10 0 C-6.1544104 -1.2818632 -3.93271581 -0.94927623 0 0 Z " fill="#000000" transform="translate(485,277)"/>
<path d="M0 0 C0.82129395 0.14026611 1.64258789 0.28053223 2.48876953 0.42504883 C41.05755839 7.36569837 77.03033825 23.41229627 107.5625 48 C108.15192383 48.47373047 108.74134766 48.94746094 109.34863281 49.43554688 C123.00563299 60.52853086 135.93515398 72.95325196 146.5625 87 C146.98837402 87.55478027 147.41424805 88.10956055 147.85302734 88.68115234 C154.78751455 97.73949526 160.95334254 107.06993662 166.5625 117 C166.93084961 117.64098633 167.29919922 118.28197266 167.67871094 118.94238281 C178.27882695 137.50407772 185.13862846 157.38928814 190.5625 178 C191.10519531 177.30132812 191.64789063 176.60265625 192.20703125 175.8828125 C192.92246094 174.97273437 193.63789063 174.06265625 194.375 173.125 C195.08269531 172.22007812 195.79039062 171.31515625 196.51953125 170.3828125 C199.43196826 166.98589744 200.93445479 166.06077857 205.4375 165.625 C209.57789255 165.71650039 211.64582292 166.99493877 214.5625 170 C216.30705756 173.48911512 216.03389147 177.18651134 215.5625 181 C214.50848448 183.69784904 213.00806426 185.91695891 211.328125 188.265625 C210.8936908 188.90691345 210.45925659 189.5482019 210.01165771 190.20892334 C208.63102303 192.23651225 207.22249998 194.24275534 205.8125 196.25 C204.88094643 197.61070351 203.9512411 198.97267429 203.0234375 200.3359375 C192.52352284 215.67965905 192.52352284 215.67965905 188.5625 217 C182.76989377 217.53035753 179.88606131 216.45108464 175.125 213.1875 C174.53589844 212.79022705 173.94679688 212.3929541 173.33984375 211.98364258 C171.40282903 210.67144681 169.48287608 209.33640482 167.5625 208 C166.14535475 207.03004573 164.72736984 206.06131723 163.30859375 205.09375 C159.97010192 202.81247892 156.64304172 200.51545651 153.32446289 198.20532227 C151.64294825 197.05503298 149.92943476 195.95194179 148.21484375 194.8515625 C144.91079298 192.54505283 143.83330688 190.81242065 142.5625 187 C142.5625 182.66360584 143.10322242 180.62137555 145.6875 177.125 C149.18387555 174.54072242 151.22610584 174 155.5625 174 C159.20337486 175.36532807 162.11779617 177.36406918 165.25 179.6171875 C166.18392578 180.28790283 166.18392578 180.28790283 167.13671875 180.97216797 C167.60722656 181.31135254 168.07773437 181.65053711 168.5625 182 C158.42156145 142.74860255 139.23371339 110.40595307 111.5625 81 C110.94632813 80.34128906 110.33015625 79.68257813 109.6953125 79.00390625 C78.81406083 47.0144757 36.49671461 29.58458726 -6.34765625 21.23828125 C-13.77567932 19.67686206 -13.77567932 19.67686206 -17.1875 16.1875 C-18.563846 12.67781771 -19.05758194 10.72049165 -18.4375 7 C-16.6536929 3.4323858 -15.45813517 1.4806568 -11.81640625 -0.234375 C-7.64631713 -1.17927381 -4.14129089 -0.73979582 0 0 Z " fill="#000000" transform="translate(296.4375,22)"/>
<path d="M0 0 C2.56829542 1.30029128 4.81142261 2.60044944 7.1875 4.1875 C7.86514404 4.62803711 8.54278809 5.06857422 9.2409668 5.52246094 C10.71174561 6.48445047 12.17780664 7.45368257 13.63964844 8.42919922 C16.13460341 10.08957782 18.64880296 11.71823 21.1640625 13.34765625 C22.88142964 14.47992059 24.59759747 15.61400629 26.3125 16.75 C27.53972778 17.54506958 27.53972778 17.54506958 28.79174805 18.35620117 C33.22640233 21.34699283 36.42956531 23.65092113 38 29 C38.18858391 35.87921299 34.47067824 40.26863028 30.5625 45.5625 C29.61721436 46.87226807 29.61721436 46.87226807 28.65283203 48.20849609 C27.37794631 49.97429539 26.09836448 51.73671425 24.81396484 53.49560547 C23.17396793 55.75981655 21.5717844 58.04374263 19.98828125 60.34765625 C19.54218506 60.99210693 19.09608887 61.63655762 18.63647461 62.30053711 C17.81824291 63.48394053 17.00493751 64.67077119 16.19750977 65.86157227 C14.11488724 68.82884051 12.48689343 70.84000377 9 72 C2.03867403 72.66298343 2.03867403 72.66298343 -1.9375 70.125 C-4.91648633 67.05574136 -5.5 64.74695818 -5.5 60.44140625 C-4.45513192 55.33951134 -0.99871832 51.16148665 2 47 C-36.57940067 58.57875433 -68.8425042 76.12945574 -98 104 C-98.67675781 104.63550781 -99.35351562 105.27101563 -100.05078125 105.92578125 C-130.6255691 135.37597921 -149.76125511 177.15745443 -156.83496094 218.46875 C-158.81502017 229.33660915 -158.81502017 229.33660915 -164 233 C-167.51158123 234.75579061 -171.28669974 233.9514506 -175 233 C-178.30981765 230.186655 -179.44752069 227.56885514 -179.97802734 223.2890625 C-180.02913688 217.96458504 -178.67295301 212.74314474 -177.5625 207.5625 C-177.29026611 206.27931885 -177.01803223 204.9961377 -176.73754883 203.67407227 C-165.28824233 151.09863207 -134.94756758 101.79826678 -92 69 C-91.06124023 68.27925293 -91.06124023 68.27925293 -90.10351562 67.54394531 C-63.45297346 47.23334694 -33.54654732 33.00324934 -1 25 C-2.03060547 24.34644531 -2.03060547 24.34644531 -3.08203125 23.6796875 C-12.48921667 17.4620628 -12.48921667 17.4620628 -14 12 C-13.90059352 7.1290824 -12.36719869 4.46623394 -9 1 C-5.62026211 -0.1265793 -3.55075481 -0.35294928 0 0 Z " fill="#000000" transform="translate(203,0)"/>
<path d="M0 0 C6.59069653 5.26392633 13.08545975 10.94530919 16.375 18.87890625 C16.26068725 23.33710332 14.52932248 26.91931377 11.625 30.25390625 C8.09719078 31.87479157 5.03578187 32.28070947 1.3125 31.31640625 C-1.72800376 29.33077114 -4.33294214 27.08426416 -6.6875 24.31640625 C-6.6875 23.65640625 -6.6875 22.99640625 -6.6875 22.31640625 C-7.27402344 22.04441406 -7.86054688 21.77242187 -8.46484375 21.4921875 C-10.64438333 20.33921489 -12.34659709 19.06198336 -14.25 17.50390625 C-26.57288467 8.11831997 -40.64736052 5.98424155 -55.6875 7.31640625 C-71.39853189 10.25804626 -83.75460184 18.45050481 -92.828125 31.375 C-101.45148671 45.01657851 -104.03433423 60.07553225 -101 75.90234375 C-100.07624744 78.83525811 -99.00164246 81.53758488 -97.6875 84.31640625 C-97.24019531 85.26902344 -96.79289062 86.22164063 -96.33203125 87.203125 C-89.47665964 100.67494105 -78.80260977 109.83746739 -64.75 115.31640625 C-50.46120492 119.89960467 -36.37086209 119.01451321 -22.70703125 112.92578125 C-14.62425328 108.6177547 -7.70009876 103.00384351 -1.9921875 95.84765625 C-0.34558302 93.91511446 0.79426318 93.38767654 3.30078125 93.04296875 C7.79277315 92.84668003 9.66219305 92.80157992 13.3125 95.69140625 C16.18426269 99.46059478 16.87004753 101.80022424 16.25 106.62109375 C11.88312475 119.17586008 -4.18764241 128.29900255 -15.25 133.69140625 C-33.82150863 141.71092134 -54.6353425 142.53519731 -73.72265625 135.56640625 C-93.16467033 127.36950967 -108.82918694 113.61929995 -117.6875 94.31640625 C-125.49249661 75.03567676 -127.02807149 52.94504213 -118.92382812 33.48242188 C-115.51078825 25.64961813 -111.24539518 18.8006173 -105.6875 12.31640625 C-105.01847656 11.43275391 -105.01847656 11.43275391 -104.3359375 10.53125 C-79.95232528 -20.76818206 -30.36331422 -22.92756711 0 0 Z " fill="#000000" transform="translate(303.6875,192.68359375)"/>
<path d="M0 0 C2.82275936 1.25455972 4.46288541 2.28384722 6.3125 4.75 C7.35046873 8.14698856 7.47394861 10.44538544 7 14 C3.47380309 19.90111894 -1.51599817 24.83534276 -6.33984375 29.67578125 C-7.02502579 30.36762009 -7.71020782 31.05945892 -8.41615295 31.77226257 C-9.85481491 33.2209773 -11.29613141 34.66706036 -12.73999023 36.1105957 C-14.93866878 38.31367111 -17.12082009 40.53228861 -19.30273438 42.75195312 C-20.7099564 44.1650402 -22.11812757 45.57718285 -23.52734375 46.98828125 C-24.49485817 47.97735222 -24.49485817 47.97735222 -25.48191833 48.98640442 C-29.41457934 52.88008366 -32.70216167 55.29853624 -38 57 C-46.46597956 56.58063259 -50.85709707 50.86981754 -56.4375 45 C-57.80165039 43.6078125 -57.80165039 43.6078125 -59.19335938 42.1875 C-67.35367707 33.80169183 -67.35367707 33.80169183 -67.29296875 26.26171875 C-66.86344199 22.9457722 -65.39075646 21.25012373 -63 19 C-59.69557384 17.34778692 -56.543447 17.23266905 -53 18 C-50.77090704 19.47635821 -48.95746832 21.10627047 -47.0546875 22.98046875 C-45.37513406 24.63128459 -43.68337221 26.12851317 -41.87158203 27.6262207 C-40.92395996 28.40956787 -39.97633789 29.19291504 -39 30 C-37.75911621 28.74340576 -37.75911621 28.74340576 -36.49316406 27.46142578 C-33.41949281 24.3515252 -30.33918343 21.24827211 -27.25683594 18.14697266 C-25.92428823 16.8043741 -24.59354196 15.45998508 -23.26464844 14.11376953 C-21.35303197 12.17786496 -19.43500687 10.24851442 -17.515625 8.3203125 C-16.62789398 7.41709763 -16.62789398 7.41709763 -15.722229 6.49563599 C-15.16195007 5.93520599 -14.60167114 5.374776 -14.02441406 4.79736328 C-13.53587952 4.30438751 -13.04734497 3.81141174 -12.54400635 3.30349731 C-8.56105464 -0.05903216 -5.15823315 -0.45247659 0 0 Z " fill="#000000" transform="translate(286,230)"/>
<path d="M0 0 C3.0625 1.875 3.0625 1.875 5 5 C5.68997326 8.4783776 5.70786632 11.52346297 5 15 C2.63095184 18.41421647 1.02503506 19.64346607 -2.875 21 C-6.90306262 21 -9.47273862 19.89929459 -13 18 C-15.6790573 13.98141405 -15.69610694 10.72358279 -15 6 C-11.12560602 -0.19903038 -6.97059791 -1.00953487 0 0 Z " fill="#000000" transform="translate(329,245)"/>
</svg>
